<mxfile host="app.diagrams.net" modified="2021-06-04T02:55:07.063Z" agent="5.0 (Windows NT 10.0; Win64; x64) AppleWebKit/537.36 (KHTML, like Gecko) Chrome/90.0.4430.212 Safari/537.36" etag="HErH6hSVnUIa0C4GINoD" version="13.10.3" type="github" pages="3">
  <diagram id="S2r66XX0g-EsAxE8tAft" name="Page-1">
    <mxGraphModel dx="1982" dy="837" grid="0" gridSize="10" guides="1" tooltips="1" connect="1" arrows="1" fold="1" page="0" pageScale="1" pageWidth="827" pageHeight="1169" math="0" shadow="0">
      <root>
        <mxCell id="0" />
        <mxCell id="1" parent="0" />
        <mxCell id="d57JCpqhOHIWvO8QlCZO-1" value="" style="shape=internalStorage;whiteSpace=wrap;html=1;backgroundOutline=1;" parent="1" vertex="1">
          <mxGeometry x="-481" y="-316" width="153" height="154" as="geometry" />
        </mxCell>
        <mxCell id="d57JCpqhOHIWvO8QlCZO-2" value="" style="endArrow=none;dashed=1;html=1;dashPattern=1 3;strokeWidth=2;entryX=0;entryY=0;entryDx=0;entryDy=0;" parent="1" target="d57JCpqhOHIWvO8QlCZO-1" edge="1">
          <mxGeometry width="50" height="50" relative="1" as="geometry">
            <mxPoint x="-634" y="-367" as="sourcePoint" />
            <mxPoint x="-604" y="-347" as="targetPoint" />
          </mxGeometry>
        </mxCell>
        <mxCell id="d57JCpqhOHIWvO8QlCZO-3" value="" style="endArrow=none;dashed=1;html=1;dashPattern=1 3;strokeWidth=2;" parent="1" edge="1">
          <mxGeometry width="50" height="50" relative="1" as="geometry">
            <mxPoint x="-568" y="-157" as="sourcePoint" />
            <mxPoint x="-481" y="-297" as="targetPoint" />
          </mxGeometry>
        </mxCell>
        <mxCell id="d57JCpqhOHIWvO8QlCZO-4" value="&lt;b style=&quot;font-size: 18px&quot;&gt;&lt;font color=&quot;#ff0000&quot;&gt;typedef struct&lt;/font&gt;{&lt;br&gt;&amp;nbsp; &amp;nbsp; &amp;nbsp; &amp;nbsp;int amount; // &lt;font color=&quot;#0000ff&quot;&gt;미세먼지 현존량&lt;/font&gt;&lt;br&gt;&amp;nbsp; &amp;nbsp; &amp;nbsp; &amp;nbsp;int add; // &lt;font color=&quot;#0000ff&quot;&gt;확산에 의해 추가된 값&lt;/font&gt;&lt;br&gt;&amp;nbsp; &amp;nbsp; &amp;nbsp; &amp;nbsp;int cnt; // &lt;font color=&quot;#0000ff&quot;&gt;확산시킨 칸의 수&lt;/font&gt;&lt;br&gt;}&lt;font color=&quot;#ff0000&quot;&gt;Dust&lt;/font&gt;;&lt;/b&gt;" style="text;html=1;strokeColor=none;fillColor=none;align=left;verticalAlign=middle;whiteSpace=wrap;rounded=0;" parent="1" vertex="1">
          <mxGeometry x="-811" y="-335" width="347" height="98" as="geometry" />
        </mxCell>
        <mxCell id="d57JCpqhOHIWvO8QlCZO-5" value="" style="shape=table;html=1;whiteSpace=wrap;startSize=0;container=1;collapsible=0;childLayout=tableLayout;" parent="1" vertex="1">
          <mxGeometry x="-757" y="48" width="180" height="120" as="geometry" />
        </mxCell>
        <mxCell id="d57JCpqhOHIWvO8QlCZO-6" value="" style="shape=partialRectangle;html=1;whiteSpace=wrap;collapsible=0;dropTarget=0;pointerEvents=0;fillColor=none;top=0;left=0;bottom=0;right=0;points=[[0,0.5],[1,0.5]];portConstraint=eastwest;" parent="d57JCpqhOHIWvO8QlCZO-5" vertex="1">
          <mxGeometry width="180" height="40" as="geometry" />
        </mxCell>
        <mxCell id="d57JCpqhOHIWvO8QlCZO-7" value="" style="shape=partialRectangle;html=1;whiteSpace=wrap;connectable=0;fillColor=none;top=0;left=0;bottom=0;right=0;overflow=hidden;" parent="d57JCpqhOHIWvO8QlCZO-6" vertex="1">
          <mxGeometry width="60" height="40" as="geometry" />
        </mxCell>
        <mxCell id="d57JCpqhOHIWvO8QlCZO-8" value="" style="shape=partialRectangle;html=1;whiteSpace=wrap;connectable=0;fillColor=none;top=0;left=0;bottom=0;right=0;overflow=hidden;" parent="d57JCpqhOHIWvO8QlCZO-6" vertex="1">
          <mxGeometry x="60" width="60" height="40" as="geometry" />
        </mxCell>
        <mxCell id="d57JCpqhOHIWvO8QlCZO-9" value="" style="shape=partialRectangle;html=1;whiteSpace=wrap;connectable=0;fillColor=none;top=0;left=0;bottom=0;right=0;overflow=hidden;" parent="d57JCpqhOHIWvO8QlCZO-6" vertex="1">
          <mxGeometry x="120" width="60" height="40" as="geometry" />
        </mxCell>
        <mxCell id="d57JCpqhOHIWvO8QlCZO-10" value="" style="shape=partialRectangle;html=1;whiteSpace=wrap;collapsible=0;dropTarget=0;pointerEvents=0;fillColor=none;top=0;left=0;bottom=0;right=0;points=[[0,0.5],[1,0.5]];portConstraint=eastwest;" parent="d57JCpqhOHIWvO8QlCZO-5" vertex="1">
          <mxGeometry y="40" width="180" height="40" as="geometry" />
        </mxCell>
        <mxCell id="d57JCpqhOHIWvO8QlCZO-11" value="" style="shape=partialRectangle;html=1;whiteSpace=wrap;connectable=0;fillColor=none;top=0;left=0;bottom=0;right=0;overflow=hidden;" parent="d57JCpqhOHIWvO8QlCZO-10" vertex="1">
          <mxGeometry width="60" height="40" as="geometry" />
        </mxCell>
        <mxCell id="d57JCpqhOHIWvO8QlCZO-12" value="" style="shape=partialRectangle;html=1;whiteSpace=wrap;connectable=0;fillColor=none;top=0;left=0;bottom=0;right=0;overflow=hidden;" parent="d57JCpqhOHIWvO8QlCZO-10" vertex="1">
          <mxGeometry x="60" width="60" height="40" as="geometry" />
        </mxCell>
        <mxCell id="d57JCpqhOHIWvO8QlCZO-13" value="" style="shape=partialRectangle;html=1;whiteSpace=wrap;connectable=0;fillColor=none;top=0;left=0;bottom=0;right=0;overflow=hidden;" parent="d57JCpqhOHIWvO8QlCZO-10" vertex="1">
          <mxGeometry x="120" width="60" height="40" as="geometry" />
        </mxCell>
        <mxCell id="d57JCpqhOHIWvO8QlCZO-14" value="" style="shape=partialRectangle;html=1;whiteSpace=wrap;collapsible=0;dropTarget=0;pointerEvents=0;fillColor=none;top=0;left=0;bottom=0;right=0;points=[[0,0.5],[1,0.5]];portConstraint=eastwest;" parent="d57JCpqhOHIWvO8QlCZO-5" vertex="1">
          <mxGeometry y="80" width="180" height="40" as="geometry" />
        </mxCell>
        <mxCell id="d57JCpqhOHIWvO8QlCZO-15" value="" style="shape=partialRectangle;html=1;whiteSpace=wrap;connectable=0;fillColor=none;top=0;left=0;bottom=0;right=0;overflow=hidden;" parent="d57JCpqhOHIWvO8QlCZO-14" vertex="1">
          <mxGeometry width="60" height="40" as="geometry" />
        </mxCell>
        <mxCell id="d57JCpqhOHIWvO8QlCZO-16" value="" style="shape=partialRectangle;html=1;whiteSpace=wrap;connectable=0;fillColor=none;top=0;left=0;bottom=0;right=0;overflow=hidden;" parent="d57JCpqhOHIWvO8QlCZO-14" vertex="1">
          <mxGeometry x="60" width="60" height="40" as="geometry" />
        </mxCell>
        <mxCell id="d57JCpqhOHIWvO8QlCZO-17" value="" style="shape=partialRectangle;html=1;whiteSpace=wrap;connectable=0;fillColor=none;top=0;left=0;bottom=0;right=0;overflow=hidden;" parent="d57JCpqhOHIWvO8QlCZO-14" vertex="1">
          <mxGeometry x="120" width="60" height="40" as="geometry" />
        </mxCell>
        <mxCell id="d57JCpqhOHIWvO8QlCZO-22" value="" style="shape=table;html=1;whiteSpace=wrap;startSize=0;container=1;collapsible=0;childLayout=tableLayout;" parent="1" vertex="1">
          <mxGeometry x="-577" y="48" width="180" height="120" as="geometry" />
        </mxCell>
        <mxCell id="d57JCpqhOHIWvO8QlCZO-23" value="" style="shape=partialRectangle;html=1;whiteSpace=wrap;collapsible=0;dropTarget=0;pointerEvents=0;fillColor=none;top=0;left=0;bottom=0;right=0;points=[[0,0.5],[1,0.5]];portConstraint=eastwest;" parent="d57JCpqhOHIWvO8QlCZO-22" vertex="1">
          <mxGeometry width="180" height="40" as="geometry" />
        </mxCell>
        <mxCell id="d57JCpqhOHIWvO8QlCZO-24" value="" style="shape=partialRectangle;html=1;whiteSpace=wrap;connectable=0;fillColor=none;top=0;left=0;bottom=0;right=0;overflow=hidden;" parent="d57JCpqhOHIWvO8QlCZO-23" vertex="1">
          <mxGeometry width="60" height="40" as="geometry" />
        </mxCell>
        <mxCell id="d57JCpqhOHIWvO8QlCZO-25" value="" style="shape=partialRectangle;html=1;whiteSpace=wrap;connectable=0;fillColor=none;top=0;left=0;bottom=0;right=0;overflow=hidden;" parent="d57JCpqhOHIWvO8QlCZO-23" vertex="1">
          <mxGeometry x="60" width="60" height="40" as="geometry" />
        </mxCell>
        <mxCell id="d57JCpqhOHIWvO8QlCZO-26" value="" style="shape=partialRectangle;html=1;whiteSpace=wrap;connectable=0;fillColor=none;top=0;left=0;bottom=0;right=0;overflow=hidden;" parent="d57JCpqhOHIWvO8QlCZO-23" vertex="1">
          <mxGeometry x="120" width="60" height="40" as="geometry" />
        </mxCell>
        <mxCell id="d57JCpqhOHIWvO8QlCZO-27" value="" style="shape=partialRectangle;html=1;whiteSpace=wrap;collapsible=0;dropTarget=0;pointerEvents=0;fillColor=none;top=0;left=0;bottom=0;right=0;points=[[0,0.5],[1,0.5]];portConstraint=eastwest;" parent="d57JCpqhOHIWvO8QlCZO-22" vertex="1">
          <mxGeometry y="40" width="180" height="40" as="geometry" />
        </mxCell>
        <mxCell id="d57JCpqhOHIWvO8QlCZO-28" value="" style="shape=partialRectangle;html=1;whiteSpace=wrap;connectable=0;fillColor=none;top=0;left=0;bottom=0;right=0;overflow=hidden;" parent="d57JCpqhOHIWvO8QlCZO-27" vertex="1">
          <mxGeometry width="60" height="40" as="geometry" />
        </mxCell>
        <mxCell id="d57JCpqhOHIWvO8QlCZO-29" value="" style="shape=partialRectangle;html=1;whiteSpace=wrap;connectable=0;fillColor=none;top=0;left=0;bottom=0;right=0;overflow=hidden;" parent="d57JCpqhOHIWvO8QlCZO-27" vertex="1">
          <mxGeometry x="60" width="60" height="40" as="geometry" />
        </mxCell>
        <mxCell id="d57JCpqhOHIWvO8QlCZO-30" value="" style="shape=partialRectangle;html=1;whiteSpace=wrap;connectable=0;fillColor=none;top=0;left=0;bottom=0;right=0;overflow=hidden;" parent="d57JCpqhOHIWvO8QlCZO-27" vertex="1">
          <mxGeometry x="120" width="60" height="40" as="geometry" />
        </mxCell>
        <mxCell id="d57JCpqhOHIWvO8QlCZO-31" value="" style="shape=partialRectangle;html=1;whiteSpace=wrap;collapsible=0;dropTarget=0;pointerEvents=0;fillColor=none;top=0;left=0;bottom=0;right=0;points=[[0,0.5],[1,0.5]];portConstraint=eastwest;" parent="d57JCpqhOHIWvO8QlCZO-22" vertex="1">
          <mxGeometry y="80" width="180" height="40" as="geometry" />
        </mxCell>
        <mxCell id="d57JCpqhOHIWvO8QlCZO-32" value="" style="shape=partialRectangle;html=1;whiteSpace=wrap;connectable=0;fillColor=none;top=0;left=0;bottom=0;right=0;overflow=hidden;" parent="d57JCpqhOHIWvO8QlCZO-31" vertex="1">
          <mxGeometry width="60" height="40" as="geometry" />
        </mxCell>
        <mxCell id="d57JCpqhOHIWvO8QlCZO-33" value="" style="shape=partialRectangle;html=1;whiteSpace=wrap;connectable=0;fillColor=none;top=0;left=0;bottom=0;right=0;overflow=hidden;" parent="d57JCpqhOHIWvO8QlCZO-31" vertex="1">
          <mxGeometry x="60" width="60" height="40" as="geometry" />
        </mxCell>
        <mxCell id="d57JCpqhOHIWvO8QlCZO-34" value="" style="shape=partialRectangle;html=1;whiteSpace=wrap;connectable=0;fillColor=none;top=0;left=0;bottom=0;right=0;overflow=hidden;" parent="d57JCpqhOHIWvO8QlCZO-31" vertex="1">
          <mxGeometry x="120" width="60" height="40" as="geometry" />
        </mxCell>
        <mxCell id="d57JCpqhOHIWvO8QlCZO-35" value="" style="shape=table;html=1;whiteSpace=wrap;startSize=0;container=1;collapsible=0;childLayout=tableLayout;" parent="1" vertex="1">
          <mxGeometry x="-757" y="168" width="180" height="120" as="geometry" />
        </mxCell>
        <mxCell id="d57JCpqhOHIWvO8QlCZO-36" value="" style="shape=partialRectangle;html=1;whiteSpace=wrap;collapsible=0;dropTarget=0;pointerEvents=0;fillColor=none;top=0;left=0;bottom=0;right=0;points=[[0,0.5],[1,0.5]];portConstraint=eastwest;" parent="d57JCpqhOHIWvO8QlCZO-35" vertex="1">
          <mxGeometry width="180" height="40" as="geometry" />
        </mxCell>
        <mxCell id="d57JCpqhOHIWvO8QlCZO-37" value="" style="shape=partialRectangle;html=1;whiteSpace=wrap;connectable=0;fillColor=none;top=0;left=0;bottom=0;right=0;overflow=hidden;" parent="d57JCpqhOHIWvO8QlCZO-36" vertex="1">
          <mxGeometry width="60" height="40" as="geometry" />
        </mxCell>
        <mxCell id="d57JCpqhOHIWvO8QlCZO-38" value="" style="shape=partialRectangle;html=1;whiteSpace=wrap;connectable=0;fillColor=none;top=0;left=0;bottom=0;right=0;overflow=hidden;" parent="d57JCpqhOHIWvO8QlCZO-36" vertex="1">
          <mxGeometry x="60" width="60" height="40" as="geometry" />
        </mxCell>
        <mxCell id="d57JCpqhOHIWvO8QlCZO-39" value="" style="shape=partialRectangle;html=1;whiteSpace=wrap;connectable=0;fillColor=none;top=0;left=0;bottom=0;right=0;overflow=hidden;" parent="d57JCpqhOHIWvO8QlCZO-36" vertex="1">
          <mxGeometry x="120" width="60" height="40" as="geometry" />
        </mxCell>
        <mxCell id="d57JCpqhOHIWvO8QlCZO-40" value="" style="shape=partialRectangle;html=1;whiteSpace=wrap;collapsible=0;dropTarget=0;pointerEvents=0;fillColor=none;top=0;left=0;bottom=0;right=0;points=[[0,0.5],[1,0.5]];portConstraint=eastwest;" parent="d57JCpqhOHIWvO8QlCZO-35" vertex="1">
          <mxGeometry y="40" width="180" height="40" as="geometry" />
        </mxCell>
        <mxCell id="d57JCpqhOHIWvO8QlCZO-41" value="" style="shape=partialRectangle;html=1;whiteSpace=wrap;connectable=0;fillColor=none;top=0;left=0;bottom=0;right=0;overflow=hidden;" parent="d57JCpqhOHIWvO8QlCZO-40" vertex="1">
          <mxGeometry width="60" height="40" as="geometry" />
        </mxCell>
        <mxCell id="d57JCpqhOHIWvO8QlCZO-42" value="" style="shape=partialRectangle;html=1;whiteSpace=wrap;connectable=0;fillColor=none;top=0;left=0;bottom=0;right=0;overflow=hidden;" parent="d57JCpqhOHIWvO8QlCZO-40" vertex="1">
          <mxGeometry x="60" width="60" height="40" as="geometry" />
        </mxCell>
        <mxCell id="d57JCpqhOHIWvO8QlCZO-43" value="" style="shape=partialRectangle;html=1;whiteSpace=wrap;connectable=0;fillColor=none;top=0;left=0;bottom=0;right=0;overflow=hidden;" parent="d57JCpqhOHIWvO8QlCZO-40" vertex="1">
          <mxGeometry x="120" width="60" height="40" as="geometry" />
        </mxCell>
        <mxCell id="d57JCpqhOHIWvO8QlCZO-44" value="" style="shape=partialRectangle;html=1;whiteSpace=wrap;collapsible=0;dropTarget=0;pointerEvents=0;fillColor=none;top=0;left=0;bottom=0;right=0;points=[[0,0.5],[1,0.5]];portConstraint=eastwest;" parent="d57JCpqhOHIWvO8QlCZO-35" vertex="1">
          <mxGeometry y="80" width="180" height="40" as="geometry" />
        </mxCell>
        <mxCell id="d57JCpqhOHIWvO8QlCZO-45" value="" style="shape=partialRectangle;html=1;whiteSpace=wrap;connectable=0;fillColor=none;top=0;left=0;bottom=0;right=0;overflow=hidden;" parent="d57JCpqhOHIWvO8QlCZO-44" vertex="1">
          <mxGeometry width="60" height="40" as="geometry" />
        </mxCell>
        <mxCell id="d57JCpqhOHIWvO8QlCZO-46" value="" style="shape=partialRectangle;html=1;whiteSpace=wrap;connectable=0;fillColor=none;top=0;left=0;bottom=0;right=0;overflow=hidden;" parent="d57JCpqhOHIWvO8QlCZO-44" vertex="1">
          <mxGeometry x="60" width="60" height="40" as="geometry" />
        </mxCell>
        <mxCell id="d57JCpqhOHIWvO8QlCZO-47" value="" style="shape=partialRectangle;html=1;whiteSpace=wrap;connectable=0;fillColor=none;top=0;left=0;bottom=0;right=0;overflow=hidden;" parent="d57JCpqhOHIWvO8QlCZO-44" vertex="1">
          <mxGeometry x="120" width="60" height="40" as="geometry" />
        </mxCell>
        <mxCell id="d57JCpqhOHIWvO8QlCZO-48" value="" style="shape=table;html=1;whiteSpace=wrap;startSize=0;container=1;collapsible=0;childLayout=tableLayout;" parent="1" vertex="1">
          <mxGeometry x="-577" y="168" width="180" height="120" as="geometry" />
        </mxCell>
        <mxCell id="d57JCpqhOHIWvO8QlCZO-49" value="" style="shape=partialRectangle;html=1;whiteSpace=wrap;collapsible=0;dropTarget=0;pointerEvents=0;fillColor=none;top=0;left=0;bottom=0;right=0;points=[[0,0.5],[1,0.5]];portConstraint=eastwest;" parent="d57JCpqhOHIWvO8QlCZO-48" vertex="1">
          <mxGeometry width="180" height="40" as="geometry" />
        </mxCell>
        <mxCell id="d57JCpqhOHIWvO8QlCZO-50" value="" style="shape=partialRectangle;html=1;whiteSpace=wrap;connectable=0;fillColor=none;top=0;left=0;bottom=0;right=0;overflow=hidden;" parent="d57JCpqhOHIWvO8QlCZO-49" vertex="1">
          <mxGeometry width="60" height="40" as="geometry" />
        </mxCell>
        <mxCell id="d57JCpqhOHIWvO8QlCZO-51" value="" style="shape=partialRectangle;html=1;whiteSpace=wrap;connectable=0;fillColor=none;top=0;left=0;bottom=0;right=0;overflow=hidden;" parent="d57JCpqhOHIWvO8QlCZO-49" vertex="1">
          <mxGeometry x="60" width="60" height="40" as="geometry" />
        </mxCell>
        <mxCell id="d57JCpqhOHIWvO8QlCZO-52" value="" style="shape=partialRectangle;html=1;whiteSpace=wrap;connectable=0;fillColor=none;top=0;left=0;bottom=0;right=0;overflow=hidden;" parent="d57JCpqhOHIWvO8QlCZO-49" vertex="1">
          <mxGeometry x="120" width="60" height="40" as="geometry" />
        </mxCell>
        <mxCell id="d57JCpqhOHIWvO8QlCZO-53" value="" style="shape=partialRectangle;html=1;whiteSpace=wrap;collapsible=0;dropTarget=0;pointerEvents=0;fillColor=none;top=0;left=0;bottom=0;right=0;points=[[0,0.5],[1,0.5]];portConstraint=eastwest;" parent="d57JCpqhOHIWvO8QlCZO-48" vertex="1">
          <mxGeometry y="40" width="180" height="40" as="geometry" />
        </mxCell>
        <mxCell id="d57JCpqhOHIWvO8QlCZO-54" value="" style="shape=partialRectangle;html=1;whiteSpace=wrap;connectable=0;fillColor=none;top=0;left=0;bottom=0;right=0;overflow=hidden;" parent="d57JCpqhOHIWvO8QlCZO-53" vertex="1">
          <mxGeometry width="60" height="40" as="geometry" />
        </mxCell>
        <mxCell id="d57JCpqhOHIWvO8QlCZO-55" value="" style="shape=partialRectangle;html=1;whiteSpace=wrap;connectable=0;fillColor=none;top=0;left=0;bottom=0;right=0;overflow=hidden;" parent="d57JCpqhOHIWvO8QlCZO-53" vertex="1">
          <mxGeometry x="60" width="60" height="40" as="geometry" />
        </mxCell>
        <mxCell id="d57JCpqhOHIWvO8QlCZO-56" value="" style="shape=partialRectangle;html=1;whiteSpace=wrap;connectable=0;fillColor=none;top=0;left=0;bottom=0;right=0;overflow=hidden;" parent="d57JCpqhOHIWvO8QlCZO-53" vertex="1">
          <mxGeometry x="120" width="60" height="40" as="geometry" />
        </mxCell>
        <mxCell id="d57JCpqhOHIWvO8QlCZO-57" value="" style="shape=partialRectangle;html=1;whiteSpace=wrap;collapsible=0;dropTarget=0;pointerEvents=0;fillColor=none;top=0;left=0;bottom=0;right=0;points=[[0,0.5],[1,0.5]];portConstraint=eastwest;" parent="d57JCpqhOHIWvO8QlCZO-48" vertex="1">
          <mxGeometry y="80" width="180" height="40" as="geometry" />
        </mxCell>
        <mxCell id="d57JCpqhOHIWvO8QlCZO-58" value="" style="shape=partialRectangle;html=1;whiteSpace=wrap;connectable=0;fillColor=none;top=0;left=0;bottom=0;right=0;overflow=hidden;" parent="d57JCpqhOHIWvO8QlCZO-57" vertex="1">
          <mxGeometry width="60" height="40" as="geometry" />
        </mxCell>
        <mxCell id="d57JCpqhOHIWvO8QlCZO-59" value="" style="shape=partialRectangle;html=1;whiteSpace=wrap;connectable=0;fillColor=none;top=0;left=0;bottom=0;right=0;overflow=hidden;" parent="d57JCpqhOHIWvO8QlCZO-57" vertex="1">
          <mxGeometry x="60" width="60" height="40" as="geometry" />
        </mxCell>
        <mxCell id="d57JCpqhOHIWvO8QlCZO-60" value="" style="shape=partialRectangle;html=1;whiteSpace=wrap;connectable=0;fillColor=none;top=0;left=0;bottom=0;right=0;overflow=hidden;" parent="d57JCpqhOHIWvO8QlCZO-57" vertex="1">
          <mxGeometry x="120" width="60" height="40" as="geometry" />
        </mxCell>
        <mxCell id="d57JCpqhOHIWvO8QlCZO-61" value="" style="shape=actor;whiteSpace=wrap;html=1;fillColor=#FF00FF;" parent="1" vertex="1">
          <mxGeometry x="-747" y="138" width="40" height="60" as="geometry" />
        </mxCell>
        <mxCell id="d57JCpqhOHIWvO8QlCZO-63" value="" style="endArrow=classic;html=1;strokeWidth=2;" parent="1" edge="1">
          <mxGeometry width="50" height="50" relative="1" as="geometry">
            <mxPoint x="-688" y="153" as="sourcePoint" />
            <mxPoint x="-415" y="153" as="targetPoint" />
          </mxGeometry>
        </mxCell>
        <mxCell id="d57JCpqhOHIWvO8QlCZO-64" value="" style="endArrow=classic;html=1;strokeWidth=2;" parent="1" edge="1">
          <mxGeometry width="50" height="50" relative="1" as="geometry">
            <mxPoint x="-425" y="125" as="sourcePoint" />
            <mxPoint x="-425" y="68" as="targetPoint" />
          </mxGeometry>
        </mxCell>
        <mxCell id="d57JCpqhOHIWvO8QlCZO-65" value="" style="endArrow=classic;html=1;strokeWidth=2;" parent="1" edge="1">
          <mxGeometry width="50" height="50" relative="1" as="geometry">
            <mxPoint x="-446" y="69" as="sourcePoint" />
            <mxPoint x="-714" y="69" as="targetPoint" />
          </mxGeometry>
        </mxCell>
        <mxCell id="d57JCpqhOHIWvO8QlCZO-66" value="" style="endArrow=classic;html=1;strokeWidth=2;" parent="1" edge="1">
          <mxGeometry width="50" height="50" relative="1" as="geometry">
            <mxPoint x="-727" y="62" as="sourcePoint" />
            <mxPoint x="-727.5" y="123" as="targetPoint" />
          </mxGeometry>
        </mxCell>
        <mxCell id="d57JCpqhOHIWvO8QlCZO-67" value="" style="curved=1;endArrow=classic;html=1;strokeWidth=3;strokeColor=#FF0000;" parent="1" edge="1">
          <mxGeometry width="50" height="50" relative="1" as="geometry">
            <mxPoint x="-748" y="111" as="sourcePoint" />
            <mxPoint x="-757" y="144" as="targetPoint" />
            <Array as="points">
              <mxPoint x="-781" y="111" />
              <mxPoint x="-781" y="144" />
            </Array>
          </mxGeometry>
        </mxCell>
        <mxCell id="d57JCpqhOHIWvO8QlCZO-69" value="&lt;font style=&quot;font-size: 14px&quot; color=&quot;#ff0000&quot;&gt;&lt;b&gt;Start&lt;/b&gt;&lt;/font&gt;" style="text;html=1;strokeColor=none;fillColor=none;align=center;verticalAlign=middle;whiteSpace=wrap;rounded=0;" parent="1" vertex="1">
          <mxGeometry x="-830" y="118" width="40" height="20" as="geometry" />
        </mxCell>
        <mxCell id="d57JCpqhOHIWvO8QlCZO-70" value="" style="curved=1;endArrow=classic;html=1;strokeWidth=3;strokeColor=#FF0000;" parent="1" edge="1">
          <mxGeometry width="50" height="50" relative="1" as="geometry">
            <mxPoint x="-748" y="63" as="sourcePoint" />
            <mxPoint x="-757" y="96" as="targetPoint" />
            <Array as="points">
              <mxPoint x="-781" y="63" />
              <mxPoint x="-781" y="96" />
            </Array>
          </mxGeometry>
        </mxCell>
        <mxCell id="d57JCpqhOHIWvO8QlCZO-71" value="" style="curved=1;endArrow=classic;html=1;strokeWidth=3;strokeColor=#FF0000;" parent="1" edge="1">
          <mxGeometry width="50" height="50" relative="1" as="geometry">
            <mxPoint x="-667" y="52" as="sourcePoint" />
            <mxPoint x="-730" y="52" as="targetPoint" />
            <Array as="points">
              <mxPoint x="-696" y="12" />
            </Array>
          </mxGeometry>
        </mxCell>
        <mxCell id="d57JCpqhOHIWvO8QlCZO-72" value="" style="curved=1;endArrow=classic;html=1;strokeWidth=3;strokeColor=#FF0000;" parent="1" edge="1">
          <mxGeometry width="50" height="50" relative="1" as="geometry">
            <mxPoint x="-591" y="51" as="sourcePoint" />
            <mxPoint x="-654" y="51" as="targetPoint" />
            <Array as="points">
              <mxPoint x="-620" y="11" />
            </Array>
          </mxGeometry>
        </mxCell>
        <mxCell id="-0185rRZfGU8UhvXT_gh-63" value="" style="shape=table;html=1;whiteSpace=wrap;startSize=0;container=1;collapsible=0;childLayout=tableLayout;" parent="1" vertex="1">
          <mxGeometry x="-721" y="463" width="180" height="120" as="geometry" />
        </mxCell>
        <mxCell id="-0185rRZfGU8UhvXT_gh-64" value="" style="shape=partialRectangle;html=1;whiteSpace=wrap;collapsible=0;dropTarget=0;pointerEvents=0;fillColor=none;top=0;left=0;bottom=0;right=0;points=[[0,0.5],[1,0.5]];portConstraint=eastwest;" parent="-0185rRZfGU8UhvXT_gh-63" vertex="1">
          <mxGeometry width="180" height="40" as="geometry" />
        </mxCell>
        <mxCell id="-0185rRZfGU8UhvXT_gh-65" value="" style="shape=partialRectangle;html=1;whiteSpace=wrap;connectable=0;fillColor=none;top=0;left=0;bottom=0;right=0;overflow=hidden;" parent="-0185rRZfGU8UhvXT_gh-64" vertex="1">
          <mxGeometry width="60" height="40" as="geometry" />
        </mxCell>
        <mxCell id="-0185rRZfGU8UhvXT_gh-66" value="" style="shape=partialRectangle;html=1;whiteSpace=wrap;connectable=0;fillColor=none;top=0;left=0;bottom=0;right=0;overflow=hidden;" parent="-0185rRZfGU8UhvXT_gh-64" vertex="1">
          <mxGeometry x="60" width="60" height="40" as="geometry" />
        </mxCell>
        <mxCell id="-0185rRZfGU8UhvXT_gh-67" value="" style="shape=partialRectangle;html=1;whiteSpace=wrap;connectable=0;fillColor=none;top=0;left=0;bottom=0;right=0;overflow=hidden;" parent="-0185rRZfGU8UhvXT_gh-64" vertex="1">
          <mxGeometry x="120" width="60" height="40" as="geometry" />
        </mxCell>
        <mxCell id="-0185rRZfGU8UhvXT_gh-68" value="" style="shape=partialRectangle;html=1;whiteSpace=wrap;collapsible=0;dropTarget=0;pointerEvents=0;fillColor=none;top=0;left=0;bottom=0;right=0;points=[[0,0.5],[1,0.5]];portConstraint=eastwest;" parent="-0185rRZfGU8UhvXT_gh-63" vertex="1">
          <mxGeometry y="40" width="180" height="40" as="geometry" />
        </mxCell>
        <mxCell id="-0185rRZfGU8UhvXT_gh-69" value="" style="shape=partialRectangle;html=1;whiteSpace=wrap;connectable=0;fillColor=none;top=0;left=0;bottom=0;right=0;overflow=hidden;" parent="-0185rRZfGU8UhvXT_gh-68" vertex="1">
          <mxGeometry width="60" height="40" as="geometry" />
        </mxCell>
        <mxCell id="-0185rRZfGU8UhvXT_gh-70" value="" style="shape=partialRectangle;html=1;whiteSpace=wrap;connectable=0;fillColor=none;top=0;left=0;bottom=0;right=0;overflow=hidden;" parent="-0185rRZfGU8UhvXT_gh-68" vertex="1">
          <mxGeometry x="60" width="60" height="40" as="geometry" />
        </mxCell>
        <mxCell id="-0185rRZfGU8UhvXT_gh-71" value="" style="shape=partialRectangle;html=1;whiteSpace=wrap;connectable=0;fillColor=none;top=0;left=0;bottom=0;right=0;overflow=hidden;" parent="-0185rRZfGU8UhvXT_gh-68" vertex="1">
          <mxGeometry x="120" width="60" height="40" as="geometry" />
        </mxCell>
        <mxCell id="-0185rRZfGU8UhvXT_gh-72" value="" style="shape=partialRectangle;html=1;whiteSpace=wrap;collapsible=0;dropTarget=0;pointerEvents=0;fillColor=none;top=0;left=0;bottom=0;right=0;points=[[0,0.5],[1,0.5]];portConstraint=eastwest;" parent="-0185rRZfGU8UhvXT_gh-63" vertex="1">
          <mxGeometry y="80" width="180" height="40" as="geometry" />
        </mxCell>
        <mxCell id="-0185rRZfGU8UhvXT_gh-73" value="" style="shape=partialRectangle;html=1;whiteSpace=wrap;connectable=0;fillColor=none;top=0;left=0;bottom=0;right=0;overflow=hidden;" parent="-0185rRZfGU8UhvXT_gh-72" vertex="1">
          <mxGeometry width="60" height="40" as="geometry" />
        </mxCell>
        <mxCell id="-0185rRZfGU8UhvXT_gh-74" value="" style="shape=partialRectangle;html=1;whiteSpace=wrap;connectable=0;fillColor=none;top=0;left=0;bottom=0;right=0;overflow=hidden;" parent="-0185rRZfGU8UhvXT_gh-72" vertex="1">
          <mxGeometry x="60" width="60" height="40" as="geometry" />
        </mxCell>
        <mxCell id="-0185rRZfGU8UhvXT_gh-75" value="" style="shape=partialRectangle;html=1;whiteSpace=wrap;connectable=0;fillColor=none;top=0;left=0;bottom=0;right=0;overflow=hidden;" parent="-0185rRZfGU8UhvXT_gh-72" vertex="1">
          <mxGeometry x="120" width="60" height="40" as="geometry" />
        </mxCell>
        <mxCell id="-0185rRZfGU8UhvXT_gh-76" value="" style="shape=table;html=1;whiteSpace=wrap;startSize=0;container=1;collapsible=0;childLayout=tableLayout;" parent="1" vertex="1">
          <mxGeometry x="-541" y="463" width="180" height="120" as="geometry" />
        </mxCell>
        <mxCell id="-0185rRZfGU8UhvXT_gh-77" value="" style="shape=partialRectangle;html=1;whiteSpace=wrap;collapsible=0;dropTarget=0;pointerEvents=0;fillColor=none;top=0;left=0;bottom=0;right=0;points=[[0,0.5],[1,0.5]];portConstraint=eastwest;" parent="-0185rRZfGU8UhvXT_gh-76" vertex="1">
          <mxGeometry width="180" height="40" as="geometry" />
        </mxCell>
        <mxCell id="-0185rRZfGU8UhvXT_gh-78" value="" style="shape=partialRectangle;html=1;whiteSpace=wrap;connectable=0;fillColor=none;top=0;left=0;bottom=0;right=0;overflow=hidden;" parent="-0185rRZfGU8UhvXT_gh-77" vertex="1">
          <mxGeometry width="60" height="40" as="geometry" />
        </mxCell>
        <mxCell id="-0185rRZfGU8UhvXT_gh-79" value="" style="shape=partialRectangle;html=1;whiteSpace=wrap;connectable=0;fillColor=none;top=0;left=0;bottom=0;right=0;overflow=hidden;" parent="-0185rRZfGU8UhvXT_gh-77" vertex="1">
          <mxGeometry x="60" width="60" height="40" as="geometry" />
        </mxCell>
        <mxCell id="-0185rRZfGU8UhvXT_gh-80" value="" style="shape=partialRectangle;html=1;whiteSpace=wrap;connectable=0;fillColor=none;top=0;left=0;bottom=0;right=0;overflow=hidden;" parent="-0185rRZfGU8UhvXT_gh-77" vertex="1">
          <mxGeometry x="120" width="60" height="40" as="geometry" />
        </mxCell>
        <mxCell id="-0185rRZfGU8UhvXT_gh-81" value="" style="shape=partialRectangle;html=1;whiteSpace=wrap;collapsible=0;dropTarget=0;pointerEvents=0;fillColor=none;top=0;left=0;bottom=0;right=0;points=[[0,0.5],[1,0.5]];portConstraint=eastwest;" parent="-0185rRZfGU8UhvXT_gh-76" vertex="1">
          <mxGeometry y="40" width="180" height="40" as="geometry" />
        </mxCell>
        <mxCell id="-0185rRZfGU8UhvXT_gh-82" value="" style="shape=partialRectangle;html=1;whiteSpace=wrap;connectable=0;fillColor=none;top=0;left=0;bottom=0;right=0;overflow=hidden;" parent="-0185rRZfGU8UhvXT_gh-81" vertex="1">
          <mxGeometry width="60" height="40" as="geometry" />
        </mxCell>
        <mxCell id="-0185rRZfGU8UhvXT_gh-83" value="" style="shape=partialRectangle;html=1;whiteSpace=wrap;connectable=0;fillColor=none;top=0;left=0;bottom=0;right=0;overflow=hidden;" parent="-0185rRZfGU8UhvXT_gh-81" vertex="1">
          <mxGeometry x="60" width="60" height="40" as="geometry" />
        </mxCell>
        <mxCell id="-0185rRZfGU8UhvXT_gh-84" value="" style="shape=partialRectangle;html=1;whiteSpace=wrap;connectable=0;fillColor=none;top=0;left=0;bottom=0;right=0;overflow=hidden;" parent="-0185rRZfGU8UhvXT_gh-81" vertex="1">
          <mxGeometry x="120" width="60" height="40" as="geometry" />
        </mxCell>
        <mxCell id="-0185rRZfGU8UhvXT_gh-85" value="" style="shape=partialRectangle;html=1;whiteSpace=wrap;collapsible=0;dropTarget=0;pointerEvents=0;fillColor=none;top=0;left=0;bottom=0;right=0;points=[[0,0.5],[1,0.5]];portConstraint=eastwest;" parent="-0185rRZfGU8UhvXT_gh-76" vertex="1">
          <mxGeometry y="80" width="180" height="40" as="geometry" />
        </mxCell>
        <mxCell id="-0185rRZfGU8UhvXT_gh-86" value="" style="shape=partialRectangle;html=1;whiteSpace=wrap;connectable=0;fillColor=none;top=0;left=0;bottom=0;right=0;overflow=hidden;" parent="-0185rRZfGU8UhvXT_gh-85" vertex="1">
          <mxGeometry width="60" height="40" as="geometry" />
        </mxCell>
        <mxCell id="-0185rRZfGU8UhvXT_gh-87" value="" style="shape=partialRectangle;html=1;whiteSpace=wrap;connectable=0;fillColor=none;top=0;left=0;bottom=0;right=0;overflow=hidden;" parent="-0185rRZfGU8UhvXT_gh-85" vertex="1">
          <mxGeometry x="60" width="60" height="40" as="geometry" />
        </mxCell>
        <mxCell id="-0185rRZfGU8UhvXT_gh-88" value="" style="shape=partialRectangle;html=1;whiteSpace=wrap;connectable=0;fillColor=none;top=0;left=0;bottom=0;right=0;overflow=hidden;" parent="-0185rRZfGU8UhvXT_gh-85" vertex="1">
          <mxGeometry x="120" width="60" height="40" as="geometry" />
        </mxCell>
        <mxCell id="-0185rRZfGU8UhvXT_gh-89" value="" style="shape=table;html=1;whiteSpace=wrap;startSize=0;container=1;collapsible=0;childLayout=tableLayout;" parent="1" vertex="1">
          <mxGeometry x="-721" y="583" width="180" height="120" as="geometry" />
        </mxCell>
        <mxCell id="-0185rRZfGU8UhvXT_gh-90" value="" style="shape=partialRectangle;html=1;whiteSpace=wrap;collapsible=0;dropTarget=0;pointerEvents=0;fillColor=none;top=0;left=0;bottom=0;right=0;points=[[0,0.5],[1,0.5]];portConstraint=eastwest;" parent="-0185rRZfGU8UhvXT_gh-89" vertex="1">
          <mxGeometry width="180" height="40" as="geometry" />
        </mxCell>
        <mxCell id="-0185rRZfGU8UhvXT_gh-91" value="" style="shape=partialRectangle;html=1;whiteSpace=wrap;connectable=0;fillColor=none;top=0;left=0;bottom=0;right=0;overflow=hidden;" parent="-0185rRZfGU8UhvXT_gh-90" vertex="1">
          <mxGeometry width="60" height="40" as="geometry" />
        </mxCell>
        <mxCell id="-0185rRZfGU8UhvXT_gh-92" value="" style="shape=partialRectangle;html=1;whiteSpace=wrap;connectable=0;fillColor=none;top=0;left=0;bottom=0;right=0;overflow=hidden;" parent="-0185rRZfGU8UhvXT_gh-90" vertex="1">
          <mxGeometry x="60" width="60" height="40" as="geometry" />
        </mxCell>
        <mxCell id="-0185rRZfGU8UhvXT_gh-93" value="" style="shape=partialRectangle;html=1;whiteSpace=wrap;connectable=0;fillColor=none;top=0;left=0;bottom=0;right=0;overflow=hidden;" parent="-0185rRZfGU8UhvXT_gh-90" vertex="1">
          <mxGeometry x="120" width="60" height="40" as="geometry" />
        </mxCell>
        <mxCell id="-0185rRZfGU8UhvXT_gh-94" value="" style="shape=partialRectangle;html=1;whiteSpace=wrap;collapsible=0;dropTarget=0;pointerEvents=0;fillColor=none;top=0;left=0;bottom=0;right=0;points=[[0,0.5],[1,0.5]];portConstraint=eastwest;" parent="-0185rRZfGU8UhvXT_gh-89" vertex="1">
          <mxGeometry y="40" width="180" height="40" as="geometry" />
        </mxCell>
        <mxCell id="-0185rRZfGU8UhvXT_gh-95" value="" style="shape=partialRectangle;html=1;whiteSpace=wrap;connectable=0;fillColor=none;top=0;left=0;bottom=0;right=0;overflow=hidden;" parent="-0185rRZfGU8UhvXT_gh-94" vertex="1">
          <mxGeometry width="60" height="40" as="geometry" />
        </mxCell>
        <mxCell id="-0185rRZfGU8UhvXT_gh-96" value="" style="shape=partialRectangle;html=1;whiteSpace=wrap;connectable=0;fillColor=none;top=0;left=0;bottom=0;right=0;overflow=hidden;" parent="-0185rRZfGU8UhvXT_gh-94" vertex="1">
          <mxGeometry x="60" width="60" height="40" as="geometry" />
        </mxCell>
        <mxCell id="-0185rRZfGU8UhvXT_gh-97" value="" style="shape=partialRectangle;html=1;whiteSpace=wrap;connectable=0;fillColor=none;top=0;left=0;bottom=0;right=0;overflow=hidden;" parent="-0185rRZfGU8UhvXT_gh-94" vertex="1">
          <mxGeometry x="120" width="60" height="40" as="geometry" />
        </mxCell>
        <mxCell id="-0185rRZfGU8UhvXT_gh-98" value="" style="shape=partialRectangle;html=1;whiteSpace=wrap;collapsible=0;dropTarget=0;pointerEvents=0;fillColor=none;top=0;left=0;bottom=0;right=0;points=[[0,0.5],[1,0.5]];portConstraint=eastwest;" parent="-0185rRZfGU8UhvXT_gh-89" vertex="1">
          <mxGeometry y="80" width="180" height="40" as="geometry" />
        </mxCell>
        <mxCell id="-0185rRZfGU8UhvXT_gh-99" value="" style="shape=partialRectangle;html=1;whiteSpace=wrap;connectable=0;fillColor=none;top=0;left=0;bottom=0;right=0;overflow=hidden;" parent="-0185rRZfGU8UhvXT_gh-98" vertex="1">
          <mxGeometry width="60" height="40" as="geometry" />
        </mxCell>
        <mxCell id="-0185rRZfGU8UhvXT_gh-100" value="" style="shape=partialRectangle;html=1;whiteSpace=wrap;connectable=0;fillColor=none;top=0;left=0;bottom=0;right=0;overflow=hidden;" parent="-0185rRZfGU8UhvXT_gh-98" vertex="1">
          <mxGeometry x="60" width="60" height="40" as="geometry" />
        </mxCell>
        <mxCell id="-0185rRZfGU8UhvXT_gh-101" value="" style="shape=partialRectangle;html=1;whiteSpace=wrap;connectable=0;fillColor=none;top=0;left=0;bottom=0;right=0;overflow=hidden;" parent="-0185rRZfGU8UhvXT_gh-98" vertex="1">
          <mxGeometry x="120" width="60" height="40" as="geometry" />
        </mxCell>
        <mxCell id="-0185rRZfGU8UhvXT_gh-102" value="" style="shape=table;html=1;whiteSpace=wrap;startSize=0;container=1;collapsible=0;childLayout=tableLayout;" parent="1" vertex="1">
          <mxGeometry x="-541" y="583" width="180" height="120" as="geometry" />
        </mxCell>
        <mxCell id="-0185rRZfGU8UhvXT_gh-103" value="" style="shape=partialRectangle;html=1;whiteSpace=wrap;collapsible=0;dropTarget=0;pointerEvents=0;fillColor=none;top=0;left=0;bottom=0;right=0;points=[[0,0.5],[1,0.5]];portConstraint=eastwest;" parent="-0185rRZfGU8UhvXT_gh-102" vertex="1">
          <mxGeometry width="180" height="40" as="geometry" />
        </mxCell>
        <mxCell id="-0185rRZfGU8UhvXT_gh-104" value="" style="shape=partialRectangle;html=1;whiteSpace=wrap;connectable=0;fillColor=none;top=0;left=0;bottom=0;right=0;overflow=hidden;" parent="-0185rRZfGU8UhvXT_gh-103" vertex="1">
          <mxGeometry width="60" height="40" as="geometry" />
        </mxCell>
        <mxCell id="-0185rRZfGU8UhvXT_gh-105" value="" style="shape=partialRectangle;html=1;whiteSpace=wrap;connectable=0;fillColor=none;top=0;left=0;bottom=0;right=0;overflow=hidden;" parent="-0185rRZfGU8UhvXT_gh-103" vertex="1">
          <mxGeometry x="60" width="60" height="40" as="geometry" />
        </mxCell>
        <mxCell id="-0185rRZfGU8UhvXT_gh-106" value="" style="shape=partialRectangle;html=1;whiteSpace=wrap;connectable=0;fillColor=none;top=0;left=0;bottom=0;right=0;overflow=hidden;" parent="-0185rRZfGU8UhvXT_gh-103" vertex="1">
          <mxGeometry x="120" width="60" height="40" as="geometry" />
        </mxCell>
        <mxCell id="-0185rRZfGU8UhvXT_gh-107" value="" style="shape=partialRectangle;html=1;whiteSpace=wrap;collapsible=0;dropTarget=0;pointerEvents=0;fillColor=none;top=0;left=0;bottom=0;right=0;points=[[0,0.5],[1,0.5]];portConstraint=eastwest;" parent="-0185rRZfGU8UhvXT_gh-102" vertex="1">
          <mxGeometry y="40" width="180" height="40" as="geometry" />
        </mxCell>
        <mxCell id="-0185rRZfGU8UhvXT_gh-108" value="" style="shape=partialRectangle;html=1;whiteSpace=wrap;connectable=0;fillColor=none;top=0;left=0;bottom=0;right=0;overflow=hidden;" parent="-0185rRZfGU8UhvXT_gh-107" vertex="1">
          <mxGeometry width="60" height="40" as="geometry" />
        </mxCell>
        <mxCell id="-0185rRZfGU8UhvXT_gh-109" value="" style="shape=partialRectangle;html=1;whiteSpace=wrap;connectable=0;fillColor=none;top=0;left=0;bottom=0;right=0;overflow=hidden;" parent="-0185rRZfGU8UhvXT_gh-107" vertex="1">
          <mxGeometry x="60" width="60" height="40" as="geometry" />
        </mxCell>
        <mxCell id="-0185rRZfGU8UhvXT_gh-110" value="" style="shape=partialRectangle;html=1;whiteSpace=wrap;connectable=0;fillColor=none;top=0;left=0;bottom=0;right=0;overflow=hidden;" parent="-0185rRZfGU8UhvXT_gh-107" vertex="1">
          <mxGeometry x="120" width="60" height="40" as="geometry" />
        </mxCell>
        <mxCell id="-0185rRZfGU8UhvXT_gh-111" value="" style="shape=partialRectangle;html=1;whiteSpace=wrap;collapsible=0;dropTarget=0;pointerEvents=0;fillColor=none;top=0;left=0;bottom=0;right=0;points=[[0,0.5],[1,0.5]];portConstraint=eastwest;" parent="-0185rRZfGU8UhvXT_gh-102" vertex="1">
          <mxGeometry y="80" width="180" height="40" as="geometry" />
        </mxCell>
        <mxCell id="-0185rRZfGU8UhvXT_gh-112" value="" style="shape=partialRectangle;html=1;whiteSpace=wrap;connectable=0;fillColor=none;top=0;left=0;bottom=0;right=0;overflow=hidden;" parent="-0185rRZfGU8UhvXT_gh-111" vertex="1">
          <mxGeometry width="60" height="40" as="geometry" />
        </mxCell>
        <mxCell id="-0185rRZfGU8UhvXT_gh-113" value="" style="shape=partialRectangle;html=1;whiteSpace=wrap;connectable=0;fillColor=none;top=0;left=0;bottom=0;right=0;overflow=hidden;" parent="-0185rRZfGU8UhvXT_gh-111" vertex="1">
          <mxGeometry x="60" width="60" height="40" as="geometry" />
        </mxCell>
        <mxCell id="-0185rRZfGU8UhvXT_gh-114" value="" style="shape=partialRectangle;html=1;whiteSpace=wrap;connectable=0;fillColor=none;top=0;left=0;bottom=0;right=0;overflow=hidden;" parent="-0185rRZfGU8UhvXT_gh-111" vertex="1">
          <mxGeometry x="120" width="60" height="40" as="geometry" />
        </mxCell>
        <mxCell id="-0185rRZfGU8UhvXT_gh-115" value="" style="shape=actor;whiteSpace=wrap;html=1;fillColor=#FF00FF;" parent="1" vertex="1">
          <mxGeometry x="-711" y="553" width="40" height="60" as="geometry" />
        </mxCell>
        <mxCell id="-0185rRZfGU8UhvXT_gh-116" value="" style="endArrow=classic;html=1;strokeWidth=2;" parent="1" edge="1">
          <mxGeometry width="50" height="50" relative="1" as="geometry">
            <mxPoint x="-397" y="689" as="sourcePoint" />
            <mxPoint x="-670" y="689" as="targetPoint" />
          </mxGeometry>
        </mxCell>
        <mxCell id="-0185rRZfGU8UhvXT_gh-117" value="" style="endArrow=classic;html=1;strokeWidth=2;" parent="1" edge="1">
          <mxGeometry width="50" height="50" relative="1" as="geometry">
            <mxPoint x="-384" y="624" as="sourcePoint" />
            <mxPoint x="-384" y="681" as="targetPoint" />
          </mxGeometry>
        </mxCell>
        <mxCell id="-0185rRZfGU8UhvXT_gh-118" value="" style="endArrow=classic;html=1;strokeWidth=2;" parent="1" edge="1">
          <mxGeometry width="50" height="50" relative="1" as="geometry">
            <mxPoint x="-652" y="603" as="sourcePoint" />
            <mxPoint x="-384" y="603" as="targetPoint" />
          </mxGeometry>
        </mxCell>
        <mxCell id="-0185rRZfGU8UhvXT_gh-119" value="" style="endArrow=classic;html=1;strokeWidth=2;" parent="1" edge="1">
          <mxGeometry width="50" height="50" relative="1" as="geometry">
            <mxPoint x="-693" y="691" as="sourcePoint" />
            <mxPoint x="-692.5" y="630" as="targetPoint" />
          </mxGeometry>
        </mxCell>
        <mxCell id="-0185rRZfGU8UhvXT_gh-121" value="&lt;font style=&quot;font-size: 14px&quot; color=&quot;#ff0000&quot;&gt;&lt;b&gt;Start&lt;/b&gt;&lt;/font&gt;" style="text;html=1;strokeColor=none;fillColor=none;align=center;verticalAlign=middle;whiteSpace=wrap;rounded=0;" parent="1" vertex="1">
          <mxGeometry x="-657.5" y="547" width="40" height="20" as="geometry" />
        </mxCell>
        <mxCell id="-0185rRZfGU8UhvXT_gh-123" value="" style="curved=1;endArrow=classic;html=1;strokeWidth=3;strokeColor=#FF0000;" parent="1" edge="1">
          <mxGeometry width="50" height="50" relative="1" as="geometry">
            <mxPoint x="-554" y="588" as="sourcePoint" />
            <mxPoint x="-491" y="588" as="targetPoint" />
            <Array as="points">
              <mxPoint x="-520" y="548" />
            </Array>
          </mxGeometry>
        </mxCell>
        <mxCell id="-0185rRZfGU8UhvXT_gh-124" value="" style="curved=1;endArrow=classic;html=1;strokeWidth=3;strokeColor=#FF0000;" parent="1" edge="1">
          <mxGeometry width="50" height="50" relative="1" as="geometry">
            <mxPoint x="-631" y="591" as="sourcePoint" />
            <mxPoint x="-568" y="591" as="targetPoint" />
            <Array as="points">
              <mxPoint x="-597" y="551" />
            </Array>
          </mxGeometry>
        </mxCell>
      </root>
    </mxGraphModel>
  </diagram>
  <diagram id="6IZt9wUIkrynLXvnniGc" name="Page-2">
    <mxGraphModel dx="1117" dy="624" grid="0" gridSize="10" guides="1" tooltips="1" connect="1" arrows="1" fold="1" page="1" pageScale="1" pageWidth="1169" pageHeight="827" math="0" shadow="0">
      <root>
        <mxCell id="mZmqrbNJux5fh9DZsMJL-0" />
        <mxCell id="mZmqrbNJux5fh9DZsMJL-1" parent="mZmqrbNJux5fh9DZsMJL-0" />
        <mxCell id="mZmqrbNJux5fh9DZsMJL-2" value="" style="shape=image;verticalLabelPosition=bottom;labelBackgroundColor=#ffffff;verticalAlign=top;aspect=fixed;imageAspect=0;image=data:image/png,iVBORw0KGgoAAAANSUhEUgAAApoAAAC/CAYAAABe8nxTAAAgAElEQVR4Aey9B3QUx77n/97eZ9/70u7ed+7579tz9uye3fM2vd19wffagNLMKAcQGAEGBCIZY4LBGJMM2ATbgEHYJlkEY0wyAgmMBcLkqIxEBiEkIYkcRBASEgp8/qd66NaMNKMZaQRI8OMc0d3Vv/rVrz5VPfOdquruP/tpwwZ+/HE1K5YvY/GiRcg/ISAEhIAQEAJCQAgIASHQGgT+TIRma2AUH0JACAgBISAEhIAQEAINCYjQbEhEjoWAEBACQkAICAEhIARahYAIzVbBKE6EgBAQAkJACAgBISAEGhJos0Lz3O3bxJ88yNkrmQ1jbrfHdXWw/KcEbhWcaVSH1YnbKT6T1ShdEoSAEBACQkAICAEh0F4JPDehuSz7OB2+jWHp/rnAE5e8Bm5dxz/N68nPWXEubV+kQXllDYdSU3h071aTYTx5AtO+/p6gID/OHEm2s62tg5HT5hIS7Et+1kG7c3IgBISAEBACQkAICIH2SuC5CE0lK/smrOSf5r1D95U9oK7aJa/2IjQzz93Ey+LFzXNNj7x+n3gQs78351N2Oaz742oYPmU23TqbqLha6NBGEoWAEBACQkAICAEh0J4IPBehqYCcuX2f2ftXcaokzS0+L5PQvHq7Bp/wziSumNNk3e+XQ1jfwcR+OgLUEKj8EwJCQAgIASEgBIRAOybgVGiO35PM/5vXi9hfpxrVq64DnxWT+df53ThffEBLr6iGOYeT8I8bw58W9KX36lHsO5dkTI+vPVPA/5v3jjaaqUY03/raH2qrDJ/6zulbD+n701z++HU/gr8bgt+SUS2aOi+rqGP6/CWER76NyWQiPCyEUcP6QPkDvShqamHJmgQie7yDv7+ZUcMGcD7zkHFe7dwtq2HuwjhiBg8lLKILfiYTYSGB7N28XLOrrgFzVB98fHwa/a2YM97OV+zqJLpH+sHDe3bpjg4S957A5N+BissXHZ2WNCEgBISAEBACQkAItBsCToXm7kul/J/5fei2IsqY6s66XsX/iY0mLK4r1FRS9wQGbPleE5He30bTY/Un/HNsNP8yvzu/nlirQThYfIPRW+fx7qb5/L/5fRwKzQePwXv5BM1PWNy7dF89hX+a36dFQnP6og1ERQaSuncnF3Jzycw+zrakBKirNRpl+sK1BAf5krxpLZmZOUycuQCzpRPFOYcNm9yih7xlMRE3fwYZqSmcPHmKo6np3CjOM2yKr1wlaV+2NnWevS+JoqIi7e9eaf16TbX+Muq9sSyf87GRr6md8krwiohk/+a2vTa1qTrIOSEgBISAEBACQkAIKAJOhWZ5Nby5dAxvxHbhyo1sjdZnBw9oo5yL987Ujg9fLuP/zO+L38JIHty/pKWtP5OvCcrwuG52I5f59+B/x/ZzKDS3XLjK/53Xm4hlUTx5bB15HLB1bYuE5uiZixjarzPV925r8TT87+rtOt4KDCZ57bfGKTXC+fbQD5kxbqAxZW0Vmr7kp/9q2DnacbVGs0pxDAnl8NaVjrI3SlN3pvceOcltYdrIgSQIASEgBISAEBACQqCNEHAqNFV8E/f+qgnL1YfnUVUDXsvG80ZsZ67cyNHC/zbzuDYtPiFhhDFVfrcS/ueCGP4YG8bdu/Wjf00JzflpmZqfT38eY2Bp6RrNvOK7dI0eTGiwhbkzp3I8/SAo9fb03+6MAnzMnbhxJl1P0rYzl2ykR1dfqH6sHbeW0FTrLt/w9ydn90a78po6GDJxNgumvt+UiZwTAkJACAgBISAEhECbJ9Ck0Ey/9kibKu++sie7Llzm/87vw/sbBsMT6zS0LjQnJo40hOadR/C/ngrNe3fr1xkqofmPC/pbRzRrKu3AxKZnaUJz8pZRRnpLhaZyoNZP7j2SyScz5mAKDGLCqP7U3L+j+X7eQtM6ohnGwQTr2k6jgk52lCbu88EnLJs9zomFJAsBISAEhIAQEAJCoH0QaFJo1j6BLuti+df5UQQvG8u/zI8i7fxWo2b61LllcVfKy65o6d+fOKtNnUcss586v1XRWIBW1Vgfc5SUf0PLY17UlYcPSjQ/nghNI0Agr/ghHYNC2L1hkZbc2lPnp/Lv0cHiQ2HmHttijX21RrPHsI9Y+sVYI62pnYpK8O7Sjf2bZI1mU5zknBAQAkJACAgBIdD2CTQpNFX4P529pIlAdcd4j+972a27VDcD9U9cod3E47eoP1E/fMI/ze+rCVL9ZiAdgRKt4WvnarYBSwbQ88dPiFjeA2ofU1kDIT9+/tRPP/qvm0bHhe+1aI3m8g1b2b4lnrOnT3L+/AXWJeyik8VERvI6PRT0m4G2x68hPT2LCTNjndwM5HqNZlkFeEd0ZfLoQRxLT+NISgYpB+wfyK7uOo+M8IGno6pGIA52th85h59/B8qLLzg4K0lCQAgIASEgBISAEGg/BFwKTSUCTSun8s/zoth3akOjmj2shpkHtmJaOoo/LuhDzx9GsOu0GvVs/BxI9QijXuu/5F8X9EMJ08m/TIXqCs3n9fI6xiWvxnvx+7wR2wfT4kH0XfMR2QV7G5XpLEE9enLxjwlE9Y7Gz2zGbPYjuncUG1d9C09HT1VedfPPoh820fntnvhbzAx/tx9nM6yPa9J9u7tGU9knHzpOVN8YTGYzncOD2RA3x7ipSJ3Xn6O5btEM3b3D7aMq6DZoJF9Ned8uv0NjSRQCQkAICAEhIASEQBsn4FJotvH420146s1AvmYvsvdscRizWps5ed5yIiNMlF8pcGgjiUJACAgBISAEhIAQaE8ERGg+p9bS33Vu8fchZ2/9OldVvCYyv4ojMNCHC+nuj+A+p9ClGCEgBISAEBACQkAItIiACM0WYWtZJiUo49bHcyPvZCMHqxKSKDxp/8ilRkaSIASEgBAQAkJACAiBdkRAhGY7aiwJVQgIASEgBISAEBAC7YmACM321FoSqxAQAkJACAgBISAE2hEBEZrtqLEkVCEgBISAEBACQkAItCcCIjTbU2tJrEJACAgBISAEhIAQaEcE3BKaeSV3GTzyIywBgfj6enP051XtqIoSqhAQAkJACAgBISAEhMCLIOCW0BwzczHDYrpys6iQ0tI7VFc9ehGxSplCQAgIASEgBISAEBAC7YiAS6Gpnv/Yb8w0Vs4d346qJaEKASEgBISAEBACQkAIvGgCLoWmevZj9OiprJo/6UXHKuULASEgBISAEBACQkAItCMCbgnNvqOn8MP8ye2oWhKqEBACQkAICAEhIASEwIsm4FJoXrlVhTmyO3vjl77oWKV8ISAEhIAQEAJCQAgIgXZEoEmhOXn+KvxMZsYM7QFyA1A7alYJVQgIASEgBISAEBACL55Ak0Kz9P5D9h45hXegmby0XS8+WolACAgBISAEhIAQEAJCoN0QaFJoqlqom4HeGTGB9Qs/azeVkkCFgBAQAkJACAgBISAEXjwBt4Sm3HX+4htKIhACQkAICAEhIASEQHsjIEKzvbWYxCsEhIAQEAJCQAgIgXZCwKXQ1B7Y/uGnLJ/zcTupkoQpBISAEBACQkAICAEh0BYIuBSaKshJ81cxuG8ENwovyiso20KrSQxCQAgIASEgBISAEGgHBNwSmlduVTB07CTMAYH4+npz9OdV7aBqEqIQEAJCQAgIASEgBITAiyTgltB8kQFK2UJACAgBISAEhIAQEALtk4AIzfbZbhK1EBACQkAICAEhIATaPAERmm2+iSRAISAEhIAQEAJCQAi0TwIiNNtnuz23qNUD+5f/lMCtgjPPrUwpSAgIAViduJ3iM1mCQggIASHQrgmI0GwjzXco+xIB4WHsWLvIo4jKK2s4lJrCo3u3mvRzKCuXmKEjCAgKJiIsmNEjhnCr4LRdHvVoq2lff09QkB9njiTbnVMCNMEEfJgA1bD1PwOLf7azae2DM3vg0lvw6G+A35eDTxGcOtfaxbRLf+XlcGf7E7h122n8Wfuh5O9qYLa8TtYppCZOzFwBcZMXQ11tE1auT7lz7dTWwchpcwkJ9iU/66Brp2IhBISAEGijBERotpGGWZ+cgZevL0u/GOtRRJnnbuJl8eLmuUynfu7cB6/wLkwf/z4njmWSc/wEO35NprKBOP0+8SBmf2/OpzQWJkqEbg4BJiRADWz9H8CKbUaZ9+7C4f8Bj18H/k2dVRj6F8PelgnD0juw7++AiHTY+4jqg/BwzeMmhZURzCuwk50BRb8tgoxsp7Xd+QM8/PMnMGCzUxs54ZzAvlMwNGYLFNv/IHOew/EZV9eOnutxNQyfMptunU1UXC3Uk2UrBISAEGhXBERotpHmUl8+Z3LPU1tZ4VFE7gjNY+dv08nizbXTqU7Lunq7Bp/wziSumOPUZlNP4KutUAtb3gQS60c9b92EA78FZh/gySko2wWZgcDfpENhkVOfzk4cz4KC316BFOcC2lneVyHdHaGp+tjdY7VQ4VkfexV4OqpjZTVEj7rC2c3rHJ1uVlpT146to/vlENZ3MLGfjgDVgPJPCAgBIdDOCIjQbGGDqc/8ecvW06N3NGaLP4EBZsaOHEJeToqdx7tlNcxdGEfM4KGERXTBz2QiLCSQvZuXa3Y378IblgB8fHy0vwVT37fLrw5UWbErNtCn3wCCQkKxWEy8N6gPJ4/WjzRW14A5qo/hR/entivmjNd8OrfxZs9Pi+3KjV2dRPdIP3h4zy7d9iDxIyB+u5aU2AM7EWgVmk9gXf0o5/kzcOb1B7Bzn+FGTSNmL4Kb/wxVfwn8t2vwdabxpVpdDT+rafk/a/j3GOZvNfzU1EDWF3DjvwC/q4SOBbDbfvRUjbLmjoXSN6DyD1D7F0/g35XBt78aflzFYxi62HlYBseGQ+nfQ91fqBFdFdNRePDAyNkaMTvnUwfvWkcuDdGvM+yxyYhB31F97MhUuP+PUPVvgder4F+K4JeTuom21WL+Em78V6h9TS1hqIBOt2HXMTu7l/Xgix9g4fjFUFvTqIqK4fJNMHX8JcYMOcvomAy+nryPm9mN11k2de00dJy49wQm/w5UXL7Y8JT22TA1dgVhYQGcbbC8pZGxJAgBISAEXgABEZothK4ESe+Rkxk3rDfHj2WRknaMDybNIiDAi5IT9WIzt+ghb1lMxM2fQUZqCidPnuJoajo3ivO0ktVarKKSEi4VXaXXsHE4Epp6WWOH9iYzLZWU1CyGj59OcGBHKi7nGzUovnKVpH3Z2tR59r4kioqKtL97pfXrNZ3ZVJTVC0oVU9R7Y12+dvTedaDsoVb+vWKgstKIpaHQvH8NDo9QQnIvlN417LZPA/6QB3ElkAl5X8Hl31XAyt2GTVk+nI2Hq69fhfizcB44r4bnrGUrw21qxcHfFMA3JbAbcvpBzW8L4ED9VHLeeTjxupqPPAE7KuEIVCqdnHvJKMudeAzjJnYSlAj/+5Ow8SYcg0f74PGKy1Bbv76vtWJ2yud6mRahKrLiAjw5B7s6Ag6EpupjCX7AWymQ/JiqHZAZAfz1MbhYP227bRzwV5fgqyI4APfiIee1J/DNs12f2wTq53rq8DkYEpMEBfX9Sg+g7gmMmgmrpsWTd+IOJ4/D9HkwbtAGuFGgm2nbpq4dO0OgvBK8IiLZvzmu4SnUj8fAd2Lw8fFm/cLPGp2XBCEgBITAiyYgQrOFLaCLP1thqNZUdR00ilnjBxkjclah6Ut+ev2omaMilb/o0dOaFJq2ZV2+VcufLBZSttm/pcmdqXNXNlXV8GZIKIe3rnQUqltpxijab4DfwBM1mvbXhfBL/cjXzRtw6G+rYV39yKxyvllNyZsTQEF5+q+pqeFrV+HIX6tp+nqxo0betOn80ASjLaxC035EVfevts2Jxzafo/1N0cA/7oVbpY5O01ox686b4qPbaGLS34XQtBGhVy9Dilr+sMzK9cZ1OKRuxJpRP5JcVQW//I4WCc3Hj+CJ+n2j/u7X2YlwPea2ZqOujX5jbnBiwxo9RGOrC8093ywz0q6UQq8BOVzb1/J1sdbPmklOf/ilnbjIypVLqSy9YZQrO0JACAiBtkJAhGYLW8L64T+5kTCcsWQjPbr6QvVjzfOzEppK1HaK6Erymm/sauBKRCpjVzZqXdgb/v7k7N5o57s5B4bQnHMATsOjQ3BhAtz7qxuw2Trie3A33Pw3apr2CShB8/SvVonT/74VlFp8+q8pIXVgF5S+VgRp9SJWZUtUKwb+4zZ4bG0LV0KzOfHocTnbXsqFrP8N/O0t6FcCOwvthHNrxayX3xQf3aa5QlNh2/YH4EursFR87rxWYrdEwhOhmTAKavXp/N9chkON1wy3NRvFcu4amD9WTZ9X62i1rSOh+bgGeg7LJ2/bT3a2zT0YMnF2o8+a5voQeyEgBITAiyAgQrOF1J0JzVlL44mK9Gm20FTru5ozoqmEpndkd7b/uMCuBq5EpDJ2ZWMd0QzjYIJ1HaldAW4eNJw6V9lUHTd3qR+ttIqtYth87ul0uJoSf/pXUD8trvI2JaSUn7tOhebPbgvN5sTjDga1frJoG5T0hTt/BZgOwB3rCGdrxazHofhccnHXuca/GSOamtD8D8DnW7Ri9u2E+68V2N3Z7onQvJUHTw6gTcFzsAru169f1evV1mxUXGkXYFDMTriQoYepbZ0JzXeGX+LC1g12ts05UJ81fT74hGWz1boF+ScEhIAQaF8ERGi2sL0cCU2V1vP9j5k2pp8xeuXuiKYSAYPGf8GnH/Yzpnr10ByV5Uxonsq/RweLD4WZe/TsjbauhKZao9lj2EcePWrJqdAMB/w3a3W8rtZtqinvKfVTsY2CfZrQlNBsrWno5sTjLE5n6UW5kKGmnedZ69paMevlnT0J516/A7udP3NR9bFNat1loJW/nldtVR/T1mjaTJ03FJqF+ZD1eh0s/MXI6onQNJy0s53qWhjwUSlZa1bbRf6shGZFJXh36cb+TY3XaKoAiq6Vsnv3Duo8fGKFXWXkQAgIASHQSgREaLYQpC7+enYLZnvCT2SkZ/LpnMX4mDpx7sgOw6u7QlNlmL08kaBALw4kJXLoSCqpB3dqfvSybNdoOhOaZRXgHdGVyaMHcSw9jSMpGaQcqH/skHLoSmgqG3XXeWSED9y/o8XQ3P+MqfO5eyEPHqXDuXFw5y/KYFn9msykSVD92m0YmQ/bq6hVo5OLnqg7pOyKbEpoKkPrjTWFsEBNU8PxaGc3Azlfo6n8uBuPXXAODjLnAUtuQspj6rLg0kIofL0Sfqhvi9aKWRVfVga/qmlu/zTY+ZjKJLXYNbdRZIlT1M08ubDiBo/V0svEC5qNO0JT2SR2V3eaX4QlV6hNhuJP4Mpvalu0RrNRcO0oIfYnmD16MVRXGVE/K6G5/cg5/Pw7UF5sbSujQKCmFroMHKHdDLRxyQzbU7IvBISAEGgTBERotrAZdPEX3aMbUb37YzKbiOkbRcquRDuPzRGad+7XMHzCp5gDAokIC2Ltki+1kT+9LHeEpio8+dBxovrGYDKb6RwezIa4OXajpO4ITf05musWtezLSz1K6MB/g2q13vLP6+BvK6DjNVh1wi4WVbecpXD1n6BSrdH8y0fwr5fghP0rL10JTbWcM2Mm3PhPaq1nFfypAH49a9cWrtZoKmN347Fz3OBAjRymfQ63/gEeq0cAvVYF/3ALpmeCmk9/+q+1Ytb95ahnif9PJdyBv7sLk/bbsVZ26sH36Z2hXD1K6vf3YPxeo4+5GtFU+e/fg6whcPf3qq3U25meCs2Frkel9Thfhu2xAhgQs5eaM0eM6jwLofmoCroNGslXU95v1JaqYNVf35s8Gx9fX5laN1pCdoSAEGhLBERotrA1HIm/Frpqs9nUm4F8zV5k77Gu0WuzgUpgL4xASRGk//YxbLKOvr+wQJ5zwWokcdD4MlK//+GZlaw+YybPW05khInyK/aPR7ItNP3UFXyCLORnOF8uY2sv+0JACAiB50lAhGYLab8KQlONzKl3nVv8fcjZ+2qNWLWwW7z02XLXq+n2h5ACD5PgmHrb09/vg9stW2LRnoF9uxlmjlwKj1v/TUuayPwqjsBAHy6k73WISV2fH32+iMBAE7/Gr3A44ukwoyQKASEgBJ4jARGaLYT9KghNhUbVM259PDfy7N8Q00Jskq0dE1B9Yd978OAPUPebJ/D7hxB+EXKcj7a14+q6DP1UMfSPOUDVCXXrfOv/W5WQROHJ9CYdn8+/RPm9203ayEkhIASEwIskIELzRdKXsoWAEBACQkAICAEh8BITEKH5EjeuVE0ICAEhIASEgBAQAi+SgAjNF0lfyhYCQkAICAEhIASEwEtMQITmS9y4L2PV1DrB5T8lcKvA/vFHruqqbpzYmLSHnYk/ujJ96c6rus9bto61S7986eqmKrQ6cTvFZ7JeyrpJpYSAEBAC7Z2ACM020oKHsi8REB7GjrWLPIqovLKGQ6kpPLp3yyM/bTGzfhd8UJAfZ47UP/jcnVhflZu3HLF4EXVvrf7sqD62aeotViOnzSUk2Jf8LOdvRbLNI/tCQAgIASHw/AiI0Hx+rJssaX1yBl6+vh699lEV4M7D2JVgGzLhc/z9LeyL/67JuNrSSfVcT7O/N+dT6t8spOJT9Zk45zuCQkK1B1f7W0wMielDcsJq623zT++e7z1yMrYPvX+RdbtbBhF9+mOy+OPn50tEWDAfjx5G7rHDrR7WixCardWf3YGh3pI1fMpsunU2UXG10J0sYiMEhIAQEALPiYAIzecE2lUxSiydyT1PrYfvK3ZHaBZeqyKgi5l165IYMbgr1NW6Cu+Fn9ffVJS4Yk6jWBS7mI+mM+WD/hTk5XH23AWWrdmCj7+F5LULNfsXIbYaBWqTcPMuvGHxZ/vaxeQXFJKacZx3P/yEkKCOVF5rXbH0IureWv3ZBlmTu/fLIazvYGI/HSHPk2ySlJwUAkJACDxfAiI0W8hbfZHOW7aeHr2jMVv8CQwwM3bkEPJyUuw83i2rYe7COGIGDyUsogt+JhNhIYHs3bxcs7MKjgB8fHy0P0cjbqqs2BUb6NNvgDZqZ7GYeG9QH04erR/Zq64Bc1Qfw4/uT21XzBlvF5N6j7l6pV3pXfAK9efWOfv1ba5iVs7csbl5t46oge/iHxiE2ezHgOgeHNoRbwiB0gfwVnAoCcvs1w5+9MV3DO0XBrU1Rtwq5u6RfvDwnpGm7+hC86vJQ/UkbTt8WiwjBnbRhLQutrpFhBIe2Q2Lxcy7A97hdKr921TUG1+WrEkgssc7+PubGTVsAOczDxl+3WkLZazK+zFhJ9ED38USEEDfXt3YEf+9UXdru1vI3vWT4fts4QPesviSn/6rkeYqHmXoykavu23fSj9Vgik0lC3fxxoxGYU2sVNWUcf0+UsIj3wbk8lEeFgIo4b1gfIHWi53+rMynLNiC95P+7zeV/38OtnV3RXDhmEm7j2Byb8DFZcvNjyljXpPjV1BWFgAZ5u57KKRM0kQAkJACAgBtwmI0HQblb2h/uU9blhvjh/LIiXtGB9MmkVAgBclJ+rFpvVd5ybi5s8gIzWFkydPcTQ1nRvFeZpDtcasqKSES0VX6TVsnMOpXb2ssUN7k5mWSkpqFsPHTyc4sCMVl/ONwIqvXCVpXzZeFi+y9yVRVFSk/d0rrV+vqURJl4HDyNmzSfvyHTz+czZ997nhQ+24itldGyV+d+/fw7kzpzl1+jzT58fhZ+7ItdNpWnlKtA38eBYfvRdljKqq+IL7DGLV/ElGTIpR1HtjWT7nYyPNdseZ0Bwzawnvx0RoglVnOGJgFGlHDpKekc2IiTMJDe5E1fVLhrvpC9cSHORL8qa1ZGbmMHHmAsyWThTnWKe0dT+u2uKrlYl0iQhgz8/x5J7L5fsNv+DjbyYtaa1WVkOheeNOGZ/FrqBvr2CePCh1Ox5l6G7MutA8mHURS3gYW1YtaJbI1MpatIGoyEBS9+7kQm4umdnH2ZaUYLSfO/1Z+Sm9/9Don2dzSwjt1Z9hMZHUld016u6KoWH4dKe8ErwiItm/Oa7hKVRfDHwnBh8fb9Yv/KzReUkQAkJACAiBZ0NAhGYLueqCQ//yVm7UWrGug0Yxa/wg4wvcKtrsR6kcFan8RY+e1qTQtC3r8q1a/mSxkLJtlZ07V1Pnx/NK8Q/1gvvWt4ms3HKYQdGhUFNt+HEnZndsDIdPdyoqoUNoBHs2LjFOrf4lBbPlTaqeThfnX37EmxY/zhz82bCpqoY3Q0I5vHWlkWa701BoVj6uZdfh4/iFhBO/dJZm6qi9Sm7W8EeLmfTtazSbq7freCswmOS13xrulfB9e+iHzBg3UGtTR34atsWNUugQHET2rnjDj9pRI6yffNBHG+7UR/5Mfn74+Zm0keiQQF/OHq0fzXQnHnds9JhjpwwnITkN/5AADv5sFbx2AbpxMHrmIob260y1i7fRNNWfbYtRbTdx7jK6dTbzoPiCccodhobx0x1rPSc5/UGSduIiK1cupbL0RsOsciwEhIAQEALPiIAIzRaC1b+8bcWfcjVjyUZ6dPWF6seaZ3cFWVNfzI7KUqK2U0RXktd8Y1cDV0JzzsothmhSGZWw6xjgzZ0LOYYfd2J2x+bW3Uo+m/st3Xv2JjQ0hOg+ffG1WNj+4wKjrFv3oGNIqHFT0o9JaYSGdACbUT21/u4Nf39ydm808tnu6ELT19cHPz8/fH19CQ408d38z6DqkWbqjGHHiEiS13yt2ezOKMDH3IkbZ+xf+zfTpk2d+bFtiz2ZhXT089Om5y0WC/qfEpQDewdpI6z6iOb2dUsoKCgk+8RpYpeuwRzox8kD29yOpzkxdw4NxdvPh/0JK2zxNWs/r/guXaMHExpsYe7MqRxPP2jccGXrqKn+bGu3MTkDH4sXuan1y0DUeXcY2vrR94dMnO3wx5p+XrZCQAgIASHwfAmI0Gwhb0eCQ7matTSeqEifZgtNJZaaM6KphKZ3ZHc70abKb0poqtS9wVsAACAASURBVGnNroM/QI2i6eLHYvHHx9fHzo87ItKVjeLTb8xU+vUMJ23/LgoLCsjMvoBveBe7slS9P5jxLWOGvg211lG/LyYMMUaEVZ2sI5phHEywrmtt2GS60Jw2ZgBFBQVcvVJC3VOhr9s6aq+GDJsj2mx/YDjzc/zADmN6WF/GcO1qiRaSLjRt12iqegyZ+KUx6ulOPO7Y6HWfMHwAg0dPpEu4mcKcIzqaZm/VNPTeI5l8MmMOpsAgJozqT839O3Z+murPumFeSRm+YRFs/O4LPcnY6vVqiqFh/HRH1bPPB5+wbPa4hqfkWAgIASEgBF4QARGaLQSvf3nbCg6V1vP9j5k2pp8xyuNKkOnFqy/mQeO/4NMP+9mJLHXeUVkNxY3u51T+PTpYfCjMtL/JRZ23jl56cS71gI0AKmbC7O/4+P2ezYrZVb2s4jCcpNWxemja0gLfbj3shKY6mXLyCt4WL/Iyc/Du3IWsX+tvkFHnlUDuMewjp49+0oVmw5uBjILdZNicaWjbdm/YFtfuPNGm4BOWz7YNwW7fmdAcNP5zpo6O1vqAO/G4Y2Pbf6qrYcKXiwgJ8eNi5gG7mFpykFf8kI5BIezeYP/816b6sypHidU+Iycyemh3eFzZqGh3GDbMpJZmeHfpxv5NjddoKtuia6Xs3r2DOg+f7NCwXDkWAkJACAgB5wREaDpn0+QZ/cu7Z7dgtif8REZ6Jp/OWYyPqRPnjuww8roSZIYhMHt5IkGBXhxISuTQkVRSD+7UTutlNSVudD9lFeAd0ZXJowdxLD2NIykZpBywPtx85dbDdNdGW6t0c22bsO8k/gFvUnfrinbsTsyubJQ4fGfEBIZEd+XY0YPk5eWRlZOHb0RkI6GpbHsNH0+vqCgiIrztps31QNVd55ERPtBg5Eydby2hqXzpN9Zsj19DenoWE2bGOrwZyFVbfBkXj8nsTdyCL8lIPUpGRhYbExJ4cL1Iq5IuNJPXL+Hy5cucPnuBrxavxtvkw9Ft9W8vchVPS2JWvCfMWUpEmInr5+uXTGiBAemnrxAU2ZU5U0caPz70c8s3bGX7lnjOnj7J+fMXWJewi04WExnJ63QTY+usPyuD1T8f1a6V1OTNFBQUGH+PyuqfKuCKoVHQ053tR87h59+Bcpu1nrqN9Sa4EdrNQBuXzNCTZSsEhIAQEALPmIAIzRYC1sVfdI9uRPXuj8lsIqZvFCm7Eu08uhJktsZ37tcwfMKnmAMCiQgLYu2SLzUVpZflStzovpIPHSeqbwwms5nO4cFsiJsDdfDupNnM+th6U4tuq7YFV6v4k8VE1s4NWrI7MbtjU3T9AeOmziK8S1ctlrDQEAb0603W3i22xWv7O1NytXWNK+ZOaHROJejP0Vy3qLFIaE2hqQTJoh820fntnvhbzAx/tx9nM+pH/txtC2W3dusu+gx4V3soe2CAhfcG9eXWxZNa/dQD20N69cXXz4RaWxoSHMjIYYM4sGOT3Yi2q3iUM1c2zmKO/mAS/Rvc5a78LY3fqz34PsDyhp3oV5wX/5hAVO9o/Mxm7ZFV0b2j2LjqW7ubybQKAs76s95e+mON6rdeHP25/uY2Vwz1ctT2URV0GzRSe2yX9svD9uTTEe33Js/W6iVT6w3gyKEQEAJC4BkSEKHZQriOvrxb6EqyAXklFXgH+drdlNQQjHozkK/Zi+w9jYVqQ1s5bjmBB+V1DPhwKgN7BzsUkC33/Gxyqmtx8rzlREaYKL9S4LSQ9FNX8AmykJ/ReFmJ00xyQggIASEgBDwiIEKzhfhEaLYQnE22B+WPOXfuLGlZp+k5aDhLZ39sN5pnY6rtqpGwaV9/j8Xfh5y9WxueluNWIJB/uZTZX8cREOLP2SPWpRut4PaZudBE5ldxBAb6cCF9r8NyVL/56PNFBAaa+DV+RZN9zKEDSRQCQkAICIEWExCh2UJ0IjRbCM4m26HjxZiDQwkPDWTxV9PAjZs0FPe49fHcyLNOQdu4k91WIJBz4Tpz5sykJPdEK3h7Pi5WJSRReNL+kVQNSz6ff4lyF8/+bJhHjoWAEBACQsBzAiI0PWcoHoSAEBACQkAICAEhIAQcEBCh6QCKJAkBISAEhIAQEAJCQAh4TkCEpucMxYMQEAJCQAgIASEgBISAAwIiNB1AkSQhIASEgBAQAkJACAgBzwmI0PScoXgQAkJACAgBISAEhIAQcEBAhKYDKJIkBISAEBACQkAICAEh4DkBEZqeMxQPQkAICAEhIASEgBAQAg4IiNB0AEWShIAQEAJCQAgIASEgBDwnIELTc4biQQgIASEgBISAEBACQsABARGaDqBIkhAQAkJACAgBISAEhIDnBERoes5QPAgBISAEhIAQEAJCQAg4ICBC0wEUSRICQkAICAEhIASEgBDwnIAITc8ZigchIASEgBAQAkJACAgBBwREaDqAIklCQAgIASEgBISAEBACnhMQoek5Q/EgBISAEBACQkAICAEh4ICACE0HUCRJCAgBISAEhIAQEAJCwHMCIjQ9ZygehIAQEAJCQAgIASEgBBwQEKHpAIokCQEhIASEgBAQAkJACHhOQISm5wzFgxAQAkKg1Qh07ty51XyJIyEgBITAiyYgQvNFt4CULwSEgBCwISBC0waG7AoBIdDuCYjQbPdNKBUQAkLgZSIgQvNlak2pixAQAiI0X6E+8OQJbEzaw87EH1+hWlurquo+b9k61i790u2619XB8p8SuFVwxu08ylA4N49zs+C+AsYiNF+BRpYqvnACqxO3U3wm64XH8SoEIEKzHbVyeWUNh1JTeHTvVouiVsKp98jJLJj6fovyt+dMza27EovTvv6eoCA/zhxJblbVm1tWs5y3ceO2WvdD2ZcICA9jx9pFbZwgvAih6elnS3OgPs+ymhPXy2b7PDk/z7Jao51q62DktLmEBPuSn3WwNVyKjyYIiNBsAk5bO5V57iZeFi9unstsFJoSRhPnfEdQSCg+vr74W0wMielDcsJqUN/+WDdtSWjeLYOIPv0xWfzx8/MlIiyYj0cPI/fY4Ub18zShuQLo+8SDmP29OZ+yy65o4WyHo9FBczk3cvCMEtYnZ+Dl68vSL8Y+oxJaz+2LEJpNfba0Xs2sntwpq/j6faZ8MZ+wLl0JCvTnvUHR7E/aaJ0uaO2AXlJ/7nBuraq7KquqGhYsX0dkVC9MZhPdIiP4dNIYym8Ut1YIzfbzuBqGT5lNt84mKq4WNju/ZHCfgAhN91m9cMumLmYlgGI+ms6UD/pTkJfH2XMXWLZmCz7+FpLXLtRib2si4OZdeMPiz/a1i8kvKCQ14zjvfvgJIUEdqbzWuhd+c+p+9XYNPuGdSVwxp1GbC+dGSOwSmsPZLuMzPlDtdib3PLWVFc+4JM/dv+pCs+DKQ/y79uC9AT3ZvzOJjIxj/LghkS3rv/Mc7ivkoanvi9bG4KqsuSu3EBzky474NZw/e5YjqVksXPoNPHrY2qE0y9/9cgjrO5jYT0fIj5hmkWuesQjN5vGysy6rqGP6/CWER76NyWQiPCyEUcP6QPkDw66mFpasSSCyxzv4+5sZNWwA5zMPGefVzt2yGuYujCNm8FDCIrrgZzIRFhLI3s3LNbvqGjBH9cHHx6fR34o54zUbXQB9NXmone/h02IZMbAL1NVqA5tqRLNbRCjhkd2wWMy8O+AdTqfuscvjKmZVVuyKDfTpN0AbQbVYTLw3qA8nj9qP/inR8WPCTqIHvoslIIC+vbqxI/5744K2Ck0L2bt+Mso/W/iAtyy+5Kf/aqS5ikcZurJxJIDST5VgCg1ly/exRkzKV+zqJLpH+sHDe0YM+o5wbro/N4ezztSTratr0NrHAozrxtmykTkrtuDd4Pry8+tk1w9d9WdP6mGbVxeaR46dZ+RHkwgKDdeu1R5vR7Ir3vqZoOxd9Xl3rlN3PltUWTfv1hE18F38A4Mwm/0YEN2DQzvi7a4bZddUzO6UpWIePnU+/XsF8+RBqS0WYz/nwg16xQzGP8CfQf168vWCRYRGvk3vHl049/SzTPmZt2w9PXpHY7b4ExhgZuzIIeTlpBh+1I6rz14741Y4aIqPcv8ytqm6bvqOnkrslGFOCY6bvYwZHw1o1J/KK+GPgf4UZOzW8rrqh+62u20giXtPYPLvQMXli7bJ2r7yNzV2BWFhAZxt5hKqRs5e4QQRmh40/vRFG4iKDCR1704u5OaSmX2cbUkJmqjT3U5fuFb7JZe8aS2ZmTlMnLkAs6UTxTn108O5RQ95y2Iibv4MMlJTOHnyFEdT07lRnKe7ofjKVZL2ZWtT59n7kigqKtL+7pVa12uqC0KNaDYUmmNmLeH9mAiorTGE5oiBUaQdOUh6RjYjJs4kNLgTVdcvGWW5ilkXE2OH9iYzLZWU1CyGj59OcGBHKi7nG36+WplIl4gA9vwcT+65XL7f8As+/mbSktZqNg2F5o07ZXwWu4K+Db5kXMWjnLmy0WPWhcbBrItYwsPYsmqB3YebWrsT9d5Yls/52KiH7Y5wbro/u8vZlqkn+66uQdWeRSUlXCq6Sq9h45yuTy69/9C4ps7mlhDaqz/DYiKpK7trhOeqPxuGHu4oofnz/pN4mU18On4EB3bvJDs7m1/37Kfg7DHDu7t93tV16uqzRRWoROLu/Xs4d+Y0p06fZ/r8OPzMHbl2Os2Ix52YXZV15z68GRhM8pqvDb8Nd3akXMBkeZOCnGNM//oHAgM6cD4jlYmzlxDTOwhqqo3PunHDenP8WBYpacf4YNIsAgK8KDlRLzbd+extWH5Lj93h8zK2qeI1ZcFqenYL4G5RrkN8c1Zu4YMh3bTvzsrHtVy5Yp1Sv3T9MR0DvblfcFrL56of6p8/rtrdNgglZr0iItm/Oc422Sgv8J0YfHy8Wb/ws0bnJcE9AiI03ePk0Gr0zEUM7deZ6nu3HZ6/eruOt9SH5tpvjfPqF+vbQz9kxriBhsCxftjZj+IZGWx2mpqeaCiA1MW66/Bx/ELCiV86S/OiX4S62FKJJTdr+KPFTPr2NZqNOzE78nP5Vi1/slhI2bZK83OjFDoEB5G9K1471v9TI6yffNBHWzCqjzaZ/Pzw8zNpo04hgb6cPVo/mulOPO7Y6DHHThlOQnIa/iEBHPzZKnj12NRWrSV6MySUw1tX2iYb+8K56f7sLmcDqIc7rq5B3b2KK3r0NKdCU7dT7Ttx7jK6dTbzoPiCnow7/dkw9nBHCc3AXv35TI3w1NU69NacPm97vTe8TnXnTX226Da224pK6BAawZ6NS7Rktd7NVcx6/qbKOp5XSgezLxfTdurmjbZKaFoC3oDKcpJT86z7FWXsysjHHPBHbSZC74e2dVcxdh00ilnjBzX7s7dREM1McIfPy9qmCtWD8jrGzZiPf6CZ2Z9N5Fx2qh3BtcmZ9OjmB9WP2fBrFhb/N6m+UUza6euYg96E8vt29vpBw37obrvr+dXWmmeS08GFtBMXWblyKZWlN2yzyX4zCIjQbAashqZ5xXfpGj2Y0GALc2dO5Xj6QePGG2W7O6MAH3MnbpxJt8s6c8lGenT11S4qdaI1haavrw9+fn74+voSHGjiu/mfQdUjrXxnF2HHiEhjBMGdmJ356RTRleQ132hl7ckspKOfnzblZ7FY0P+UoByoRh1qa9BHNLevW0JBQSHZJ04Tu3QN5kA/Th7YpvlxJx53bPSYO4eG4u3nw/6EFZr/hv+pNTtv+PuTs3tjw1PasS40hXM9Htv+7C7n+tye7bm6BnXvKi53hObG5Ax8LF7kptovA3GnP+tlebpVQvNNmx9/jvw1p883FFu216nuuynxp2xu3a3ks7nf0r1nb0JDQ4ju0xdfi4XtPy7QXORfqXQZsztlnbx4lw4W94Xmr+lPxWX5fVQbmQL+BA9KjRFN27qr8me08LNXj72lW3f4vKxtasus8PJtFi5bQ2BEJJ+MHUzN0+URh46X4Kfa7v491GCEWp6RmvQjm/eeoP/TUWrlx1U/1D9/XLW7bUxqf8jE2S5/hDbMI8fuExCh6T4rh5ZqKH/vkUw+mTEHU2AQE0b1p+b+Hc3WnQ8OZdiaQnPamAEUFRRw9UoJddWP7WJ2dBGqX9rekd2NLwx3Ym6On+MHdhhTkvp0/7WrJVpcutC0XaOphNyQiV8ao57uxOOOjR7zhOEDGDx6Il3CzRTmHLHjow6sI5phHEyoXwtna6QLTeFcT8WR0HTFuT6353tNXYO6d9VuroRmXkkZvmERbPzuCz2bsdX7WFP92TD2cEcJzT9ZzGQkNx5x113r8TT1I1bv87Zfug2vd91fU0JT+ek3Zir9eoaTtn8XhQUFZGZfwDe8i/G5UXC1ymXM7pR1+z78KTCI3RucP4bKdkRTjWIGaCNeD9wSmrOWxhMV6dPsH/l67C3dusPnZW1TR8yKrz/CHBnFxiUztdPW0VwfLh47hX+3YFas2MiM8YNZ+MMvxgi0O/3QUZ9XBTRsd9uYVJ4+H3zCstnjbJNlvxUJiNBsRZh5xQ/pGBRifEi6MxWiindXaJ7Kv0cHiw+FmfY37ygfugBquEbTtnqOLsKGXzzuxOyOn2t3nmjLBhKWz7YNwW7fmdAcNP5zpo6O1irlTjzu2NjGXF0NE75cREiIHxczD9jFpNb09Rj2kdPH4Ahn96bOlbhpirMd9FY8aHgN6q5Vuw0a/wWfftjPmDbVz6mtEqt9Rk5k9NDu8LjS9pS2705/bpSphQlKaPr3iObzCUNafeq84fWuh9jUZ4v1x1c4SatjdXOUH99uPQyhqY5dxaxnbqosdZ32H/spg/uGOZ0utRWauk+1dTWiqXz3fP9jpo3pZ8w8ufvZa1tOS/bd4dPczzE9jrbepnqctlt1PfYbM425k97VktX1Z+nxDpMnTOLLye9x63Yt5s4BjBg1kU3ffa7ZuNMPbT/n9fIctbt+Tm3V9Lt3l27s39R4jaY6X3StlN27d1DXDp5YYVuvtrQvQtOD1li+YSvbt8Rz9vRJzp+/wLqEXXSymMhIXmd41Rd3b49fQ3p6FhNmxjq5Gcj1Gs2yCvCO6Mrk0YM4lp7GkZQMUg5YHybeWgJIBe4qZkcXs6MPuy/j4jGZvYlb8CUZqUfJyMhiY0ICD64XaXx0oZm8fgmXL1/m9NkLfLV4Nd4mH45uq397kat4WhKzEpQT5iwlIszE9fM5RnupHXXXeWSEDzwdmbY9KZytNwM5688N+0ZTnBXX9NNXCIrsypypI40vf1vervbduQZ1H7OXJxIU6MWBpEQOHUkl9WD9OsDVPx/Fx9SJ1OTNFBQUGH+PyuqfPOCqP+vlqK0n9VJCc+POTDr5+TLt4xEc2rtLuxno4OEU0g/XT+m7ui4atoWKy9F1qtKb+mxRbfjOiAkMie7KsaMHycvLIysnD9+ISENoKh/uxOyqLHX++IWb+IaEM3zQO/yatJVjWcfYmrSLTevitB8JzRGaPbsFsz3hJzLSM/l0zmKtjc8d2aGK0f41R2h60qaqMHf4vIxtqvrhgmWr+PWXRM6dPqU9em/F2q14W8zs2bhUawf1uTp4wpeoJz2cPfSLNnDy/pR5+Pp6cXJfgmbjTj/U+7yrdtccPv1v+5Fz+Pl3oNxmTbZ+Xt1T0WXgCO1moI1LZujJsm0mARGazQSmm6sLY/GPCUT1jsbPbNbWlET3jmLjqm+1ux51O9VRF/2wic5v98TfYmb4u/04m2E/itacD7vkQ8eJ6huDyWymc3gwG+LmaB++rSmAXMWsX8yupuSU3dqtu+gz4F3toeyBARbeG9SXWxdPanjUA9tDevXF18+EWvMYEhzIyGGDOLBjk92ok6t4lDNXNs5ijv5gUqNHqejP0Vy3qPEHi3Buuj83h7Nqt6Xxe7UXDARY3tDW1unXjTtbd69B3ded+zUMn/Ap5oBAIsKCWLvkS7trp/Hjw7w4+rP15jblw1V/1stRW0/qpYSm+ncg/TTvjxlPYEiotu66e9cI1n1nvd7V+Zb2edulMlpBT/9z9tmiThddf8C4qbMI79JV++wJCw1hQL/eZO3dYuvCZcy6cVNlKZsz+df5cPJ0gsMiMJn86N2jKz99/43WCM0RmtE9uhHVu7/2kPCYvlGk7ErUQ9C2zfns9aRN9UJfxTZVAvHrlevoox5JFRiEehzegOiebF2/zG7Efv4Pv9CvV6Axo7AnIx9f/w48snnskKt+qH/+uGp3vT0eVUG3QSP5asr7dt85+nnl773Js7XPKJla16k0fytCs/nMJMcrQEC9GcjX7EX2Hvsv0leg6s+1iupu1AEfTmVg72C7H2jPNYhnUJgn9dKF5jMI65VxqQsO2x/Dnlbekzb1tGzJ7x6B5rS7sp08bzmRESbKrxQ4LSD91BV8gizkZzResuY0k5ywIyBC0w6HHAgBKwE1WqbedW7x9yFn71bB8gwI5F8uZfbXcQSE+HP2SP009jMo6rm69LReIjQ9b67mCA53SvO0Td0pQ2w8J+Buu2si86s4AgN9uJC+12HB6jvgo88XERho4tf4FQ5HPB1mlMRGBERoNkIiCULASkB9GMWtj+dGnnWqX7i0LoGcC9eZM2cmJbknWtfxC/bmab1EaHregO4KDndL8rRN3S1H7Dwj0Jx2X5WQROFJ+0cPNiz9fP4lyp08J7uhrRw7JyBC0zkbOSMEhIAQEAJCQAgIASHgAQERmh7Ak6xCQAgIASEgBISAEBACzgmI0HTORs4IASEgBISAEBACQkAIeEBAhKYH8CSrEBACQkAICAEhIASEgHMCIjSds5EzQkAICAEhIASEgBAQAh4QEKHpATzJKgSEgBAQAkJACAgBIeCcgAhN52zkjBAQAkJACAgBISAEhIAHBERoegBPsgoBISAEhIAQEAJCQAg4JyBC0zkbOSMEhIAQEAJCQAgIASHgAQERmh7Ak6xCQAgIASEgBISAEBACzgmI0HTORs4IASEgBISAEBACQkAIeEBAhKYH8CSrEBACQkAICAEhIASEgHMCIjSds5EzQkAICAEhIASEgBAQAh4QEKHpATzJKgSEgBAQAkJACAgBIeCcgAhN52zkjBAQAkJACAgBISAEhIAHBERoegBPsgoBISAEhIAQEAJCQAg4JyBC0zkbOSMEhIAQEAJCQAgIASHgAQERmh7Ak6xCQAgIASEgBISAEBACzgmI0HTORs4IASEgBISAEBACQkAIeEBAhKYH8CSrEBACQkAICAEhIASEgHMCIjSds5EzQkAICAEhIASEgBAQAh4QEKHpAbxXIWtdHSz/KYFbBWdehepKHYXAcyGwOnE7xWeynktZUogQEAJC4EUSEKH5IunblH0o+xIB4WHsWLvIJrX5u+WVNRxKTeHRvVtNZj6UlUvM0BEEBAUTERbM6BFDuFVw2i7Pkycw7evvCQry48yRZLtzSoAmmIAPE6Aatv5nYPHPdjbNOTizBy69BY/+Bvh9OfgUwalzhovycriz/Qncum2kvSo77tQ9az+U/F0NzN71qmBp1XrOXAFxkxdDXa1Hft25LmrrYOS0uYQE+5KfddCj8iSzEBACQqCtExCh2UZaaH1yBl6+viz9YqxHEWWeu4mXxYub5zKd+rlzH7zCuzB9/PucOJZJzvET7Pg1mcoG4vT7xIOY/b05n9JYvCgRujkEmJAANbD1fwArtjUqU9kldIYnv6uFrxufVxlK78C+vwMi0mHvI6oPwsM1j+1EZXYGFP22CDKyG5Xxsie4U/edP8DDP38CAza/7DieSf32nYKhMVug2P7HVnMLc/e6eFwNw6fMpltnExVXC5tbjNgLASEgBNoNARGabaSp1BfUmdzz1FZWeBSRO0Lz2PnbdLJ4c+10qtOyrt6uwSe8M4kr5ji12dQT+Gor1MKWN4FE+1FPlbGoEM7/f2nUKTdvbIHaxiNGx7Og4LdXIMW5OHZHbDkNtJ2fcKfuqv/cPVYLFZ71n3aOqsXhV1ZD9KgrnN28rsU+9IzuXBfK9n45hPUdTOynI0A1oPwTAkJACLyEBERotrBR1ffCvGXr6dE7GrPFn8AAM2NHDiEvJ8XO492yGuYujCNm8FDCIrrgZzIRFhLI3s3LNbubd+ENSwA+Pj7a34Kp79vlVweqrNgVG+jTbwBBIaFYLCbeG9SHk0frRxqra8Ac1cfwo/tT2xVzxms+ndt4s+enxXblxq5OonukHzy8Z5due5D4ERC/XUtK7IFDobh1FhC1mdqbcOjfX4PMHMNFdTX8rKbc/6zh32OYv1Wzc25TB+/Wj96pKcvsRXDzn6HqL4H/dg2+zrT7Ar93F3LHQukbUPkHqP2LJ/DvyuDbX42Y3Nl5WAbHhkPp30PdX9TB7yuh41F48MDIXlMDWV/Ajf8C/E6dL4Dd9UsBlKGreNyp+62bcOC3Nvx6bDJi0HdU/zkyFe7/I1T9W+D1KviXIvjlpG6ibbWYv4Qb/xVqX1NLGCqg023YdczO7mU9+OIHWDh+MdTWNKqiYrh8E0wdf4kxQ84yOiaDryfv42Z243WW7lwXegGJe09g8u9AxeWLepKxVWVOjV1BWFgAZxssXTGMZEcICAEh0MYJiNBsYQMpYdN75GTGDevN8WNZpKQd44NJswgI8KLkRL3YzC16yFsWE3HzZ5CRmsLJk6c4mprOjeI8rWS1XquopIRLRVfpNWwcjoSmXtbYob3JTEslJTWL4eOnExzYkYrL+UYNiq9cJWlftjZ1nr0viaKiIu3vXmn9ek1nNhVl9YJSxRT13liWz/nY8O1o5951oOyhdupeMVBZaWemhMvWfwY27AQ1hR4BTEy0synLh7PxcPX1qxB/Fs4D59XwnNWvMnZqc73M8LV9GvCHPIgrgUzI+wou/64CVu42bPLOw4nX1ZzlCdhRCUegUunk3EuGjTs7CUpg//1J2HgTjsGjffB4xWW70dptagXE3xTANyWwG3L6Qc1vC+BA/dS/XRRskQAAGTNJREFUO/G4qrsaIK64AE/Owa6OgAOhqa0b9APeSoHkx1TtgEzVFn99DC7WT9tuGwf81SX4qggOwL14yHntCXzT8rW37vBsKzaHz8GQmCQoqG8jPba6JzBqJqyaFk/eiTucPA7T58G4QRvgRoFupm1dXRe2xuWV4BURyf7NcbbJ2r76YRj4Tgw+Pt6sX/hZo/OSIASEgBBoDwREaLawlXTxZysM1bqrroNGMWv8IGMkzSo0fclPb3rUTPmLHj2tSaFpW9blW7X8yWIhZdsquxq4M3XuyqaqGt4MCeXw1pV2vpt7cCoHLv/7w3D7jpZ12xLgf20FNVRn88+dqeGmbG7egEN/Ww3r6kd4lfvNamrfnAAKLmAVdg9g5z6b0pu/uyka+Me9cKvUYeZrV+HIXwOz6wWaEt3a8oLQBKNvuBtPU3XXA9DEpL8LoWkjQq9ehhQ1ErrMGuON63BI3Yg1wzqSrPxWVcEvv6NFQvPxI3iifruov/t1diJcj7mt2ah+32/MDU5sWKOHaGx1obnnm2VG2pVS6DUgh2v76kfWjZNu7lg/RyY5/VGXduIiK1cupbL0hpsexUwICAEh0LYIiNBsYXtYvyAmNxKGM5ZspEdXX6h+rHl+VkJTidpOEV1JXvONXQ1ciUhl7MpGrR17w9+fnN0b7Xw39yBRjTLaCKvCi3DiLwsh237K1h0h1ZTNwd1w89+oKeEnoMTT07/a3wD/fSsoldeKQvNSLmT9b+Bvb0G/EthZaIhZVc6BXVD6WhGk2U85J6oVDP9xGzy29o0XKTRVCNv+AHxpFZaK4Z3XSuyWP3giNBNGQa2+JOI3l+FQ4/XAbc1Gtd3cNTB/rJo+t/8x5EhoPq6BnsPyydv2k9a/WvrfkImzG32OtNSX5BMCQkAItDUCIjRb2CLOhOaspfFERfo0W2iq9VjNGdFUQtM7sjvbf1xgVwNXIlIZu7KxjmiGcTDBuo7UrgA3D9SUbuIbwG9qDeGnBGDdn9fA5/WjZspdUyJSL07ZXHJy17lV2BXD5nNPp97V9PvTv4L6KXh3hZ1eZlNbNShbtA1K+sKdvwJMB+COdYRTxXPXqdD8uUVC01nd9RhV/9ncjBFNTWj+B+DzLZqLfTvh/msFdnf1eyI0b+XBkwNKdQMHq+B+/fpVPea2ZqPiSrsAg2J2woUMPUxt60xovjP8Ehe2brCzbc6B+hzp88EnLJut1i3IPyEgBITAy0dAhGYL29SR0FRpPd//mGlj+hkjXO6OaCqhMGj8F3z6YT9jalUPzVFZzoTmqfx7dLD4UJi5R8/eaOtKaKo1mj2GfeTRo5aso5cXYceletF3HnYNBrwSDT4qOHeE5tmTcO71O7C78XMHr1+Dw2qqeoq9gG1Y8dYUmra+i3IhQ007z7OW39pT503VXY9D9Z9Nat1l4GaH/SdBrdG0mTpvKDQL8yHr9TpY+Ivu0qOpc8NJO9uproUBH5WStWa1XeTPSmhWVIJ3l27s39R4jaYKoOhaKbt376DOw6dR2FVGDoSAEBACz5GACM0WwtbFX89uwWxP+ImM9Ew+nbMYH1Mnzh3ZYXh1V2iqDLOXJxIU6MWBpEQOHUkl9eBOzY9elu0aTWdCs6wCvCO6Mnn0II6lp3EkJYOUA/aPHXIlNFWh6q7zyAgfuG9dX2lUyM2dbUvVDTO/WBf62eTZGQ/Vf5kCV64Zqe4IzbIy+FVN9fqnwc7HVCapRZi5ho+kSVD92m0YmQ/bq6hVo4qLnqg7rQyb1hKamfOAJTch5TF1WXBpIRS+Xgk/1HO23gxUCAvU1Docj3Z2M5DrNaOu6q5XMHGKupknF1bc4LFaepl4QTul+o8roalsErurO80vwpIr1CZD8SdwRY1IvyI3A+kcY3+C2aMXQ3WVnsSzEprbj5zDz78D5cXWtjIKBGpqocvAEdrNQBuXzLA9JftCQAgIgXZDQIRmC5tKF3/RPboR1bs/JrOJmL5RpOyyv6u6OULzzv0ahk/4FHNAIBFhQaxd8qU2OqWX5Y7QVNVJPnScqL4xmMxmOocHsyFujt0olztCU3+O5rpFzf+C06ZxI4GwxqNrlwog8/XH8GO9GHdHaKp65ajnaf9PJSiBv7sLk/Yb9VKMcpbC1X+CSrVG8y8fwb9eghP1r85sDaGp6pb2Odz6B3is4nitCv7hFkzPtLvJSS0LzZgJN/6TWjNaBX8qgF/P2vW25sTTVN11p+rB9+mdoVw93un392D8XqP/uBKaysf9e5A1BO7+XvFTb2d6KjQXNj1SrJf/smyPFcCAmL3UnDliVOlZCM1HVdBt0Ei+mvK+0Y+NArEO+r83eTY+vr4ytW4LRvaFgBBoVwREaLawuRyJvxa6arPZ1JuBfM1eZO+xruNrs4FKYM+EQEkRpP/2MWyyjqw/k0LaoFM1kjhofBmp3//wzKJTnx+T5y0nMsJE+RX7xyPZFpp+6go+QRbyM5wvhbG1l30hIASEQFsjIEKzhS3yKghNNXqn3nVu8fchZ++rNarVwm7RrrPlrlfT7Q8hBR4mwbFAtfxhn/F4qnZduWYG/+1mmDlyKTxu/TctaSLzqzgCA324kL7XYWTq2vvo80UEBpr4NX6FwxFPhxklUQgIASHQxgiI0Gxhg7wKQlOhUfWMWx/PjTz7RxK1EJtka6MEVDvvew8e/AHqfvMEfv8Qwi9CjvPRtjZalVYJ61Qx9I85QNUJddt86/9blZBE4cn0Jh2fz79E+b3bTdrISSEgBIRAWycgQrOtt5DEJwSEgBAQAkJACAiBdkpAhGY7bTgJWwgIASEgBISAEBACbZ2ACM223kISnxAQAkJACAgBISAE2ikBEZrttOFe1bDVWsLlPyVwq6D+sUXusFA3V2xM2sPOxB/dMX+pbFTd5y1bx9qlX75U9dIrszpxO8VnsvRD2QoBISAEhEAbIiBCs400xqHsSwSEh7Fj7SKPIiqvrOFQagqP7t3yyE9bzKzfBR8U5MeZI/UPR3cn1lfl5i1HLF5E3VurPzuqj22aeovVyGlzCQn2JT+r8VujbG1lXwgIASEgBJ4/ARGaz5+5wxLXJ2fg5evr0WsflWN3HsauBNuQCZ/j729hX/x3DuNpi4nquZ5mf2/Op+yyC0/VZ+Kc7wgKCdUebu1vMTEkpg/JCauNV12+CLFlF2SDg7tlENGnPyaLP35+vkSEBfPx6GHkHjvcwNLzwxdR99bqz+7UXr0la/iU2XTrbKLiaqE7WcRGCAgBISAEnhMBEZrPCbSrYpRYOpN7nloP32nsjtAsvFZFQBcz69YlMWJwV6irdRXeCz+vv6koccWcRrEodjEfTWfKB/0pyMvj7LkLLFuzBR9/C8lrF2r2L0JsNQrUJuHmXXjD4s/2tYvJLygkNeM47374CSFBHam81rpi6UXUvbX6sw2yJnfvl0NY38HEfjpCnjnZJCk5KQSEgBB4vgREaLaQt/oinbdsPT16R2O2+BMYYGbsyCHk5aTYebxbVsPchXHEDB5KWEQX/EwmwkIC2bt5uWZnFRwB+Pj4aH+2r5nUHamyYldsoE+/AdqoncVi4r1BfTh5tH5kr7oGzFF9DD+6P7VdMWe87krbqveYq9feld4Fr1B/bp2zX9/mKmblxB2bm3friBr4Lv6BQZjNfgyI7sGhHfGGECh9AG8Fh5KwzH7t4EdffMfQfmFQW2PErWLuHukHD+8ZafqOLjS/mjxUT9K2w6fFMmJgF01I62KrW0Qo4ZHdsFjMvDvgHU6n2r9xRb0VZsmaBCJ7vIO/v5lRwwZwPvOQ4dedtlDGqrwfE3YSPfBdLAEB9O3VjR3x3xt1t7a7hexdPxm+zxY+4C2LL/npvxppruJRhq5s9Lrb9q30UyWYQkPZ8n2sEZNRaBM7ZRV1TJ+/hPDItzGZTISHhTBqWB8of6Dlcqc/K8M5K7bg/bTP633Vz6+TXd1dMWwYZuLeE5j8O1Bx+WLDU6h2mxq7grCwAM42c9lFI2eSIASEgBAQAm4TEKHpNip7Q/3Le9yw3hw/lkVK2jE+mDSLgAAvSk7Ui03ru85NxM2fQUZqCidPnuJoajo3ivM0h2qNWVFJCZeKrtJr2DhsxYBeol7W2KG9yUxLJSU1i+HjpxMc2JGKy/m6GcVXrpK0LxsvixfZ+5IoKirS/u6V1q/XVKKky8Bh5OzZpH35Dh7/OZu++9zwoXZcxeyujRK/u/fv4dyZ05w6fZ7p8+PwM3fk2uk0rTz15T/w41l89F6UMaqq4gvuM4hV8ycZMSlGUe+NZfmcj4002x1nQnPMrCW8HxOhCVad4YiBUaQdOUh6RjYjJs4kNLgTVdcvGe6mL1xLcJAvyZvWkpmZw8SZCzBbOlGcY53S1v24aouvVibSJSKAPT/Hk3sul+83/IKPv5m0pLVaWQ2F5o07ZXwWu4K+vYJ58qDU7XiUobsx633rYNZFLOFhbFm1oFkiUytr0QaiIgNJ3buTC7m5ZGYfZ1tSgtF+7vRn5af0/kOjf57NLSG0V3+GxURSV3bXqLsrhobh053ySvCKiGT/5riGp1B9MfCdGHx8vFm/8LNG5yVBCAgBISAEng0BEZot5KoLDv3LW7lRa8W6DhrFrPGDjC9wq2izH6VyVKTyFz16WpNC07asy7dq+ZPFQsq2VXbuXE2dH88rxT/UC+5b3ziycsthBkWHQk214cedmN2xMRw+3amohA6hEezZuMQ4tfqXFMyWN6l6Ol2cf/kRb1r8OHPwZ8OmqhreDAnl8NaVRprtTkOhWfm4ll2Hj+MXEk780lmaqaP2KrlZwx8tZtK3r9Fsrt6u463AYJLXfmu4V8L37aEfMmPcQK1NHflp2BY3SqFDcBDZu+INP2pHjbB+8kEfbbhTH/kz+fnh52fSRqJDAn05e7R+NNOdeNyx0WOOnTKchOQ0/EMCOPizVfDaBejGweiZixjarzPVLt5Y01R/ti1Gtd3Eucvo1tnMg+ILxil3GBrGT3es9Zzk9AdJ2omLrFy5lMrSGw2zyrEQEAJCQAg8IwIiNFsIVv/ythV/ytWMJRvp0dUXqh9rnt0VZE19MTsqS4naThFdSV7zjV0NXAnNOSu3GKJJZVTCrmOAN3cu5Bh+3InZHZtbdyv5bO63dO/Zm9DQEKL79MXXYmH7jwuMsm7dg44hocZNST8mpREa0gFsRvXU+rs3/P3J2b3RyGe7owtNX18f/Pz88PX1JTjQxHfzP4OqR5qpM4YdIyJJXvO1ZrM7owAfcydunLF/NeBMmzZ15se2LfZkFtLRz0+bnrdYLOh/SlAO7B2kjbDqI5rb1y2hoKCQ7BOniV26BnOgHycPbHM7nubE3Dk0FG8/H/YnrLDF16z9vOK7dI0eTGiwhbkzp3I8/aBxw5Wto6b6s63dxuQMfCxe5KbWLwNR591haOtH3x8ycbbDH2v6edkKASEgBITA8yUgQrOFvB0JDuVq1tJ4oiJ9mi00lVhqzoimEprekd3tRJsqvymhqaY1uw7+ADWKposfi8UfH18fOz/uiEhXNopPvzFT6dcznLT9uygsKCAz+wK+4V3sylL1/mDGt4wZ+jbUWkf9vpgwxBgRVnWyjmiGcTDBuq61YZPpQnPamAEUFRRw9UoJdU+Fvm7rqL0aMmyOaLP9geHMz/H/v727f4riPuA4/j912knk6e7kAOUEiQhF8aEkNgnS0NQoRged5kGgpmmmoxKqTWoTY8GipONTfEjQHhAeUlNixUDA+EC0k9FWDbFGQj+d7+Ied8c9rAdcZ+D9g7N3u9/9Prx2mfu4t/u91qOBr4ft2xiuf3XV6pIdNIPv0TTjeGpjTeCqp5P+OCljj72qfLWerNyovFy3Lp3z2zSPvDRfQ5/2d2vzS3VyebNU9bOVGr19M6SeWOezXXDg6l2lL/Sp8c1t9qrA0h5XLMNA4YcvzDiXPbdZv6t9IXwT7xFAAAEE/k8CBM0E4e0P7+DAYdYVPbteW36+InCVJ14gs5s3H8xlG7Zp6/MrQkKW2R6prfBwY9fz2eC/9ZgnTZe6Qx9yMdvHr16mqK+jNSgAXVFV7Zta/2zRI/U53rjGw2GuDu993e6adWtBesHSkKBpNrb3DivVk6KB7nNKXZSnng8mHpAx201AXvrMuqhTP9lBM/xhoEDDDg0f5Wvo4OMefiyu3/yv9RV88+7a4C6EvI4WNMs2vKrqylLrHHDSHydlgs+fBw+kqpodysnJ0BfdrSF9SuTNwJVv9HhWjk7uD53/Ndb5bNoxYXVZxUZV/nSJ9N1/JjXtxDB8J3NrRmpegT46MPkeTVP28vVbOnnyqMamOLNDeLu8RwABBBCILkDQjG4Tc4v94V1UkK0jzX9SV2e3ttbtVJprnvr8RwP7xgtkgYKSancfVJY3Ra2HD+qsv0MdZ45bm+22YoUbu56730qpvsXaVFmmTzo/lr+9S+2t45Ob/77lr1piXW29bxe3ls0f9mp+5o809vWw9d5Jn+OVMeHwx2ur9FTpYn3SdkYDAwPqOTegdF/+pKBpyhaXb1BxYaF8vtSQr83tjpqnzvN9aVLYlTOzfbqCpqnLfrDmSNM76uzsUdXLr0d8GCjesahpaJLLnaqG39Soq6NNXV09amxu1p0bl60h2UHz2Hu7dO3aNZ2/0K/tO/cq1ZWmtr9M/HpRvP4k0mfjXVVXL99Cl25cnLhlwuqYpM7zw8rKX6y66orAfz7sbbv3t+jIoSZdON+rixf7ta/5hOZ5XOo6ts8uElhGO59Ngb3vt1l/Kx3H/qyhoaHAv3t3J2YViGcYaOjhiyP+PmXMf0wjQfd62mXGH4Jbaz0M1LjrJXs1SwQQQACBGRYgaCYIbIe/0qUFKixZKZfbpVXLC9V+4mBIjfECWXDhm7dHVV61Ve5Mr3wLs/TurhorRdltxQs3dl3Hzn6qwuWr5HK7tSg3W/sb6qQxac2LtXpl/fhDLXZZsxz66r5+6HGp5/h+a7WTPjspc/nGHb1Q/Ypy8xZbfVm4IEerV5So5/Sh4Oat18fbP7fua9zzq6pJ28wKex7NfTsmh4TpDJomkOz4wwEteqJI8z1ula9ZoQtdE1f+nB4LU+7dlhNatnqNNSm7N9Ojp8uW6+sveq3xmQnbc4qXKz3DJXNvaU62VxXPlKn16IGQK9rx+mMqi1cmWp9Ln3tRK8Oecjf11Tedtia+z/T8ICT0G+edf2xWYUmpMtxua8qq0pJCNb7925CHyawBSop2PtvHy57WaGKZorb3Jx5ui2dot2OW9+5LBWUV1rRd1v88gjc+vKL99KZaa1x8tR6Gw1sEEEBgBgUImgniRvrwTrAqdpM0cPVbpWalhzyUFA5jfhko3Z2iv52aHFTDy/I+cYE7I2Na/Xy1flKSHTFAJl7zzOxp/hY3vbZb+T6XRoaHojbS+dmw0rI8GuyafFtJ1J3YgAACCCAwJQGCZoJ8BM0E4YJ2uzPynfr6LujjnvMqKitXfe36kKt5QUWtl+ZK2JY33pJnfprOnW4J38z7aRAYvHZLtW80KDNnvi74x2/dmIZqZ6wKK2Rub5DXm6b+ztMR2zHnzbpXd8jrdemDpj0xz7GIFbASAQQQQCBhAYJmgnQEzQThgnY7++kVubMXKHeBVzu3b5EcPKRh3Bvea9I/B8a/gg6qjpfTIHCu/4bq6l7W1c//Pg21JaeKt5sP61Jv6JRU4S1fHPxSI3Hm/gzfh/cIIIAAAlMXIGhO3ZAaEEAAAQQQQAABBCIIEDQjoLAKAQQQQAABBBBAYOoCBM2pG1IDAggggAACCCCAQAQBgmYEFFYhgAACCCCAAAIITF0gatC057ozc/zl+XJU/+utgZ9VnHqz1IAAAggggAACCCAw2wWiBk0z8Nt3v9GtW//SKf8/9LgnQ33+w7Pdg/EhgAACCCCAAAIITJNAzKBpt2F+yzktf4nOHtpjr2KJAAIIIIAAAggggEBMAcdBM71gqc4eJGjG1GQjAggggAACCCCAQEDAUdB8MCq5nijWmebdgR15gQACCCCAAAIIIIBALAFHQdP8Gsvyys16rXqt9P1orPrYhgACCCCAAAIIIICAJeAoaJqSvQM3lZq1QFlelwa7TsCHAAIIIIAAAggggEBMAUdB00x19Ittu1TxZKGGB/s1ev9ezErZiAACCCCAAAIIIICAo6Bp7tHMLF6hU427EEMAAQQQQAABBBBAwJGAo6BppjfiqXNHnhRCAAEEEEAAAQQQeChA0ORUQAABBBBAAAEEEJgRAcdBMyWvQP6Wt2akE1SKAAIIIIAAAgggMPsEYgZN+ycoj5/p1TxPmr7s+XD2CTAiBBBAAAEEEEAAgRkRiBo0zZPmq9b9Uunpacr35eid+jpp7PsZ6QSVIoAAAggggAACCMw+gahBc/YNlREhgAACCCCAAAIIJFOAoJlMbdpCAAEEEEAAAQTmkABBcw4dbIaKAAIIIIAAAggkU4CgmUxt2kIAAQQQQAABBOaQAEFzDh1shooAAggggAACCCRTgKCZTG3aQgABBBBAAAEE5pAAQXMOHWyGigACCCCAAAIIJFOAoJlMbdpCAAEEEEAAAQTmkABBcw4dbIaKAAIIIIAAAggkU4CgmUxt2kIAAQQQQAABBOaQwP8AsRIZWTHI1dMAAAAASUVORK5CYII=;" vertex="1" parent="mZmqrbNJux5fh9DZsMJL-1">
          <mxGeometry x="23.99668701171879" y="231" width="666" height="191" as="geometry" />
        </mxCell>
        <mxCell id="mZmqrbNJux5fh9DZsMJL-5" value="" style="shape=image;verticalLabelPosition=bottom;labelBackgroundColor=#ffffff;verticalAlign=top;aspect=fixed;imageAspect=0;image=data:image/png,iVBORw0KGgoAAAANSUhEUgAAAhoAAADcCAYAAAA2lwimAAAgAElEQVR4Ae29Z1RUybr/Py/Ovee+uy/ueXFf3XXXWf91f+c4OsE5BqBzN5IEGUElmB0jGMecdUbBEZwZAwYQAwZQgjMoBlBRFAmKGQEBSSYURQFBgt//qt3uths67G66sRse1mr23rWrnnrqUzt8d1Xt2l/InYaA/ogAESACRIAIEAEiYAsCX5DQsAVWskkEiAARIAJEgAgwAiQ06DggAkSACBABIkAEbEbAroRG4YsXSLidifs1eTYrsD0Y/vABiE9Nx+mkA/bgTo/6wMq+efchxEVtFJxvRwew52giasvuCU5j64h95Vi1NUeyTwSIgPUI7E86icp7+dYzaCVLNhUau2/cxJDfxyPqwiYAH0y6PDHlEL7aPAon8neZjPs5IzQ2t+FS9lW8e11rkRvsxhkQsgxbVs6wKL0jJzK37EyYrPp1L1xdJbiXlWazovf0sVpU8QwpKQlAc6PNyiTUsLllN2SXneFPG96g5nWVoShWC7904xGUnh44FbfNajbJkH4Cl/KLMH7qLChdh8HLYxjmzJqC2rK7+iNTqMUEusu5vQMIWbUJbsPEKM3PtNgPWyS0mdBgF52gxBh8tXkMRsb4Ax2tJv13FKGRV/gcznJnPC/s2vLCboxLwnfC1c0dIrEYCrkUU8YHIi1xP8DuslAv7ElovHoLeAWOg1SugEQi5i4mC+dMR9H1yybrzNwI5gqNvUmZkClc8ODqWXOzEhz/cxyriedvQ6EYCLx9pddPdhxNWfwzFAo5zifs1BvHGoGWlN1QvhuvXMWAzaOx5cxKQ1GsFn44LRfOYjGiNsy3mk0y1JXAy3rA2dMbaxfNwK3reSi4eQunzqSh2cKHrK45UAgjYC3O71uBmSvC4DtciqbH5XYD12ZCg5Xw3ot6hF2IxZ2qa4IK3FuExvgFa7Fi9jiUlZTgfmExdh9MhkghR1rcVo6DuTdbQfC6Een5K2CgXIGTcdtRWlaO7Nyb+GHecri5DkXzE+serOaU/fGLNog8hyMpOrwbpROWtCeOVSYe1v++GyeOxiK3oBwBQe6oLqvBzxFbcTvrpI6j5U9aoPSW4dChVMyaPALoaNfZb80Nc8tuKO8NWVd6TGgwlveKHqC9ucmQOxRuBQLXH7yAk9wFT+5mW8EamTBEwJqc6xsBj6DJiFw9C2Anih386QiNRelp3IUiUuuJpLUDEEUvw7cRvnhQeZFzuakVCL+cCsWuufjXliAE7A/F+cJUTfdI3L0yDNg8hmvNYC0ag39VAO0tXYp7t7YBQUc34btfx2LYzimQ7Ai1qOvkbVMH1kbsgKfP95BKpfD0cEPo9ECg8Y0mz7Z2YMfBRPj4j4FCIUPo9Al4kHdJs5+tvHrbhk1bd2H85Knw8PKGRCqFh5sKGcf3cPFa2wCZXyBEIlGXX3T4Ii4Oq1cmNH5ZNlXH9sxVkZg10Zu7YfA3W18vd3j6+EIul+GHCWNwNztdJ40pn1lekdFHEDh2AteCIpdLMW1SIG5f0X36Z/kdSDyN4Ik/QK5UImi0L04l7NUchGqhIceNs0c1+d8vf4PBcjFKc85owkz5wyKaisOXXbvbKOdOFaTu7kjeG6nxidmK3J+KkT4SoOG1xgd+xRGPVda0uYEdX5OmYsSI7+HqqoKvrw9mz5qKa+eS+aJxS1b2X1bMQN0rwNldgdpC6/e7CjlP2z8AC8/EwStmIQb9NgEDIwMxImYa0m4fN3i+s3Oe/w3+VQm0Cu8eMnUuq49Vpeb80z6OtAGGRyfDpdN5KpE46RzPps4LbXvWWM+6/gAhC5bC1d2TO+f9v/fB2QT1taWg+BlGj58MhVKBSWNH4dct2+Du8z0C/L1R+PG6wM73zbsPwz8gGDK5AiqlDPNDpqCk4KpF7hnzx/C1zgXpR7dz+Qm9/ljknJ5Epo6NH8N2Y92CCTrXEGamsRn4TqVAWe45zurzVx3wm/gDFCpXyGQSTAj2x6VTCZp01uRsymdbcU7KuAWpYgiaqh/qIdnzQTpC49yjOnwZEQjfaD9NV0f+0xZ8GRkMj10jgLZmdHwAJiTv5S4kLr8Hw3//cnwdGYxvIkbizK04rgSZlc8wJ2UzfjgWgQERgXqFxpv3gMuexZwdj10/YOT+FfgqItAiobF22xH4+aiQnXEaxUVFyLtxE3+kJuo8Ba7dGodhrmKkHYtDXl4BlqzfApncCZUFn7oHiioaMFguxa6IdcjNvorbt+/gSnYOnlWWaGqmsuYxUs/f4LpObpxPRUVFBfd7Xacer8EOUn1CY+5POzBjvBfQ3sb1oLCuk1kT/XAtKxM5uTcwa8l6uA9zQsvTR5q8TPnM37TnTw1A3rVsXM3Ox8xFazFMNRRN1aUaO7/EJMHbS4n0EwkoKizC3iN/QqSQ4Vqqur46C41nL99iTWQ0gkYPw4c3dRo7pvxhEU3F4X3mbxCZ+Q8h9/RAcuwWzYnO7LCbst+0+dgTvlCTv/aKox6rrAy1r98jeNY8BAUF4ejuTZouNb58TKx5T5yOgvRj3APJ5EU/49jOn/ndVlsKOU/Zg8bQ3Qvx9ebRGLl3Nr7ftwIDNgfg2wgfPKy+wvnC2/HYu4w7n4fvnoK5KZu536I/V+t9yDBUCFPnMjsuKqqq8KjiMUZP/9HgOKe6+gbNuXm/qAruo8dh+ngfdGh1VZk6Lwz5aEn4iQu34SyTYvWiWbh47jRu3LiBM+kXUHb/Omfu1NViSOWDUFZwHWt/3QeVcgge5GZjSdgOjA9wBdpaNdeNH6cH4Ob1fFy9dh2zl/4EpdIZVbfMExum/GFOGbrWNb1VC3/+XDZ1/bGEl740po6N8JhkzJ7iy133m9+3o6amkjPz6Ol7DFW5oP7juBJ2cz93IR2F9+7izt0HWBuxCxLZUDy5q25558tlDc6mfLYVZyaunL18cOG4fYx31BEaja3AoKi5GBjpjZpnN7hKWpN5kWvl2J6xntu+XP0WX0YEQbLVB2/q1TfFw/dKOUHhuctX56JS+hr4Z+RYvUIjufgx+m8OgNduP3x4r255mJASZ5HQmLN+G6aOHY7W1y84Hzv/e/yiA4NVw5AW97tmF7uYfz91Htb9OFFzg1MLDd2neE0CrRVTYzS0hQY74M9evgmJmycSon7irPAHMn+zZYFVz9vwnVyGnJMHuThCfNZnp7q2Hf+Sy3H1j1jOzrM6YMgwV9w4m8Bt8/9YC8vy2YHcTY5/SpRKJJBIpNzToptKjPtXPrVmCPFHSBze58gVM5GYdg0KNyUyT6gFD+8bW7awY9HNHZdTYrSDNeuOeqyyC8CoafO4C2JZaR2cVEokxfyiKRdbuVlSB4W7M1CvPp5jki9jUrA7d7PRiWilDWPnKS80mLAof3yNG9I96QQ7T0cjJjNMxwNrdJ2YOpf5DNlxFDxnlUGhwcdjwn/Jpt3wHS7Dm8piPhhCzgtN5G6usH5z1ehxWMOetg10gTGhIVcO5AYHp2WXqNeb3uJsbilkyu+4Vj3+3NG+bjDbIyaF4qdFkzTXMVPuCvGHt2HsWqfPn87XH96ONZamjo24tDz4+0qA1vc4ciYfcsUgtD6rxLW7TyFzHQQ01ut1o6kZGOLuhfT4Hdx+feWyhDMzZspn3iFrc1aXYanBBzU+355afiF3GqyT15KMM5yw2H95M1raAOfdizAwcjhqnhVw8X7Pu8l1iyxOnKVpOn3VDPy/LePxXaQHXr369PRv7AIWcS2Ps7P6xFxN/paO0SipfIURwZPhPkyOTetX4mZOps5T4rncMohkTnh2L0eTF1tZvyMe/iPE3IHJtq0pNMRiESQSCcRiMYappNgZsQZoecflb+hAHurlg7SDv3JxhPhsyI6T1wikHfyNs5OeV46hEgnXVCuXy8H/mKCYyJ6U2tvAt2icPLQDZWXluHHrLiKjDkKmkuD2xT8E+2OOz8Pd3eEiEeFCYjRnv/M/1s84UKFAwbn4zrs02454rLI625+Yikd31cdi7PE/UNHpdTT2ZKYtgEur32Go0gUvi9XnoAaAlVaMnaedhQbLUj3ocww2pS3V8cAaQsPUucxnyDgKERrxabkQyZ1RlK3bnSjkvODz6u6ytKYZg7QeIvTZ0xYaZ3I+iovGejA/pcp/AW/qNC0a2kKD2VrX6Tqmz752mBB/+Pjm3gDZDVn7+sPbscbS1LFx6WYVJIxV/WuwBynWLZKdegDHM25h3MdWIeZH7atmrNn0O0aOCoC7uxuCA4Mglstx8sAWzk1911W2w1zOLI0pn7kMAdiC85QlYSaFOJ+/rZddhEbOk3dcV8nImFE4W1yN/hGBmHFkMvBBPRiNFxpLkkI0QuPlO+AfH4XG61ef+oTYBazflnHqFo22Zp2yRObkc0JjWXKoJtxSocEMsOawjKw8LF8XDqnKFYtDx6Gt/iVnW8gNkEW0ptBYNXcCKsrK8LimCh2t7zVlZCv6DmR2grr4jNQc7EJ8NsfOzYunNE3JfHfPk8fq1xB5oaE9RoM9CU5ZslHT6iHEHyFxeJ8Xz5yAyXOWwNtThvKCLB0+bEPdouGBzER1H3aXCAAc9VjVVxY+jHUNjJg8G6x1iReFcrkCIrFIc2zwca21NHae6hMa/ENC2KklOi7wQkN7jJdOBIEbxs5l3gQ7Pk0JjZKqtxB7eCF+5wY+mWbJH6vGzgtN5G6ulD1uwb/kMuSmdW25401rCw3WiqHknsDfCBIaP0UlwM9HpHlg4m0aWgrxh09ryQ1Q+zrG27HW0tixoW5RFeHh9TtQ+A5DdHQ81i2ajK37/tS0+LDrz9i5KzF2lCeuXTiL8rIy5N0ohtjTW3N+8deozoLOXM58mY35zMexNmdWhsDZy7E77Ec+i8+67CI02OAv70OR+DbCD8N2z8c3EX649iBF4yTfdSLfPgKNb2u48L237nNdJ167dbtOapu6CpCWNvVrrqmlz7g0sm0j0PBGfcPrjtDQOMipyAYMdXXDuSPqd+yFNOmz9EKFxp3S1xgiF6E8T3fwJrNhaIyGtn/6DuTOQkOIz0LsPHn5ges2Styj28yt7Y8hoTFp0c9YOSeYK5QQf4TE0fa5tRVYvHEb3NwkeJinHmjM+8VuuP7TFxh9fbE3HKt8efmluvXCGYXZF7WEYSUWh+3EwhmjdFrq+DTdXRo7T80RGvzDw4JjbH4Y9Wj3ptaug8DN8bekUvdc5tOy82zSog1YPW+s3i4DdnEPDFmCOVNHAu91H3KYDSHnBZ9Xd5fs3Fb4B+PnxVMEdZ1o52eqRYOdT6NmLMSquWMFHxtC/OF9sPYNkLdrjWXnY4PVudx/DJYtXoqNy6ah9kU7ZMOVmBW6RDPGSf0A44nU/ZEaFxgPsa+/UaFhCWdNBlornX3md1mbM+sOcvH2xYVjdjNGQ7frhBX86P1HnAhgI8f9947WGXfBBoOOS4rmBn1Jto2D377l+CoiiBMk/GBQHh67EXjGbeLiKndMwKgDy+G1xx9of4/mNsDtwM8f7YzFuEOrMHTrNIvGaOw5koKTyQm4f/c2HjwoxqHEs3CSS5Gbdoh3RTNI8WTCQeTk5GPx+kgDg0FNj9F42wS4eI3AsjmTcD3nGrKu5uLqRfVkUtYSGsxxfmClIZ+1b9p8QTsLFha+cVcCpDIX7NqyEbnZV5Cbm4/4xES8eVrBJeOFRtrhHaiursbd+8X4Zft+uEhFuPLHp9lLTfljic9MUCwOj4KXhxRPH+h2DbA3L3y8RMDHlim+jNpLRztWtX3Xtx6TchkjuadT3Rs0N++GchA6atXink+bc7cGrj4jEL4yRPCNhk/LL42dp+YIjTPlL7gW0K83j4JvzGzufJds9wFaG/isTC6FnMu8kbA9SXBVOeNiahIuZWUjO/M0vwv7T1yBSOqE7LTjKCsr0/zefRzIyCKaOi80xljrWTc5x5/Og5NEjFULZ+FSxlluMGjm5avIuazu0tFu0dDOV5/QGOU7DCcTjyI3Jw+rw7dz5SzMOqWdzOS6KX94A9a8AXaXoaljg117Jy/eCPZ20f1Lf3IPfTNWbIZY7Izb5xO5IrHrzZhZizEleASuX8lESUkJ8gtKIPby6SI0rMHZlM+24MxsnswqhEQxBI1a45L4vD7HskuLBnOCiQBpzEp8vdkP5+8c6eJXQyuw/mIKpFGh+G5LIEbtm4Wzd1mrR9d3dtkrrKMPb8S3W8aCCZNlf64EWtXvvj9t7MCPafvhsn0G99qcdPskBB1cgBtlGV3yNBTADq7tBxLhFxAMiUzG9csFB/ghPvZ3ncFzbPDntn3HMPz7UVDIZZj5w1jcz9V9ihbaosF8Sbt0E35B4yGVyTDccxiO7ArnnqysKTRM+SxUaLB4cSlnETjhB25SLpVSjmmTglD78DaHlU3Y5TY6CGKJFGxsidswFUKmT8LFU8d0nhZN+cOMmYpjyOfg2UsxrtNbLvw8Goe2rTNU/Q51rBosxMcd7Nj5YWkYflr4aYAyn0bd3C1F/mnd8zEqIYObGE4pH8j14/PxzV0aOk/NERpMsGy4lAbxjpn4JiIAoq3jMfXoHDQ3PRfkjtBzmTf2sr4NMxevhkypgpeHK+J2bNQ5B7u+hu6MKyfUg6SZDVPnBZ8PW1qD88Wcu5gxdxFUbu7c+K2RI7xwaKf6umGO0Aj294VfwDhIZVKMD/LD1bNJ2q4KXjfmD2/EmkKjOwyFHhsR+/7E2NEqTStWem4pxIoheKf1mmfF0zf4ceVP8PQewV2/PdzdMGFsAPIz1K+Y89eo7nIW6jNjbU3O71oA30kh3OvxdjSPRtcWDf4goyUR+NwE2MygYpkzbqTrzjPxuf2yl/zfNHZgwryVmBgwTEdY24t/vcUPe+DM3wA7jx1wFMb2wFAIK0fmzHxftnkPfLykaKwpE1LcHonzhXwoCY0eIU2ZWESAPRWwb53IFSIUZHwaK2SRsV6WqLS6DmG/7oLSTYH7WZ+6DXpZMT97ceyFsyPfAO2FoZCDyVE5cyLjl11QqUQozhHeKyCESXfjkNDoLkFKb3MC7ATadTgBz0rUXT02z9BBMigoforw8PWoKrrlIB47ppv2wtlRb4Cs1u2FoZAj0JE5xyamovy27jQOQsps6zgkNGxNmOwTASJABIgAEejDBEho9OHKp6ITASJABIgAEbA1ARIatiZM9okAESACRIAI9GECJDT6cOVT0YkAESACRIAI2JqAQaFRUvUKk0MWQK5UQSx20Xn/3NZOkX0iQASIABEgAkSgdxAwKDTmrt+O6eNH4HlFOerqXqL14wfBekexqRREgAgQASJABIhATxDQKzTY3AVj565CzKZFPeED5UEEiAARIAJEgAj0UgJ6hQZ7jzh4zkrERuh+BrqXMqBiEQEiQASIABEgAjYiYFBoBM1ZgX0Ry2yULZklAkSACBABIkAE+gIBvUKjprYFMp+RyEiI6gsMqIxEgAgQASJABIiAjQh0ERrLImIhkcowd6o/QANAbYSdzBIBIkAEiAAR6BsEugiNuvoGZGTdgYtKhpJrZ/sGBSolESACRIAIEAEiYBMCXYQGy4UNBh0zazEOb11jk0zJKBEgAkSACBABItA3CBgUGvTWSd84AKiURIAIEAEiQARsSYCEhi3pkm0iQASIABEgAn2cgF6hwU3YNW819oQv7ON4qPhEgAgQASJABIhAdwjoFRrM4NKIWEwO8sKz8oc0BXl3CFNaIkAEiAARIAJ9mIBBoVFT24Sp85dCRh9V68OHBxWdCBABIkAEiED3CBgUGt0zS6mJABEgAkSACBABIgCQ0KCjgAgQASJABIgAEbAZARIaNkNLhokAESACRIAIEAESGnQMEAEiQASIABEgAjYj4BBCY/eNmxjy+3hEXdgE4IPFMFjKpw1vUPO6ymIbLOGlG4+g9PTAqbht3bJjTuLI2BR4eilRfSfbnGQUlwgQASJABIjAZyVg90KDiYOgxBh8tXkMRsb4Ax2tFgPbeOUqBmwejS1nVlpsgyU8nJYLZ7EYURvmd8uOOYlD1/wGsdgJBenHzElGcYkAESACRIAIfFYCdi80GJ17L+oRdiEWd6qudQvWhqwrVhEabEKze0UP0N7c1C1/zEnc8K4VxcX3AZY5/REBIkAEiAARcBACdi004u6VYcDmMVxrBmvRGPyrAmhv0UHb/gFYeCYOXjELMei3CRgYGYgRMdOQdvu4ppulsx1mi/8N/lUJtDbq2DS08fwVMFCuhEgk4n5bVs4wFNUq4fWNwECFSpMfy/f3NSFdbDPtsTIyGh4eStzPSuuynwKIABEgAkSACHwuAnYtNDIrn2FOymb8cCwCAyIC9QqN1g5g6O6F+HrzaIzcOxvf71uBAZsD8G2EDx5WX+G48nY89i7jBMbw3VMwN2Uz91v05+ou4sVQZbR3ABVVVXhU8Rijp/8IWwsN9hXdR1VVqKioQPmjGvhPnadXaLS2Aaox4yESudAXdw1VHoUTASJABIjAZyFg10KDJ1L6Gvhn5FijQoMJi/LH17ihopNOxOGrzaMRkxnGm+CW1uo6YQIgeM4qmwsNbedZngEhy/QKDRbv2q2HiImJQnPdM+1ktE4EiAARIAJE4LMS6HVCg9FUD/ocg01pS3Xg9mahoVNQ2iACRIAIEAEiYCcEHEZo9NsyTt2i0dasg47vOuFbNNjOiGt53NiOsFNLdOLyQiOym2+dsDER9taioVNQ2iACRIAIEAEiYCcEHEJo1DYB/9gyHt9FeuD1q4ccupY29Wuu5giNyJx8ToAsOMYGcarf3mhq1R1cKqRemNCYtGgDVs8b22NvgZjqOql4Uodz506howffhBHCiuIQASJABIhA3ybgEEKDvVniGbeJG8ip3DEBow4sh9cef6D9PcwRGmfKX6B/RCC+3jwKvjGzOTuS7T5Aa4PZR0HYniS4qpxxMTUJl7KykZ15uouNnLs1cPUZgfCVIQBTCt34MyY02toB74mzuMGg8TvWdSMXSkoEiAARIAJEwLoEvpAPHWJdizaydre2AaMPb8S3W8ZCsm0clv25EmhtMktoMMGy4VIaxDtm4puIAIi2jsfUo3PQ3PTcbK9f1rdh5uLVkClV8PJwRdyOjV1aN6ISMiASi6GUDwTe1Jmdh3YCY0KD7Zu2LIzLa3fYj9rJaJ0IEAEiQASIwGcl4DBC47NSsjDzN40dmDBvJSYGDAM+dvVYaArs1doRk2cjOnyRXhM5d2ogcpWjNDdd734KJAJEgAgQASLwOQiQ0LAR9dLqOoT9ugtKNwXuZ3XtVhGSbWpmHpLi45B7LQdR+47DWSZGQTqbiOzTHxsvsuDnbVCppDiTEN2lVeVTTFojAkSACBABItDzBEho2Ih5QfFThIevR1XRLYtziE08B/+AYMgUCvj5euFozBa9Yz0elD5C4+sXFudDCYkAESACRIAI2IoACQ1bkSW7RIAIEAEiQASIAEho0EFABIgAESACRIAI2IwACQ2boSXDRIAIEAEiQASIAAkNA8cAe2V0z9FE1JbdMxCDgonA5yWwP+kkKu/lf14nKHciQASIgAkCDiE02JsVZ48k47CPL+IGfofkwYNwwXc4cOmsieJZtpvlt+rXvXB1leCens+uX7rxCEpPD5yK22ZZBp8hVU/63JN5fQaURrPsqbKz151DVm2C2zAxSvMzjfpEO4kAESACn5OAQwiNtDPZ2N2/P44O+BJXRvkjLSgYCUoFkHXGJuz2JmVCpnDBg6v6hczhtFw4i8WI2jDf4vyZmMndCjz5XwD/0QIMLQJySiy2ZyqhNXw2lQe/vyfz4vM0tawuAbL/AWBeoqmo3drfk2V/3wrMXBEG3+FSND0u75bflJgIEAEiYCsCDiE0ojZsRVy/fni3LNRWHDR2H79og8hzOJKiwzVhnVeYSLhX9ADt3fiuSEYsUP9vtcCqInxIA3LdAPwtG6iq6ZydVbat4bNQR3oyL1M+sbd+C1cD1f8J4C+2Fxo9Xfb6RsAjaDIiV8+iOVRMHQy0nwgQgc9CwK6FxvET57G/Xz8c1vO7pBysmW2zqbkdJ7bswEGFK45+8zWyvh8OpB7XufA+eFCO0yvXIN7LG4cHfodDX36J5EHfoXjmeKC9XQM/cn8qRvpIgIbXmjB+5fkrYKBcCZFIxP22rGQfZzP/r60NSO4PYEyixse6l0DGfwFYk6xjkN24VkZGw8NDift6unF0IuvZ6I7PNwvLcSnjT43Vt00dWBuxA54+30MqlcLTww2h0wOBxjdcHKF5hUcnw+UjQ56lROKE0pxPLVRsjMyBxNMInvgD5Eolgkb74lTCXg0vjVMmVk6wT7+4lACpQJqRFo2e5nzqajGGezkBre8NlkBIHJY4KeMWpIohaKpWf3DQoEHaQQSIABH4DAS+kNnxt06yc+/gQmgo9rl64FC/frjspsTl0FBcCg3F/dULOYHAbkiRIQu5/X8M/g5pvn7YN+ArHO3/TyB+rwZp3L4kHOAFy5f9cGzgQBwaMADPZwRpbl6s39tv2nzsCV+oSae9wvZXVFXhUcVjjJ7+IywVGk8eA1l//QAcOIXzu4H2/74P3HuBYx4AXHUFUmsboBoznvtg2uGta7TdEbRurs9MtCWezMDYH2ZBJhdjR/hSzSRha7cdgZ+PCtkZp1FcVIS8GzfxR2oi0KEWakLzqqtvQEVFBfe7X1QF99HjMH28DzrevtKU6ZeYJHh7KZF+IgFFhUXYe+RPiBQyXEuN08QRssIEBPtj4i7ln4ZbNHqasxARISQOK1tjM+Ds5YMLx3epC0v/iQARIAJ2RMCuhQbPafu6LZyQQPhyPkizvJpfjG0DBuDkkK+A6kdc+J8nziO6f39kKgYD79WfgeeFxtOpAZqw1rZ2tL3+dHNraQUGubnjckqMxr6+FSZugues0is08gqfY4hUpmn14J/Y2XLsKAXXCnOnACj+91fAuatIXgF8+EslcOUWjk8B8HWy+q6olfG1Ww8RExOF5uOZsXgAACAASURBVLpnWqHmrRrzmVkqq6rFL1ujofL0RqC/N47u24k3tU90Mpmzfhumjh2OVhOzkJrKizfKRMCSTbvhO1yGN5XFfDCe1QFDhrnixtkETRhbmbkqEstnB2qEDwtrbnmPhoYG7tfY2IAPH0WPTkIBQoPF7wnOvF9CRISQOMwe4x0QstSgQObzpCURIAJE4HMQcHihcTA2EQf79cNz1oT/8fH19ZsPWPHNtzj21f8Bj9Q3MF5o1M+eYJAz6+8eqFCg4Fy8wThsh7EbaVNzG4ofPkRJSUmXX2VFKefjJ6GRyfXafKhq5PIzJDSMOiNwpzGfiyoaMEiuwNjRXridfUHnRq5tvqTyFUYET4b7MDk2rV+JmzmZeuMay0vbXnxaLkRyZxRl6w66Tc8rx1CJBHK5DHK5XPOTSKSYGOAKtLdpzKz49YCmG0YqGYrqW5c1+7RXTLVoaMftzrqxsucX1sJJroBEIgEri1gs/rguwQRWrrZWCImjz78pS8L0Cl99cSmMCBABItCTBHqF0GBdIrVaXSB1r9uxkhcaFeo3OYQIDXWLhgcyE/cYrQOmZwy1aLCEHR0daG9v7/Lr+Pi0/anr5NP4B2ZT3XXyadyGUSfM3GnM5/rGdvy0JQoKN0+MC/DF8bhoNBhoPWFdDBlZeVi+LhxSlSsWh45DW/1LHW+M5cVHLKl6C7GHF+J3buCDNMtzuWUQyZxw8+IpTRcL39Xy5HGVJh5bKa9+ioKCAu538+YNtDTW6+znN3pKaBgr+7uWNpSVl6OsrAz7ky7Aw8MZT0uKuO3qKnVrnJA4fJn4JRM3gbOXY3fYj3wQLYkAESACdkPA4YUG33Vy2vkb4Fk1BzYp/hT29u8PbsBop64TYy0abIyB//QFJl9bZTeTSYs2YPW8sZpWFL5GhXSdaAaDBiZp0r+qAzL+1nUwKLNb8aQO586dQkc33nIx5jPv+5vGVhxJOY0xE6ZCIRdjw6pFuH/jKr+7y7KksgFDXd1w7ojufCKm8mJiJTBkCeZMHQm8b+5i98nLDxisGobEPWFd9lkaIERo9BRnVgYh3SJC4jBbTc2Ai7cvLhyjMRqWHh+UjggQAdsRcHihwZ7mNs9cwI3hSB06GCd9R2LfgAEGB4MaExoMM3vrxMdLBHR6Su9cBWF7kuCqcsbF1CRcyspGdqb6U/BCuk6YrfS97PXWZ8DaIuAMkMMGgrLXWyvVYonPr60d8J44ixsMGr+DvUJh+Z8hnztbZEIh91YxlqwJw7olUzViaM+RFJxMTsD9u7fx4EExDiWehZNcity0Q51NwFhe+09cgUjqhOy049zTPHvCZ793bz+96bNxVwKkMhfs2rIRudlXkJubj/jERLx5WtElL2MBzc1Ayz2g/RZw/u8AxqUDdz8Aj3VbPnqasxARISQOK/vJrEJIFEPQqDXOxRgT2kcEiAAR6EkCDi80GKyGplYkbvoNB6RyHP36K2T6eKAj5ajmBsniCOk6YfH4eTQObTN+U39Z34aZi1dDplTBy8MVcTs26uRnqhK5m/lW4PH/APgrm7CrGLj2aUAkn54JqWnLwiASi7vdNG6Jz6wbiP0xf7cfSIRfQDAkMhlkMgmCA/wQH/s7N7aA95dfGsqL2Rm/YK2ewbLOuHIilk/OjYOJSzmLwAk/QCpXQKWUY9qkINQ+vK2JI2Tl1nWgmM2f8YX2rwOYoTtxV09zrnr+BmfP/qF3jAtfLiFx3rUAvpNC8MuKGWYdf3wetCQCRIAI2JqAQwgNW0PobJ/NDCqWOeNGuu6cFp3j9dR2zp0aiFzlKM1N76ks+2Q+jsaZiaNlm/fAx0uKxpqyPllnVGgiQATsnwAJDT11xJ662bdO5AoRCjJS9MTomSDmx4Kft0GlkuJMQjQ9sdoIuyNy5kTGL7ugUolQnJNhIzJklggQASLQfQIkNAwwZBfyXYcT8KzEvKZ6A+YsDn5Q+giNJuatsNg4JdQQcETOsYmpKL+doykDrRABIkAE7JEACQ17rBXyiQgQASJABIhALyFAQqOXVCQVgwgQASJABIiAPRIgoWGPtUI+EQEiQASIABHoJQRIaPSSiqRiEAEiQASIABGwRwIOIzRKql5hcsgCyJUqiMUuOnMu2CNY8okIEAEiQASIABEAHEZozF2/HdPHj8DzinLU1b1Ea8s7qj8iQASIABEgAkTAzgk4hNBg8xyMnbsKMZsW2TlOco8IEAEiQASIABHQJuAQQoPNaRE8ZyViI5Zq+07rRIAIEAEiQASIgJ0TcBihETRnBfZFLLNznOQeESACRIAIEAEioE3AIYRGTW0LZD4jkZEQpe07rRMBIkAEiAARIAJ2TsDuhcayiFhIpDLMneoP0ABQOz+cyD0iQASIABEgAroE7F5o1NU3ICPrDlxUMpRcO6vrPW0RASJABIgAESACdk3A7oUGo8cGg46ZtRiHt66xa5jkHBEgAkSACBABIqBLwGGEBr11oltxtEUEiAARIAJEwBEIkNBwhFoiH4kAESACRIAIOCgBhxAa3IRd81ZjT/hCB8VMbhMBIkAEiAAR6JsEHEJosKpZGhGLyUFeeFb+kKYg75vHKpWaCBABIkAEHJCAwwiNmtomTJ2/FDL6qJoDHmbkMhEgAkSACPRVAg4jNPpqBVG5iQARIAJEgAg4MgESGo5ce+Q7ESACRIAIEAE7J0BCw84riNwjAkSACBABIuDIBEhoOEjtsUnL9hxNRG3ZPQfxmNwkApYR2J90EpX38i1LTKmIABGwOwIkNCyoEva67dkjyTjs44u4gd8hefAgXPAdDlyyzRTpLL9Vv+6Fq6sE97LSDHocGZsCTy8lqu9kG4xjbzt6wudLNx5B6emBU3Hb7KL49uaPOVBsXV/tHUDIqk1wGyZGaX6mOa5RXCJABOyUAAkNCyom7Uw2dvfvj6MDvsSVUf5ICwpGglIBZJ2xwJrpJHuTMiFTuODBVeNCJnTNbxCLnVCQfsy00U4xmJjJ3Qo8+V8A/9ECDC0Ccko6xbL+Znd8FurN4bRcOIvFiNowX2gSm8azpj/VJUD2PwDMS7Spz7zxnqiv963AzBVh8B0uRdPjcj5rWhIBIuCgBEhoWFBxURu2Iq5fP7xbFmpBavOSPH7RBpHncCRFh5tM2PCuFcXF9wGmGsz8y4gF6v+tFlhVhA9pQK4bgL9lA1U1ZloyL3p3fBaaE8Nxr+gB2pubhCaxaTxr+PP6BVC4Gqj+TwB/6Tmh0RP1xeDXNwIeQZMRuXqWRcezTSuQjBMBImAWARIaZuA6fuI89vfrh8N6fpeUg4G2Vs5aU3M7TmzZgYMKVxz95mtkfT8cSD2uc8F88KAcp1euQbyXNw4P/A6HvvwSyYO+Q/HM8UB7u8aryP2pGOkjARpea8K0V9gFeaBCBZFIpPn9viZEO4rJ9bY2ILk/gDGJGh/rXgIZ/wVgTbJOenaTXBkZDQ8PJe4b6cbRSdRpw1KfbxaW41LGnxprb5s6sDZiBzx9vodUKoWnhxtCpwcCjW+4OM9fAQPlSg2XLStnaNJqr4RHJ8NFix9jKZE4oTTnUwsVGyNzIPE0gif+ALlSiaDRvjiVsFfDS9ueoXWh/hhKrx1+Yh0AlxIgFUgz0qLR0/V16moxhns5Aa3vtd3VWRcShyVIyrgFqWIImqof6qSnDSJABByLAAkNM+orO/cOLoSGYp+rBw7164fLbkpcDg3FpdBQ3F+9kBMI7IYUGbKQ2//H4O+Q5uuHfQO+wtH+/wTi92pyi9uXhAO8YPmyH44NHIhDAwbg+Ywgzc2L9Vf7TZtvdOp1lt+jqipUVFSg/FEN/KfOg7lC48ljIOuvH4ADp3B+N9D+3/eBey9wzAOAq65Aam0DVGPGQyRysfhruub4zERb4skMjP1hFmRyMXaEL1V/zhfA2m1H4OejQnbGaRQXFSHvxk38kZoIdKiFGuNXUVWFRxWPMXr6jzAkNOrqGzh+jOH9oiq4jx6H6eN90PH2laa+folJgreXEuknElBUWIS9R/6ESCHDtdQ4TRxTK0L9MWWH7WcCgv0xkZjyT8MtGj1dX0JEhJA4rGyNzYCzlw8uHN+lLiz9JwJEwCEJkNCwoNq2r9vCCQmEL++S+mp+MbYNGICTQ74Cqh9x+/88cR7R/fsjUzEYeN/ChfFC4+nUAE1Ya1s72l5/urm1tAKD3NxxOSWmSz76AtgNPCBkmY7QyCt8jiFSmeapXrvlY+woBdcKc6cAKP73V8C5q0heAXz4SyVw5RaOTwHwdbL6bqaV4bVbDxETE4XmumdaoZat6vOZWSqrqsUvW6Oh8vRGoL83ju7biTe1T3QymbN+G6aOHY5W1o9g5I/lETxnlUGhwSdlN+8lm3bDd7gMbyqL+WA8qwOGDHPFjbMJmjC2MnNVJJbPDtQIHxbW3PIeDQ0N3K+xsQEfPooe7YRC/BFih9k0JTRYnJ6oL758QkSEkDjMnvrYWGpUaPP50pIIEAH7JUBCw4K6MSY0DsYm4mC/fnjOmvA/Pna+fvMBK775Fse++j/gkfoGxguN+tkTDHqg7mJQoOBcvME42jv03bSbmttQ/PAhSkpKuvwqK0o5Hz8JjUyu1+ZDVSNn1pDQ0M6zu+v6fC6qaMAguQJjR3vhdvYFnRu5dn4lla8wIngy3IfJsWn9StzMydQbV8iNndmNT8uFSO6MomzdQbfpeeUYKpFALpdBLpdrfhKJFBMDXIH2No1bK349oOmGkUqGovrWZc0+fkWIP0LsMHtChAafrzWW+uorv7AWTnIFJBIJGBOxWPxxXYIJjE9bK4TE0efflCVhJgWivnQURgSIgP0QIKFhQV2YEhqsS6RWqwuk7nU7VvJCo0L9JocQoaFu0fBAZuIeQV7quwmwhB0dHWhvb+/y6/j4tP2p6+TT+AemkdRdJ5/GbQhywsxI+nyub2zHT1uioHDzxLgAXxyPi0aDgdYT1jWQkZWH5evCIVW5YnHoOLTVv9TxgpXFVItGSdVbiD28EL9zg05atnEutwwimRNuXjyl6WJh3Szs9+RxlU788uqnKCgo4H43b95AS2O9zn62IcQfIXaYLXsQGu9a2lBWXo6ysjLsT7oADw9nPC0p4rarq9StekLidAbFjo3A2cuxO+zHzrtomwgQAQciQELDgsoyJjT4rpPTzt8Az6o560nxp7C3f39wA0Y7dZ0Ya9Fgffr+0xcIfi1T301bSNcJu1lxg0EDkzStMK/qgIy/dR0MygpU8aQO586dQocV3uLQ5zNfJW8aW3Ek5TTGTJgKhVyMDasW4f6Nq/zuLsuSygYMdXXDuSO682WwG/ukRRuwet5YTfm0EzOxEhiyBHOmjgTeN2vv4tafvPyAwaphSNwT1mWfJQGm/DHHphCh0VP1xfwW0i0iJA6z1dQMuHj74sIxGqNhzjFBcYmAvREgoWFBjRgTGuzGuXnmAm4MR+rQwTjpOxL7BgwwOBjUmNBgrrG3Tny8RECnp3R9buu7aQvpOmG20vey11ufAWuLgDNADhsIyl5vrVSLJT6/tnbAe+IsbjBo/A726kP3/vT53NkiuzHn3irGkjVhWLdkqkYs7DmSgpPJCbh/9zYePCjGocSzcJJLkZt2qLMJhO1JgqvKGRdTk3ApKxvZmac1cfafuAKR1AnZace5p3D2ZM5+795+etNn464ESGUu2LVlI3KzryA3Nx/xiYl487RCY8ecFWP+CLHT3Ay03APabwHn/w5gXDpw9wPwWLcFpafrS4iIEBKHMTiZVQiJYggatcbLCGFDcYgAEbAvAiQ0LKgPY0KDmWtoakXipt9wQCrH0a+/QqaPBzpSjmpukCyOkK4TFo+fR+PQNtM3dSE3bUPF5W7mW4HH/wPgr2zCrmLg2qcBkXw6lse0ZWEQicVWadI212fWDcT+mL/bDyTCLyAYEpkMMpkEwQF+iI/9nRsTwPvLL1/Wt2Hm4tWQKVXw8nBF3I6NnBFmZ/yCtXoGyzrjyolYPjk3MDEu5SwCJ/wAqVwBlVKOaZOCUPvwtiaOOSuG/BFq49Z1oJjNn/GF9q8DmKE7cVdP11fV8zc4e/YPvWNl+LIJifOuBfCdFIJfVszQOW94G7QkAkTAcQiQ0HCAumIzg4plzriRrjunRWfXWVfLiMmzER2+qPMuq27n3KmByFWO0tz0btvtKZ+77agDG3C0+mLiaNnmPfDxkqKxpsyByZPrRIAIMAIkNBzgOGBP3exbJ3KFCAUZKToep2bmISk+DrnXchC17zicZWIUpB/XiWOtDebHgp+3QaWS4kxCtMVPmj3ps7XK7oh2HLG+OJHxyy6oVCIU52Q4InbymQgQgU4ESGh0AmKvm+wCvOtwAp6V6DbVxyaeg39AMGQKBfx8vXA0ZovRZuvulu9B6SM0mpi3wlQePe2zKX96835HrK/YxFSU387pzdVCZSMCfYoACY0+Vd1UWCJABIgAESACPUuAhEbP8qbciAARIAJEgAj0KQIkNPpUdVNhiQARIAJEgAj0LAESGj3Lm3IjAkSACBABItCnCJDQsLC6S6peYXLIAsiVKojFLjpzLlhokpIRASJABIgAEeh1BEhoWFilc9dvx/TxI/C8ohx1dS/R2vLOQkuUjAgQASJABIhA7yVAQsOCumXzE4yduwoxm2w7MZYFrlESIkAEiAARIAJ2RYCEhgXVwea0CJ6zErERSy1ITUmIABEgAkSACPQdAiQ0LKhrJjSC5qzAvohlFqSmJESACBABIkAE+g4BEhoW1HVNbQtkPiORkRBlQWpKQgSIABEgAkSg7xAgoWFmXS+LiIVEKsPcqf4ADQA1kx5FJwJEgAgQgb5GgISGmTVeV9+AjKw7cFHJUHLtrJmpKToRIAJEgAgQgb5FgISGBfXNxmiMmbUYh7eusSA1JSECRIAIEAEi0HcIkNCwoK7prRMLoFESIkAEiAAR6JMESGhYUO0kNCyARkmIABEgAkSgTxIgoWFBtXMTds1bjT3hCy1ITUmIABEgAkSACPQdAiQ0LKzrpRGxmBzkhWflD2kKcgsZUjIiQASIABHo/QRIaFhYxzW1TZg6fylk9FE1CwlSMiJABIgAEegLBEho9IVapjISASJABIgAEfhMBEhofCbwlC0RIAJEgAgQgb5AgIRGX6hlKiMRIAJEgAgQgc9EgITGZwJvz9my13f3HE1Ebdk9u3DT3vyxCygCndifdBKV9/IFxu5etJ7Mq3ueUmoiQAR6kgAJjZ6kbaO8kuNSsH/wIDSFrwLYu7d6/ljw2SPJOOzji7iB3yF58CBc8B0OXNKdRp3FW/XrXri6SnAvK02PJWFBl/KLMH7qLChdh8HLYxjmzJqC2rK7whJrxbKWP1omu70aGZsCTy8lqu9kd8uWtewYcqK9AwhZtQluw8Qozc80FM0q4T2Zl1UcJiNEgAj0GAESGj2G2jYZsRtx+LT5ONSvH3I8REBbq96M0s5kY3f//jg64EtcGeWPtKBgJCgVQNYZnfh7kzIhU7jgwVVdAaITycTGy3rA2dMbaxfNwK3reSi4eQunzqSh+XWtiZRdd5vyh5V/yuKfoVDIcT5hZ1cDNggJXfMbxGInFKQf65Z1a9ipLgGy/wFgXqJeX963AjNXhMF3uBRNj8v1xjEVyBjnbgWe/C+A/2gBhhYBOSVdklkjry5GKYAIEAGHJ0BCw+GrECgprsTl8I1AXpbB0kRt2Iq4fv3wblmowTiPX7RB5DkcSdHhBuMI2XH9wQs4yV3w5G73nviF+FP+pAVKbxkOHUrFrMkjgI52IS52K07Du1YUF9832Hok1Hh37Lx+ARSuBqr/E8BfDAsN5kt9I+ARNBmRq2dZ5HNGLFD/b7XAqiJ8SANy3QD8LRuoqulS1O7m1cUgBRABIuDwBEhoOHAVHj9xHvv79cPhj7+kb/8/4H2LTok6x+HjsuUl5WCdFpDI/akY6SMBGl7r2NDeyLr+ACELlsLV3RNyuQz+3/vgbMIeLkprGyDzC4RIJOr0c0H60e1cHPZ0HBl9BIFjJ8DVzR1yuRTTJgXi9pWuLShC/GFxflkxA3WvAGd3BWoLbTMegd1ABypUOuX6fU2INhpB6+bYOXW1GMO9nIDW911sn1gHwKUESAXSjLRo8AmTMm5BqhiCpuqHfBDY2JcjScdR97hCE9Z5pa0NSO4PYEyiRqTUvQQy/gvAmuTO0bltfXnpjUiBRIAI9AkCJDQcuJqzc+/gQmgo0qZMR3T//tAnNPg4+1w9uO6Vy25KXA4NxaXQUNxfvRBoV7cAsD52v2nzjU6rfuLCbTjLpFi9aBYunjuNGzdu4Ez6BZTdv66hWFnzGKnnb8BZ7owb51NRUVHB/ZreqsULu7kFhCzD/KkByLuWjavZ+Zi5aC2GqYaiqbpUY0eIP23tgPfE6VwXBhMwkxf9jGM7f9bYsOYK8/tRVRVXlvJHNfCfOg+WCA1z7BgTGqy87I8JgZR/Gm/RYPEamwFnLx9cOL5LnRDAm0YgeNZ8SKQirFo0GwXZF7q0CD15DGT99QNw4BTO7wba//s+cO8FjnkAcD2uER8aowby0t5P60SACPQtAiQ0ekF9l1W+wsavvtYrNPjibV+3hRMaCF/OB+ksW1qBQW7uuJwSoxPOb7D+d9XocVizYEKXmxEfh1/mFT7nhMbzwjw+SLPkhcaWlTM0YdW17fiXXI6rf8Rqwkz5wyLeLKmDwt0ZqH/BpYtJvoxJwe46rTQag1Zc4ctgidDQdsOUHWNCg7cjVGio81qqV0gWlj1G2K9RUHl6I3i0DxIPxeAd65sBcKcAKP73V8C5q0heAXz4SyVw5RaOTwHwdbJa6fDOfFway6tTVNokAkSgDxAgodELKtkaQkPdpK9Awbl4vURKa5oxSC5DzsmDevdrB5orNJiIcfIagbSDv2nMmPKHRQyPSca6HydqnqpLq99hqNIFL4sLNHZssWJKIAjNU5+d/MJaOMkVkEgkkEikEIvFH9clmBDg2kVECRUazKcpS8KgLfA6+9nU3I4jJzIgdfPCmO8lXJfNJ6GRyTV+fahq5JIZExpC8uqcN20TASLQewmQ0OgFdVtW9Robv/5G3aLR0qy3RMJaNDyQmageb9HZSNnjFvxLLkNuWlznXV22LREaLj4jcfLAFo0tdYuGYX9Y18qIybMhlUggl8s//hQQiUU6djQGrbiiTyBYYl6fnXctbSgrL0dZWRn2J12Ah4cznpYUcdvVVY+6ZCNUaLC8Amcvx+6wH7vYYAElFU/xy9Y9cPUagTEjvZAUtxNsEMenrpM/NelYt4266+TTuA3NTnDJjOalHZfWiQAR6P0ESGj0gjp+UdeKVd98i2Nf/R9QoX7t8H2L7qBQU0KD3bj9py9A1Ib5eomwVgeFfzB+XjzF6l0nzHZnoWHKH3XrhTMKsy9qxoFUVFRicdhOLJwxSn2301uS7gfqEwiWWDVlx5pdJ03NgIu3Ly4c+zRGgw3e/fPcZfwQ+iPEUjGWzpuB3MwzOq0mTMhwg0EDkzQtR6/qgIy/GR4Mqi8vS/hQGiJABHoHARIavaAe2XjOn0aN48ZgpImccGqkP04Pc9Z5W8GU0GAY2BscPl4ioP6lXirxp/PgJBFj1cJZuJRxlhsMmnn5KnIu674xYo0WDVP+xKRcxkgfEdCqK6gSz9+GQjkIHbW6r17m3K2Bq88IhK8M6bYIMSUQhOZlyo4xodHcDLTcA9pvAef/DmBcOnD3A/C4Xm/dncwqhEQxBI2VxZr9bICoz9hg7Nm6Cc8rPw3E1UT4uJK+l73e+gxYWwScAXLYQFD2emtldeeo3La+vPRGpEAiQAT6BAESGr2kmouKK7EvaAIOfP01/hg6GIXzZwDNTZrSCREa/LwVh7axdyf1/13MuYsZcxdB5ebOjR0YOcILh3aGa552WSprCQ1D/rCm+x+WhuGnhZ/GZ/Deqrt4pMg/fYQP4pZRCRkQicVQygcCb+p09pm7YUogCM3LlJ2q529w9uwfeoXRretAMZs/4wvtXwcwo+vEXe9aAN9JIdxrwJ1njv3Av75iBAKLwibsevw/AP7KJuwqBq59EizaSY3lpR2P1okAEeg7BEho9J26FlRSNhOnWOaMG+n650gQZMSKkazlz5vGDkyYtxITA4bpdA1Y4io/PiQ6fJHe5ELzMmVHr3EzA5mYWbZ5D3y8pGisKTMztXnRezIv8zyj2ESACHxOAiQ0Pid9O8ybPb2yb53IFSIUZKR8dg+t4U9pdR3Cft0FpZsC97NOW1Sm1Mw8JMXHIfdaDqL2HYezTIyC9ONdbJnKS6idLoYtCOBu/L/sgkolQnFOhgUWhCfpybyEe0UxiQARsAcCJDTsoRbszAd209h1OAHPSm7bhWfd9aeg+CnCw9ejquiWxeWJTTwH/4BgyBQK+Pl64WjMFr1dGqbyEmrHYkc7JYxNTEX57ZxOobbZ7Mm8bFMCskoEiIAtCJDQsAVVskkEiAARIAJEgAhwBEho0IFABIgAESACRIAI2IwACQ2boSXDRIAIEAEiQASIAAkNOgZ6BQE2jmPP0UTUlt3rFeWxViH2J51E5T3bfNHWWj6SHSJABHo3ARIavbt+7bp0l/KLMH7qLChdh8HLYxjmzJqC2rK7ZvvMv5ni6irBvaw0s9ObmyAyNgWeXkpU38k2N6lOfGvZ0TGqtcFenw1ZtQluw8Qozc/U2kOrRIAIEIGeI0BCo+dYU05aBF7WA86e3li7aAZuXc9Dwc1bOHUmDc2va7ViCVtlc23IFC54cFV3hlI+NRMiUxb/DIVCjvMJO/lgi5eha36DWOzEfZ7eYiMArGGnugTI/ofhz8Sz6d1nrgiD73Apmh6Xd8ddSksEiAARsIgACQ2LsFGi7hK4/uAFnOQueHK3e60C/OyhSdHhBl0qf9ICpbcMhw6lYtbkESa/1WLQ0McdDe9aUVx8X2c2VFNp9O3vjh32FffC1UD16dzLQwAAC85JREFUfwJgM4TO6zojKJ8n+xKuR9BkRK6e1W2feZu0JAJEgAgIJUBCQygpiieIwNumDqyN2AFPn+8hlUrh6eGG0OmBQOMbLj37kJfMLxAikajTzwXpR7dzcVgLRGT0EQSOnQBXN3fI5VJMmxSI21e6tliw77OM9JEADa8N+sfi/LJiBupeAc7uCtQWmj9mQf3ZepWOz7+vCTGYp6Ed5tgx9q2TE2yWeJcSIBVIM9KiwfuRlHELUsUQNFU/5IM0S8Z7ZWQ0PDyUuN8DXU+ajGmFCBCBPkGAhEafqOaeK+TabUfg56NCdsZpFBcVIe/GTfyRmqjTilBZ8xip52/AWe6MG+dTNV9fbXqrFgtsYGdAyDLMnxqAvGvZuJqdj5mL1mKYaiiaqj99/IuNQfCbNh97whcaLGBbO+A9cTrXzcFuqJMX/YxjO382GN/QDubTo6oqztfyRzXwnzoPlggNc+wYExqsLOxP6Gfi2QfUnL18cOH4p6+38mVl4k81ZjxEIhcc3rqGD6YlESACRMAqBEhoWAUjGeEJzFm/DVPHDkcra9s38mfuh9eqa9vxL7kcV/+I1VhtaQUGubnjckqMJqzzys2SOijcnYF6tT8xyZcxKdi9W9874YWQJUJD2z9TdowJDd6OUKGhzmupQVF27dZDxMREobnuGW+alkSACBABqxAgoWEVjGSEJ1BS+QojgifDfZgcm9avxM2cTL1TdZsrNNigRievEUg7+BufFdTdEAoUnIvXhHVeCY9JxrofP33ltbT6HYYqXfCyuKBzVMHbpgSCUEP67OQX1sJJruC+jCuRSCEWiz+uSzAhwLWLQBIqNJhPU5aEYcvKGULdo3hEgAgQAasQIKFhFYxkRJsAa4rPyMrD8nXhkKpcsTh0HNrqX2pHscqn5NUtGh7ITNyjY5vf4L+OKpVIIJfLP/4UEIlFOHlgCx/N7KU+gWC2Eaj1F+si0m4ZedfShrLycpSVlWF/0gV4eDjjaUkRt11d9ahLNkKFBvM5cPZy7A77sYsNCiACRIAI2JIACQ1b0iXbKKlswFBXN5w7sk2HhiUtGi4+I3UEAhMS/tMXIGrDfB3b/Ia69cIZhdkXNeNAKioqsThsJxbOGKW3pYVPa2xpS6Ghna81u06amgEXb19cONZ1jAbLs+JJHc6dO4WO5iZtF2idCBABItBtAiQ0uo2QDGgT2HMkBSeTE3D/7m08eFCMQ4ln4SSXIjftkHY0q7RoMIPsjRIfLxHQqcWE7YtJuYyRPiKgtUUn78Tzt6FQDkJHbY1OeM7dGrj6jED4yhCjIsSU0LCWHWNCo7kZaLkHtN8Czv8dwLh04O4H4HG9Tpn4jZNZhZAohqCxspgP0izVA2ZncYNB43ew11nojwgQASJgPQIkNKzHss9bYm9CbD+QCL+AYEhkMshkEgQH+CE+9vcuYwus0aLBgPPzaBzapnuDZL78sDQMPy38ND6Dr6Cyxy34l1yK/NNH+CBuGZWQAZFYDKV8IPCmTmef9oYpoWEtO1XP3+Ds2T/0ip5b14FiNn/GF9q/DmBG1/k03rUAvpNCuFd8wb+uolUgVp5py8K4slPXihYYWiUCRMAqBEhoWAUjGfmcBNjMoGKZM26kJ3fLjTeNHZgwbyUmBgzrIoy0DfNjP6LDF2kHa9atZUdjsBsrTEQs27wHPl5SNNaUGbSUc6cGIlc5SnPTDcahHUSACBABSwiQ0LCEGqWxKwLsIX3Vr3shV4hQkJFikW+l1XUI+3UXlG4K3M863cVGamYekuLjkHstB1H7jsNZJkZB+vEu8axlp4thCwI4kfHLLqhUIhTnZOi1wNgt+HkbVCopziRE08yheilRIBEgAt0hQEKjO/Qord0QYDfVXYcT8KzktkU+FRQ/RXj4elQV3dKbPjbxHPwDgiFTKODn64WjMVv0dmlYy45eJywIjE1MRfntHKMpH5Q+QqOJeU+MGqCdRIAIEAEjBEhoGIFDu4gAESACRIAIEIHuESCh0T1+lJoIEAEiQASIABEwQoCEhhE4tIsIEAEiQASIABHoHgESGt3jR6mJABEgAkSACBABIwRIaBiB03kXG6E/fsFaiMUieHu5ISpiNdD6vnM02iYCRIAIEAEiQAQ+EiChYeahUP+2AXV1r5CedQ9D5RIUZqWaaYGiEwEiQASIABHoOwRIaFhY1+xroiKfkbiUHG2hBUpGBIgAESACRKD3EyChYWEdM6Eh9vXHpSQSGhYipGREgAgQASLQBwiQ0LCwktmn0KXfjzb4iXILzVIyIkAEiAARIAK9igAJDQurk81EGTRnOTavnAW0t1lohZIRASJABIgAEejdBEhodKN+b5e8hIurO1xVUpTmnu2GJUpKBIgAESACRKB3EiChYWG9sldd52/YgZDJfqgpLUZbyzsLLVEyIkAEiAARIAK9lwAJDQvrlo3RUI4ei/T4HRZaoGREgAgQASJABHo/ARIaFtYxvXViIThKRgSIABEgAn2KAAkNC6ubhIaF4CgZESACRIAI9CkCJDQsrG4mNJy9fZGVstdCC5SMCBABIkAEiEDvJ0BCw8w65qcgP515G05yER7lnzfTAkUnAkSACBABItB3CJDQMKOutT+q5uPlhoNR4UBHuxkWKCoRIAJEgAgQgb5FgIRG36pvKi0RIAJEgAgQgR4lQEKjR3FTZkSACBABIkAE+hYBEhp9q76ptESACBABIkAEepQACY0exU2ZEQEiQASIABHoWwTsWmhoD7709nJDVMRqoPV936ohKi0RIAJEgAgQAQcmYNdCg3HlXydNz7qHoXIJCrNSHRg3uU4EiAARIAJEoG8RsHuhwVcHmyBL5DMSl5Kj+SBaEgEiQASIABEgAnZOwKGEhtjXH5eSSGjY+TFF7hEBIkAEiAAR0BBwGKHBvpYq/X40MhP3aJynFSJABIgAESACRMC+CTiM0OjoAILmLMfmlbOA9jb7pkreEQEiQASIABEgAhwBhxEazNvbJS/h4uoOV5UUpblnqQqJABEgAkSACBABOyfgMEKDveo6f8MOhEz2Q01pMdpa3tk5WnKPCBABIkAEiAARcBihwcZoKEePRXr8Dqo1IkAEiAARIAJEwEEIOIzQYK+30lsnDnJUkZtEgAgQASJABD4SIKFBhwIRIAJEgAgQASJgMwIOJTScvX2RlbLXZjDIMBEgAkSACBABImBdAnYvNPgpyE9n3oaTXIRH+eetS4CsEQEiQASIABEgAjYjYNdCQ/ujaj5ebjgYFQ50tNsMBhkmAkSACBABIkAErEvAroWGdYtK1ogAESACRIAIEIGeJkBCo6eJU35EgAgQASJABPoQARIafaiyqahEgAgQASJABHqaAAmNniZO+REBIkAEiAAR6EMEdISG9uBLby83REWsBlrf9yEcVFQiQASIABEgAkTAmgR0hAYzzL9Omp51D0PlEhRmpVozP7JFBIgAESACRIAI9CECXYQGX3Y25bfIZyQuJUfzQbQkAkSACBABIkAEiIBZBIwKDfq2iFksKTIRIAJEgAgQASLQiYBBocG+lir9fjQyE/d0SkKbRIAIEAEiQASIABEQRsCg0OjoAILmLMfmlbOA9jZh1igWESACRIAIEAEiQAS0CBgUGizO7ZKXcHF1h6tKitLcs1rJaJUIEAEiQASIABEgAqYJGBQa7FXX+Rt2IGSyH2pKi9HW8s60NYpBBIgAESACRIAIEAEtAgaFBhujoRw9FunxO7Si0yoRIAJEgAgQASJABIQTMCg02Out9NaJcJAUkwgQASJABIgAEehKgIRGVyYUQgSIABEgAkSACFiJgFGh4ezti6yUvVbKiswQASJABIgAESACfY1AF6HBT0F+OvM2nOQiPMo/39eYUHmJABEgAkSACBABKxHQERraH1Xz8XLDwahwoKPdSlmRGSJABIgAESACRKCvEdARGn2t8FReIkAEiAARIAJEwLYESGjYli9ZJwJEgAgQASLQpwmQ0OjT1U+FJwJEgAgQASJgWwIkNGzLl6wTASJABIgAEejTBP5/rMT+MxA3Sz0AAAAASUVORK5CYII=;" vertex="1" parent="mZmqrbNJux5fh9DZsMJL-1">
          <mxGeometry x="26.996687011718734" y="429" width="538" height="220" as="geometry" />
        </mxCell>
        <mxCell id="mZmqrbNJux5fh9DZsMJL-6" value="&lt;p&gt;&lt;b&gt;&lt;font style=&quot;font-size: 17px&quot; color=&quot;#0000ff&quot;&gt;1. 사용자가 메뉴 5번을 눌러 sort함수가 실행이 된다.&amp;nbsp;&lt;/font&gt;&lt;/b&gt;&lt;/p&gt;" style="text;html=1;strokeColor=none;fillColor=none;align=center;verticalAlign=middle;whiteSpace=wrap;rounded=0;" vertex="1" parent="mZmqrbNJux5fh9DZsMJL-1">
          <mxGeometry x="24" y="195" width="434" height="20" as="geometry" />
        </mxCell>
        <mxCell id="mZmqrbNJux5fh9DZsMJL-10" value="" style="endArrow=classic;startArrow=classic;html=1;" edge="1" parent="mZmqrbNJux5fh9DZsMJL-1">
          <mxGeometry width="50" height="50" relative="1" as="geometry">
            <mxPoint x="394" y="428" as="sourcePoint" />
            <mxPoint x="427" y="343" as="targetPoint" />
          </mxGeometry>
        </mxCell>
        <mxCell id="mZmqrbNJux5fh9DZsMJL-11" value="&lt;p&gt;&lt;b&gt;&lt;font style=&quot;font-size: 17px&quot; color=&quot;#0000ff&quot;&gt;2. sort() 함수 안 sortPhoneBook이 실행이 되는이 되는데, sortPhoneBook함수의 매개변수 cmp cfn은 contactCmp를 가르키고 있는 함수 포인터이므로 contactCmpr가 동작한다. (swap sfn도 동작이 비슷하다)&amp;nbsp;&lt;/font&gt;&lt;/b&gt;&lt;/p&gt;" style="text;html=1;strokeColor=none;fillColor=none;align=center;verticalAlign=middle;whiteSpace=wrap;rounded=0;" vertex="1" parent="mZmqrbNJux5fh9DZsMJL-1">
          <mxGeometry x="534" y="379" width="467" height="20" as="geometry" />
        </mxCell>
        <mxCell id="mZmqrbNJux5fh9DZsMJL-12" value="" style="endArrow=classic;startArrow=classic;html=1;" edge="1" parent="mZmqrbNJux5fh9DZsMJL-1">
          <mxGeometry width="50" height="50" relative="1" as="geometry">
            <mxPoint x="489" y="426" as="sourcePoint" />
            <mxPoint x="522" y="341" as="targetPoint" />
          </mxGeometry>
        </mxCell>
      </root>
    </mxGraphModel>
  </diagram>
  <diagram id="7v-juPXEupdLKTBlQPt8" name="Page-3">
    <mxGraphModel dx="1117" dy="1451" grid="0" gridSize="10" guides="1" tooltips="1" connect="1" arrows="1" fold="1" page="1" pageScale="1" pageWidth="1169" pageHeight="827" math="0" shadow="0">
      <root>
        <mxCell id="4hywxqXHTysx60cE06LW-0" />
        <mxCell id="4hywxqXHTysx60cE06LW-1" parent="4hywxqXHTysx60cE06LW-0" />
        <mxCell id="4hywxqXHTysx60cE06LW-2" value="" style="shape=image;verticalLabelPosition=bottom;labelBackgroundColor=#ffffff;verticalAlign=top;aspect=fixed;imageAspect=0;image=data:image/png,iVBORw0KGgoAAAANSUhEUgAAAsoAAAHmCAYAAABqEKiQAAAgAElEQVR4AezdCVRUd6Lv+16vO52c0/e8e89Zp2/fd989557V69x71stw8l7Oud2nu0lRGxAEDM6I85AYsU00McGkM92j3WknEEVxxCEaUSJREpxnRREEFMUBBxTEWXEEh4Kq71sFVVCFBWyEoOAva1UKrP/+D5//rs2PzX/v+lHRyULu3L6lhwy0D2gfaPf7gPN4pmOajuf6maZ94GnYB5zHov1Ze6kov8vdO7f1aKcGPzp98ni7/+H4NLwh1AcdmLUPPPl9wHk80zHtyc+D3guaA+0Dt6qPRdmZGVRUlCtnteMTUT9yTqIeMtA+oH1A+4D2Ae0D2ge0D2gf0D7gvQ/8CP0nAQlIQAISkIAEJCABCTwioKD8CIn+QQISkIAEJCABCUhAAqCgrL1AAhKQgAQkIAEJSEACPgQUlH2gPPF/cpRzLH020749QuUT74w6IIF2LmAvYefCBJKzb+Fo50Npk+7r+NMmzGpEAhJoHwIKyk/jPNkvs2qUQcBn23jwNPavhX2qyEtkSNgbjFx2omW/CNy/xJHMTApvPnvxR4bN2AltO/g8wGDUN5ewm9zMcSOdsYYffn41jxa/F9vTvtqOjz+t9r4wuZ+0u2LtaT9sd7jqcEcV8A7KtvNkzP+UYT1CCAgIocewT5m/+zw21+gdd3YyqW8XOhkWXrf4ExjanUGjvyQ595r3DyD7OZa/ba39IVP9w8YSzsQsd02A7QK753/CWz1DCbAaBEdE8fbHs9l92eyPso46JUA7/kHV9Kw4KFs/juDXLXT5ci/3m96gwRJVx2bT1+jL7GNVDZbpmC/IsFnz+hhBGfsdLp0toqgojwVvW1v8S2u72ldb/fjj4F5pJinTP+X3/bsTGjqWNdfcv9zeZeNHAViHLOK069BvL17Km1aD978ra+ZfAFrvfdGs/asdFW5X+2E7clVXO7ZAXVB23GbflEiMLqOYtT6HgoJs0uNHEGb0ZnLm7eoDVs1ZFoPRy45QVHSCguwNzHuvG/6dxrD6omfAtXHrwhmKipw/aIo4vSeBQYZnUK7iRNIgjE6D+VPKLg4ePUZ+5gaWz04l/17HBjc1ulb/QWWq1bYr5CjnQuFJrrQkJQPP9EFfhub318cJyu7a7VdZPbrlf91pV/tqqx5/HlK8bjz9uvTlw/jlrM/Io+DEOW64z5nYi1g8NAgjaBhLzjh/htgp+Xo4QUYg/ecdp9m/ArfS+8I9/R3tuV3thx0NX+NptwK1Qdl+MYVRAcF8mH617uyw/Qpp73ci4PcpXLBDTVAO4ONNFbUDtp9ZwlCvEFz7Uu0X9uJlDPcsY7/Kt6MNAj/d2qIzirUNNPGFo+Ik6bFjGBARjOFvEBTalagRs8gq99jQfouC1Cm8P6QnnQMDCYscyZ9SDnPLfeID5/h3MHlID8KCrFisQUT0H0PsulPc8yxz5whpCeN5b1gU3cOd7VkJDOnO2FUlda7YuJqbwuSxg+nROQCrEURo90F8lHKy5geD6weVJbw3URGdMIxgug3+mAWZV5r/g6PqKtlL/zfDezn/StCZXiPGs3T/1ebV47hF9rwPeDMqghDDH2tgOFGjvmTFgTKPMYGjibGb+nO2s60F44ge0JMuIU6bYLoP/Zj5ey7VLdOoPEh8T4v3Xyyq/0Ruocuk7Nq/gHjMbsNftoaPc99oYuzVHTCxj1F1lf1LxzOit/MvLdbqv9r0j/6IJNf6WlOGzv40tc+bNTTRZ1Njb3gG6l5ppbngfjGbE8bSv0sgRmA4fUcNp5d/vaUXJsZVM2dNBOWm6mlF5zqoRr5qDcMmjz829k0MJ2BsOjc8jn3Vvbq/lU+D3mBydk0SfnBkLoO7juWbogZ+K7ZlM7n7cD4e15vhS4ux20tJHtmHj/4wnPAJGbXv5aaOvabeF2aOLY3Qer3UGs5m3qfORk201eR70Ox+6DXIBr4x0Z8GttQ/S6BdCriCsoM7mz4myBjNt1c9zwzbufrtuxiBH7HhtqNeULZz//pJtsYNJSRyMpm36x8x6zweCco8IG9aL6zd/sB3xQ0cQOs2b+FXlRTM7IM1YixJW/M4VnicgrwMNqRncb52qPc5mjSMTuHRxKdlUnDsELuTPyMqIIyY9Mt1YbCylLztmRw8Ukih84x77JsEW/uSWOA+PQI1Yw1ieGwa2zPzyD+UT27mdnJK3GXsXNs+gV7WQCJjEkndnMH+vBz2blnD5qN3a/7U6PpBZR0yhfSMbPKyt7Dko55Yg8ew+lJtp024lHMgYQABnQbz5Tc72b9/BysnDCLI6E/CAc/fEpqoytUfY0Qiu3IPcmDfRhZ93IeAwEEkevwJoMmx28u5eq6Y4uJ8kkY0cJbOPfbhCWzdl0tu5iYWxfTAP2gU35S6x/6AG+dLKNo2iV5GLyZtK6K42FlvCaVl95vx59pW8nGeB6v+ZbCxeTezj1WQP2sgAUED+PfkbWQfOED2tgSGWz1CnhlDzOzzZgzN9NnM2JvYv6pfbqW5cNwi48ueWDu/xeTUXWRnbiV11hi6WzwMMTeu6m41ekbZTD2t59y0YisZut+DDR5/qjiZNIjAN7/irPMt+fAmF8+XVZ/0sF/6hlFBQ1lc5Dyzcoetn4di9HqT6AHdCQ8JpdvA94lLP0m5+8dF+UY+DhlNytYZ9IteTnFpCqP6z2BrymiCx6ZTe/lBU8deM+8L97gaPbY0rQyt5GzqfWquraaPP2b2w7Ycu5m2VEYCT4eAKyjX/LnLCJlAhjvPufpny/gjIcZbLC22u4Ly67xusWCxvM7rfn68HjSIuD311ijXG1vNm9hz6QU4ygv5dvwgOgd1Zfj/nkd63iWvs8vVfyLyr7uYxn1RjfPZ0juBw6ZvB/GAjAmdsQ6IJ+emO2h5d9BRto6Y4DA+3XTTI2SVs+3zEIx3U7niezO4v5sJnQ2iV56vDdO+xurVmu0QCZH+dB6bRoOZ13VA97yAyH4llXeNAD5c69lHr5of+cZx7XvGBhkMX1Zcdwa56ixLhxsEfZDOdfcPq0e2rPcPPvqD7RSLhhp0illLmaueJsfurrax8OGjLfvV1Yw2DMbWW7PY0j8jtppPbVD23sfdw3U+m9nHHGVrielkMHTx6bqz5w0tG2jMkKb3eXffGjM002dnPabn3d2oj+fWmgv75VRGBwQwKuVC7XuSeoZmx1XdzUacm1NPazj7YPP6p9Yy9HWNhPfxx8Gt9TEEdosl1+bg1saP6RTwLqmX7VQWzCKq08dscv4ebtvPlAgrvT9eytbcY5w6VcDOhe8T4d+VCbtq7kBiP7+C6E5j+e5KAYkDo5kWP4oBsw5zNf0DOg1fRnEzjr1NzZfPcTVwbPGCrfdNqzmbeJ+abcvse7Cx/bDeMH1+a7Y/PjfWP0qgnQrUBeVlw2k4KA9nWW1QNhj99VGKik5xLH8v6bPH0C2oN3/a0XBYbvhNbKe8NIf0eV8wNDyI7u8vId99Zvr+dYpPneTkyUcfp4qvcd9syHMer0vW88f+nbAER/LOhHmsySqh3OMAbNs/hQiLBX/DwPB8WF7HPyqRo66FcvYb+Xwz+X2G9I4gtHMXevbtTbhhZdhXZ2t/KDc81po9pPoHg2Hw4dpGblXlIyxiy+TP4QZvOf88aXJns2VPJsIaReIRz98qKjmSGIW161Ry6v1S1GC1vvqDux7nD0vX2OovsWmowkbCh68fZtiymOhj7C096Leaj4mwaGYfqy5jjWRmgcd81Qt5taSNGZrY5931NGZops/Oepra591tNfbcWnNhy55EF+c+737TOhutZ2h2XNX9bcS5OfW0hnNjftXD/CHf7/WOP5UH4+kZGMO6W7fZ+nkYhrUTH6Rfp3zrpwRHJeLchR231xPj/AX3+xt1JyDsxSwbbhD82VacWbrq2Fz6B8Ww/raN4/MGYBj9SDxio3zjRwT1m4P7Ol0zx96m5qs5x5bGrFtrX62es6Z+NpmcU7Pvwcb2w8bG7H6tNcfurlPPEnjaBeqWXmxsaOnF6AaWXriG5rjFho+CGj3zaj+7lDeNLkzyvOtFPZnKSxv4NMJKVKL73sF27PYqqqoefdjtZqOiRyOVNzmV8S1zxo+kR5CViHcWctC1ALnmzd+HKTvOuP6E7/wzfs2j5MKNmlu02S+yekwIRu8/sHT7QU4UneZ4XjIxYUbzgvKFFEYaBjHray6Q9Ohh3Ze+gqlzLV+Ed1t1G/j+yjmuNxoMyrEtDMpVHJ3dF2vEVPY3Nyg7rrGmoQukmjH2qmNz6NeCu160mo+JsGhmH7NlTSTc2o857nTgnNZ6Ia92phszdBdqZJ93F2nM0EyfnfWY/SHtbtPXc2vNRU2fo5jVyC8bZsdV3c/GgnJ1iGniuOEabGs4+3Lz/LfWMvQdKL2PP45raxgTNIj5uZv4rNtYkhaMJjzme/IWD6NTzLqaazsqNvOHACvDl3len3GPzX8IwHin5i91ttxYugb9gc0V4Lh7kZMnL3DHAfe3fkpQt1jynMcWk8feaovG3hfNOLZ4utb/utWc3RU38j4125bZ92Bj+6G7O409m+1PY3XoNQm0NwFXUAb7hRR+HxDi+2K+kSur1/P6upgPx03WxQRhjF5D7R1/6inc3zeRCGs/5noGgHplcB7gxhgEfLwJ56WC1b/5tsrSi/oNwcOSFEZ3MohOLq0+O+u4ns4HQQaD5x9v+L7FtgwmhFgZtuRM3RldWx6x3bzDa5MHLFs+03v5EzZuLQ3eCa9ZB3Q7ZflrSEpaTX6Z9y8QrfZnMl/9sZeyItogcMwa3Mvamxy7eyocd1gfY2C8l/bo8g9fbTXwS0LV6UUMMboy1Z3U3fV7PbeBj4mwaGYfq/lrQwDvpHrc77fBoNyIodf4a76pv8+7izRmaKbPznpMzzs//Fy4+zx00anaC8Hq/7LhLtPo+90N5LhJ+gcGxgce62VdrzWnntZwrmn2hzc0E5SpdB7HQhg9bjTd/rCRsmvpxHQZxQfvdKbfnGM1S72qTrBgoNVreRaVhcwbYKXLnzOrj7UPd/5vggI/Z8dDN3jNs8357+6lgCaPvdVbttKxxXn3jR/8uOo95Orv6r9PzR7Dzb4HG9sP67rzZMZe176+ksDTJVAblHHcInNSr+rbwyVuzOXokWzWOm8PZ+3FxD01ywRqgrLB6OWFlJYWc/poNumz3iHCP5QPvnP9cLdfZVPcF8xak0H+sWPkZ6QwYUAgRv/Z1F7zZr/OznmxLP5+N3kFxzlxLI9tyz4lyghi5ErX2YdWW3rxgIPJU5m3egc5zraOH2JP6nj6GSGMW+++T+c9Ds8dQpC1K6OmpbAlM4fc7Aw2pX7LPvdCYnspKb8PIqD/BFbtOUThyZMcO7CCceHNDMrYubThE7paAon8cBapWzPJycsha/dG1uw+W/MDphlhkcoCZvVx3gHCQmTC4bq1rdX7WQUHEvoT0GkQf0rZQVbWNpInDHzsi/ks3UYzK3UrmVk7SZ00jBD/HnyZUbeExOzBGqo4MX8g1qChTE3fw76MjXy7s6j5Y6/YzYRwC11Gz2NzVh45ezeRusNVj/t91hY+psKimX3sGps+fQNL6HBiV2eQvW8HafM+oKfXhWjugTViiJl93lVPo4Ym+mxq7K622mQuKjg4cwBGQCQfJa1nb24eObsSGWF4Xsxnblw1vXZeGBmJf/BwZmzIJCtjE2syXO9TmlFPKzhX96ctDM0cfxy3WD8ukNctXZiwqxznz48tn4by+uvBfL7NfaGwndJV7xLs351xy/Zy7GQBW2eOoHPAIOYecX6UkoM762MIcAdi127ifLJlTCAkwLXW2eSxt2bzRt4XZsbl7kNbOJt6n5o7hps+9ja6H7oG3yZjd0PrWQJPv0BdUHb29WEpO+Z8zJBuwTW3JBvyMXN2lOL+Zd/5gSMTIzsT4LyQ73ULRnAEUSM+Yea6E9V/Lqserv0K2V9NYFTfLgRZLRgh3Rn68Vx2lrprcf5kvUhG0gRGD6q51Zq/0YmI/u/w5fJcrnmfFG25oOMWuV99TnRUTX8s1k50iYrmi0WZXPZYCor9FkfWxPHB4O7Vt0DzDwyj19BPSD1VdydP26U9JH02nMg3gjGsBkGd36DngGimbL1Se5bZ3AHLxqWs5UwcM5BuIQYWi0Fw1/6MnpNF9RLt5hzQHTfZGzeI0NCBxGZ4rAV0yzlv5bP4c97s7pzTEHq89QWLs5t5mzlXf/x7vcXvo8IJsAYS3u994jed8boA09zYazrmuHWQJeP6Ex5oxQjtTXRiNned686bM3aquLRrJu/3c86tPwFhfRg111WPe/xt4WM2LJrYxxx3j7Nm0igiQ43q2/D1/f2b1UH5ndS6fax2aA0Zmt3nqytqwtBEn03PexvNBVXXyF3+x+p9NdDfgjUonF5D3mPuvrpf6sy8393O9uv7mPt+FGEBVgJCezNytsc+ZsKnpp6WO1fX0xaGpt6DdooWD8WInE6+69B+P3sy3QOiSa69O43zjVHGgeXjebtXZwwjiDcGxjA3w32rRztXUt/FCJ/IvnrXS9gyvyQsYHTtB5OYOfa656tVji1t4Wz2fWriGG76PfgUHTPd86VnCTztAt5B+Wnvrfr3ZAR8/eB8Mj155lq1X1rFKCOYz7fX3bv8mUPQgCUgAQlIQAJPSEBB+QnBt6tmFZTbaLoeUrh5JWt3ZpNfUMCBvWuZ8143rBHj2en5yTdt1Bs1IwEJSEACEnjWBRSUn/U9wMz4FZTNKLW8jP0KW6e8TWR4EFaLPwGhPRgaM511J8vrbq/V8lZUgwQkIAEJSEACJgUUlE1CqZgEJCABCUhAAhKQwLMloKD8bM23RisBCUhAAhKQgAQkYFJAQdkklIpJQAISkIAEJCABCTxbAgrKz9Z8a7QSkIAEJCABCUhAAiYFmhWUHRWHCYmL5UdTah4vfFfIvXoNmSlTb5N29W1FXiJDwt5g5LIT9T7co10NQ52VgAQkIAEJSEACEmhCoFlBGcd9iq9fo+BqCZ8tm4avoGyqTBOdenpfdlC2fhzBr1vo8uVerw/beHr7rJ5JQAISkIAEJCABCTyOQPOCsrsFx10SV8b7DsrNKeMu256eHeVcKDzJlfvtqdPqqwQkIAEJSEACEpBAcwW8grKj4gTDl8zjb+Kn8ePYGfwi6RtGHr7K3fq1tmVQdn2UaFhDH9Fcv2/1vq86kcK4Qd0ICezEGwM+YPK0TxkaEULnXu+SmFlW+9HTjhs7mDyk5iO1LdYgIvqPIXbdKe45P1YZcNxIZ6zhh59fzSPgs208qNcWjltkLxhH9ICedAkJwGoE033ox8zf4/7I1vob6HsJSEACEpCABCQggadVwCsoY7/JtsIz7LxwmdwLZ1mweRl/FbuQmAtV3v1vy6BcWcDMPhb8/Cz0Tjjc7HXBtr1/ItQYSdKBY+yOH4Q1MJoF2YfYNLEvRtQsCipdQ6ssJW97JgePFFJYkE167JsEW/uSWGCrKWAv5+q5YoqL80kaYeAzKLs+mMM6PIGt+3LJzdzEopge+AeN4ptSu7ehvpOABCQgAQlIQAISeKoFvINy/a7aTtF/Rjy/zblZe+a1ukhbBmXslOWvISlpNfllzQ+b1UE58FO23gdb5p8JD/yYTRVgy57EG4Hj2PDI6XIXwv3dTOhsEL3yvPfY7VdZPbrxoOwZou1XVzPaMBj7XZk+Xa3+/qXvJSABCUhAAhKQwFMs4BWUqypKmb5xFa/Om81fz0jk7xcs4G/jpvHavut4nVNu06DcMj2voJw1sSYol4Nt/xQiAmNYf7tmbYX9Rj7fTH6fIb0jCO3chZ59exNuWBn21dkWBWVsWUwMN3hrabF3PS0blraWgAQkIAEJSEACEviBBeqCsuMWiSkJ/HReGl8WlpJ39So5JTmEJcR3nKCcPZmITn9gU/2gbL/I6jEhGL3/wNLtBzlRdJrjecnEhBmPBmXHNdY044wytmwmR/io5weeWFUvAQlIQAISkIAEJNAygbqgXHWaATOm8Vqmx9njqhJGzvYRlLlH0qp4nl91mKsNtm+mTIMbe7zQeksvPCr1PqNsy2BCiJVhS87UnfW15RHbzUfAddxhfYyB8V4a110X+tXW61qj7Ln0QkG5VkdfSEACEpCABCQggXYlUBeUHTeYljyDFxauY8bp8+ReucL+czl0mekrKNvZu30BP5n+NWOOnGHDqWPMPnW93oV2ZsqYsKosYJbrYr7Ix72Yz7VG2bM1r6UX9lJSfh9EQP8JrNpziMKTJzl2YAXjwn0EZao4MX8g1qChTE3fw76MjXy7s6hmaYqCsiexvpaABCQgAQlIQALtWqAuKAMPb53m8+++5pezEng+Np6fzZjN3y9M5u3jd+rOtLqGay8/w8ffLORvpk3jhYQF/G7nWW7WozBTpt4mj37ruj1c6GPeHs5zjbJn5V5BGbBd2kPSZ8OJfCMYw2oQ1PkNeg6IZsrWK4+M3XHrIEvG9Sc80IoR2pvoxGzuOs8uKyh7EutrCUhAAhKQgAQk0K4FvIJyux6JOi8BCUhAAhKQgAQkIIFWFFBQbkVMVSUBCUhAAhKQgAQk0HEEFJQ7zlxqJBKQgAQkIAEJSEACrSigoNyKmKpKAhKQgAQkIAEJSKDjCCgod5y51EgkIAEJSEACEpCABFpRQEG5FTFVlQQkIAEJSEACEpBAxxFQUO44c6mRSEACEpCABCQgAQm0ooCCcitiqioJSEACEpCABCQggY4joKDcceZSI5GABCQgAQlIQAISaEUBBeVWxFRVEpCABCQgAQlIQAIdR0BBuePMpUYiAQlIQAISkIAEJNCKAgrKrYipqiQgAQlIQAISkIAEOo6AgnLHmUuNRAISkIAEJCABCUigFQUUlFsRU1VJQAISkIAEJCABCXQcAQXljjOXGokEJCABCUhAAhKQQCsKKCi3IqaqkoAEJCABCUhAAhLoOAIKyh1nLjUSCUhAAhKQgAQkIIFWFFBQbkVMVSUBCUhAAhKQgAQk0HEEFJQ7zlxqJBKQgAQkIAEJSEACrSigoNyKmKpKAhKQgAQkIAEJSKDjCCgod5y51EgkIAEJSEACEpCABFpRQEG5FTFVlQQkIAEJSEACEpBAxxFQUO44c6mRSEACEpCABCQgAQm0ooCCcitiqioJSEACEpCABCQggY4j0M6D8kOyD+1i1IGL2DrOnDx9I3GUcyx9NtO+PULl09c79UgCEpCABCQgAQn8IALtOyg7bjMjOZ4Xvivk3g/Co0qrBeyXWTXKIOCzbTwQiQQkIAEJSEACEnhGBBSUn5GJbtEwFZRbxKeNJSABCUhAAhJonwIKyu1z3tq21wrKbeut1iQgAQlIQAISeCoEvIKy4+EVkjZ/w4uJCfw0Np6fJczhH7/eyYaHHn113GNv3mY6LZnPf5o2nb+Zv4JBuee55lmk4gTDl8zjb+Kn8ePYGfwi6RtGHr7KXc8y9y8yd/s6gr5ayH+bmcDzsdP4ixnzCMkro6q2XBWlxbkMX/UVfzdjOs/FzeCv5yzhjdwrNWtlXUsv/o+ZC/gfiTN4Pi6B/7o4jc+K7jR/La39Dpv2reVXc2fywrSZ/MPX6/jyrI96HDfZGzeIsNCBxGbcwFHbV/NfOCpOkh47hgERwRj+BkGhXYkaMYusco867LcoSJ3C+0N60jkwkLDIkfwp5TC3PBp03NjB5CE9CAuyYrEGEdF/DLHrTnHPs8ydI6QljOe9YVF0D3e2ZyUwpDtjV5Vgr23OxtXcFCaPHUyPzgFYjSBCuw/io5STNXPhCsqW8N5ERXTCMILpNvhjFmRe8Zir2sqa+KKJtprYWi9LQAISkIAEJCCBthLwCMp29m5P4rnEVL44fo7sy5fJLDnNV4fOcro2eNnIyljGf5iZzDv5Z9h76Txrsr/nH6fNIuzw7brgZb/JtsIz7LxwmdwLZ1mweRl/FbuQmAseEbgsm/8VN4NfbT7EN0Ul7C4tZWvRCbaUucs4uFC4jv8eO51fpu4i4dhpNpcUk34sn+UXH9QEVFdQfm7JZpJOnWXbmeP88dv5PDf9GxI9E2WTmg/ZsX0xL0z/isG5J9l89gRxa5fws7hFvHfO87cEoLKAmX0s+PlZ6J1wuPmBnEoKZvbBGjGWpK15HCs8TkFeBhvSszhfm1zvczRpGJ3Co4lPy6Tg2CF2J39GVEAYMemX65wrS8nbnsnBI4UUFmSTHvsmwda+JBbUXdpoL17GcCOI4bFpbM/MI/9QPrmZ28kpcZexc237BHpZA4mMSSR1cwb783LYu2UNm4/erXF2BWXrkCmkZ2STl72FJR/1xBo8htWXajvdpDKYaMtELSoiAQlIQAISkIAE2kLAIyhXkrZ2Js8t3MaWitpk7NUHR3kB4dNn0ePoPY8zqQ9I+W4mz684wDnfm4HtFP1nxPPbnJu1Ia+qOignMuyMOxh7NQVV53lv/jT+06pDnG2oXh8X89nvHMAaN53Qw559rFd3vW8ddw8REh/Pr7LK6oKv/Tp/XhrPz1Yd5qJXeTtl+WtISlpNfllzQqK7kgdkTOiMdUA8OTd9b+8oW0dMcBifbrrp4VzOts9DMN5N5YrvzeD+biZ0Noheeb7WuSYohzMxyx2M3f1wPdsOkRDpT+exaTSYeX0svbBfSeVdI4AP13r2sV7d9b8101b9bfS9BCQgAQlIQAISeEICHkEZHpQdYeDCGfx4+gL812Yw50wZtz1C6sOzm/kvU+P4SVw8z3s8fjo1lp8s2EWWK8BVVZQyfeMqXp03m7+ekcjfL1jA38ZN47V912v/VN9UULbfzOE3cfGNB14fQZmqMwydGc+/7vNcwtG4rnNcv4hN4sMLngnUzr6dC3kucTNbGsjyjdfa8Ku2kvX8sX8nLMGRvDNhHmuySij3aNq2fwoRFgv+hoHh+bC8jn9UIkdd/bHfyOebye8zpHcEoZ270LNvb8INK8O+OlJxCnMAACAASURBVGs6KNvPryDaMPhw7S2PUF6v7z6CMrZM/hxu8NbS4tq26m31yLem2npkK/2DBCQgAQlIQAISeDICXkG5ugv2e+SfOshH6Sv4u/hp/GLFXna67r3mDpRvF17neFmZ16PwZkXNLdoct0hMSeCn89L4srCUvKtXySnJISwhvplBOZffxcUTXnC/4QDnMyifZXiid1tN0TrH9Z8bDMpbWj0oV/en8ianMr5lzviR9AiyEvHOQg66lovYsicTYe3DlB1nKC4u9nqUXLhRc4s2+0VWjwnB6P0Hlm4/yImi0xzPSyYmzGheUL6QwkjDIGb97YadfQblbCZHeLfVlLPdTFtNVaLXJSABCUhAAhKQQBsJPBqUPRq+X5ZLwPR4frO/ZsmEo/wwnePj+efdlxu+b3HVaQbMmMZrmXVnj6kqYeRs7/Da1BllqkoZPW8af/NtASUeZ7U9ugfNCsoOLpfm80XGQXaVe1fYtksvvEZQ/c3DkhRGdzKITi6tPjvruJ7OB0EGg+cfb/i+xbYMJoRYGbbkTN0ZXVsesd28w2vTSy/ymd7Ln7Bxa7nscVbbq5fNCsqNLE2xmWjLq2F9IwEJSEACEpCABJ6cgEdQrmTn/s18cuAEW85fJu/Seb7PW8c/xSXQpaDCdbbRxp5dX/GXsXOwbMkluaiYrWdP83XeQda712g4bjAteQYvLFzHjNPnyb1yhf3ncugys5lBGQfFR77j/5o6nV+u2knC8SK2lBSz4eRRZp+87nXXC68PHKlq4Iyy/QIfzI/jR1Pi+OX28/U+yc95Md8iXpi+hEE5J9hwppCpaxc3eDHfLNfFfJGPdTHfAw4mT2Xe6h3kFBznxPFD7EkdTz8jhHHry1zO9zg8dwhB1q6MmpbClswccrMz2JT6LfvcC4ntpaT8PoiA/hNYtecQhSdPcuzACsaFNzMoY+fShk/oagkk8sNZpG7NJCcvh6zdG1mz+6zXXS+8PnDE1sAZ5coCGvYx0daTey+oZQlIQAISkIAEJOAl4BGU77F13/f8ZkEiP4uNq76t288XJBO59wwlnmcaHffYd3ArnRfP5T/GTeMn02bx35d8R4LHFWYPb53m8+++5peznLd9i+dnM2bz9wuTefv4ndqzn02eUa7uZhVnz+xnWMpi/uv0eH48NZ6/SlyEsessZc7Xm3VG+R7pW5bw1wmLiT7lDv4eFvY7bMz8nn+Zk8BP4xL4u6XpTDjT8O3hQh/39nCOW+R+9TnRUV0IslqwWDvRJSqaLxZlctnz86HttziyJo4PBncnxPDHPzCMXkM/IfVU3YJp26U9JH02nMg3gjGsBkGd36DngGimbL1S69zkGeVqAhuXspYzccxAuoUYWCwGwV37M3pOVs0a9eacUXbdPq9hnyba8pgSfSkBCUhAAhKQgASepIBHUH6S3VDbEpCABCQgAQlIQAISeLoEFJSfrvlQbyQgAQlIQAISkIAEnhIBBeWnZCLUDQlIQAISkIAEJCCBp0tAQfnpmg/1RgISkIAEJCABCUjgKRFQUH5KJkLdkIAEJCABCUhAAhJ4ugQUlJ+u+VBvJCABCUhAAhKQgASeEgEF5adkItSNVhZwlHMsfTbTvj1Sc8/tVq5e1UlAAhKQgAQk0PEFFJQ7/hw/myP0de/nZ1NCo5aABCQgAQlI4DEFFJQfE06bPeUCCspP+QSpexKQgAQkIIGnX0BB+emfI/XwcQQUlB9HTdtIQAISkIAEJOAhoKDsgdHkl/eKKJnxPptCfkfKq6+y8tcWvuv1Jlmri3DUblxJRfYy9kf3JO3fXiP5lVdJ8Qtny/h1lNd+FLiZMrUVtvALG1dzU5g8djA9OgdgNYII7T6Ij1JOUvdh2E034ag4SXrsGAZEBGP4GwSFdiVqxCyyyj22td+iIHUK7w/pSefAQMIiR/KnlMPcqsPBcWMHk4f0ICzIisUaRET/McSuO8U9zzJ3jpCWMJ73hkXRPdzZnpXAkO6MXVVS+9Hc0MS4XEHZEt6bqIhOGEYw3QZ/zILMK80ad83ommjLg0BfSkACEpCABCTQcQQUlM3OZdU5To3wI/nFl1jh143to99lc/BrLH/xZVaPz3QFuCrurn6X1a+8xPKXXmKlX2fW9+7N+lALaZ/udF1UZqaM2U41Vc7Ote0T6GUNJDImkdTNGezPy2HvljVsPnrXI9w3VU8lBTP7YI0YS9LWPI4VHqcgL4MN6Vmcrw3/9zmaNIxO4dHEp2VScOwQu5M/IyogjJj0y3UBt7KUvO2ZHDxSSGFBNumxbxJs7Utiga22E/biZQw3ghgem8b2zDzyD+WTm7mdnBJ3GRPjcgVl65AppGdkk5e9hSUf9cQaPIbVl2o7Xdtmw1+YaKvhjfWKBCQgAQlIQALtWEBB2eTk2Q9O4btXXmT5r0dw6qLzXGwlVyd1ItkzKN/bRZblZZa//Gu2zD7AA89Ttg7XKVMzZUz2yVnM/qCC8rt3uet8lFfwwDMD2g6REOlP57FpNCsbPtL+AzImdMY6IJ6cm54N1BV0lK0jJjiMTzfd9Ajg5Wz7PATj3VSu+N4M7u9mQmeD6JXna8N0TVAOZ2KWOxjXtVP9lZlx+Vh6Yb+SyrtGAB+u9exjvbrrf2umrfrb6HsJSEACEpCABDqEgIKyqWl08CD1bVa8+CIrBi1zLaF4NCg7jkxnbXWY/pBz93xXbKaM7y19/WslB+J7YPHzw8/5sPRien5lbUH7+RVEGwYfrr3lEV5rX27WF7aS9fyxfycswZG8M2Eea7JKPJaSgG3/FCIsFvwNA8PzYXkd/6hEjrp+abDfyOebye8zpHcEoZ270LNvb8INK8O+Oms6KJsal4+gjC2TP4cbvLW0uLatphBMtdVUJXpdAhKQgAQkIIF2KaCgbGraHDxYHV0TlPst4W712VFfQTme9OqgHNNIUG66jKkuVRdycLf0CAcPHOCA83HwCKXldYt97RdSGGkYxKy/3eKgXN1c5U1OZXzLnPEj6RFkJeKdhRx0LUC2ZU8mwtqHKTvOUFxc7PUouXCDB84K7BdZPSYEo/cfWLr9ICeKTnM8L5mYMKN5QdnMuHwG5WwmR3i31ZR1qxs21aBel4AEJCABCUjgqRFQUDY5FbVngl+LJD+njKqKC5z90OK99KJ8G5l+rqUXcw/x0NdyAzNlTPapyWK2fKb38ids3Fou++pLkxU0XOBhSQqjOxlEJ5dWn511XE/ngyCDwfOP14RiX5vaMpgQYmXYkjN1Z3RtecR28w6vTS+9MDGuZgVlO2X5a0hKWk1+WT2oH9DQF5H+TQISkIAEJCCBp0dAQdnsXNgvcma0heSXXmT5i54Pz4v5KrmdPJzUl50X871cdzFf1xBW95zO9erlB2bKmO1UU+XsXNrwCV0tgUR+OIvUrZnk5OWQtXsja3afbcbdHx5wMHkq81bvIKfgOCeOH2JP6nj6GSGMW1/mOlt9j8NzhxBk7cqoaSlsycwhNzuDTanfss+9QNpeSsrvgwjoP4FVew5RePIkxw6sYFx4M4MyJsbVnKBcWcCsPhb8/CxEJhyu90l+Jtpqahr0ugQkIAEJSEAC7VJAQbk50/bgApdWzGD/Hz5m35cz2D/kdyS/+Appf86pO0PKQ8r3LCJ7RC/SfvsaK155hRW/8id98Eyu3Hc3ZqaMu2xLn21cylrOxDED6RZiYLEYBHftz+g5WdyuW6XReCOOW+R+9TnRUV0IslqwWDvRJSqaLxZlcrluSTTYb3FkTRwfDO5OiOGPf2AYvYZ+QuqpuqsabZf2kPTZcCLfCMawGgR1foOeA6KZsvVKrWGTZ5Sre9vEuJoTlB032Rs3iNDQgcRm3PCxTKWJthrX06sSkIAEJCABCbRTAQVlsxPnuMeDG7VJFyrPcnyg8/Zwr7Llq/M+wpXZilVOAhKQgAQkIAEJSOBpFFBQNjsrN9PY+a//yppu/dj65hA2Bv+6ehlG8u9GUeReWmC2LpWTgAQkIAEJSEACEnjqBRSUTU6R48IWDozsw/f+/8bKf/5nVv4miA0j/8zpI3dM1qBiEpCABCQgAQlIQALtSUBBuT3NlvoqAQlIQAISkIAEJNBmAgrKbUathiQgAQlIQAISkIAE2pOAgnJ7mi31VQISkIAEJCABCUigzQQUlNuMWg1JQAISkIAEJCABCbQnAQXl9jRb6qsEJCABCUhAAhKQQJsJKCi3GbUakoAEJCABCUhAAhJoTwIKyu1pttRXCUhAAhKQgAQkIIE2E1BQbjNqNSQBCUhAAhKQgAQk0J4EFJTb02yprxKQgAQkIAEJSEACbSagoNxm1GpIAhKQgAQkIAEJSKA9CSgot6fZUl8lIAEJSEACEpCABNpMQEG5zajVkAQkIAEJSEACEpBAexJQUG5Ps6W+SkACEpCABCQgAQm0mYCCcptRqyEJSEACEpCABCQggfYkoKDcnmZLfZWABCQgAQlIQAISaDMBBeU2o1ZDEpCABCQgAQlIQALtSUBBuT3NlvoqAQlIQAISkIAEJNBmAgrKbUathiQgAQlIQAISkIAE2pOAgnJ7mi31VQISkIAEJCABCUigzQQUlNuMWg1JQAISkIAEJCABCbQnAQXl9jRb6qsEJCABCUhAAhKQQJsJKCi3GbUakoAEJCABCUhAAhJoTwI/WFC+U7KTVxNm87usy9haImK7zb6iM+RWtKSS9rltRV4iQ8LeYOSyE1S2ZAj3L3EkM5PCm46W1KJtJSABCUhAAhKQwDMl8IMF5UsFq/mrKXH8fH0R5S0grby4i/8Zt5BxF+0tqKU9buqgbP04gl+30OXLvdxvwRCqjs2mr9GX2ceqWlCLNpWABCQgAQlIQALPlsAPFpThIUWXr3CuRaeT4dkNyoCjnAuFJ7nSkpQMKCg/W29qjVYCEpCABCQggdYR8AjK99i4O5V/WTCb/zNuGs9NS+R/JG8g9lw5nuchHfcvMnf7OoK+Wsh/m5nA87HT+IsZ8wjJK6su56g4TEhcLD+aUvN44btC7j3S13tszFjNbxbO5+fTp/NcXAL/95I0Pj19u26Zhr2Ud+fG1dbjru9HzrPUG8/y8JE6G/kH+x027VvLr+bO5IVpM/mHr9fx5dk7jy5ncNxkb9wgwkIHEptxg2YvVHDcInveB7wZFUGI4Y81MJyoUV+y4kAZnufDHXeOkJYwnveGRdE9PBjD30pgSHfGriqpLue4kc5Yww8/v5pHwGfbeFB/eM62FowjekBPuoQEYDWC6T70Y+bvuVQ3rsqDxPe01Nbjrs/Pz0KXSdl11vXr9vm9jau5KUweO5genZ3tBRHafRAfpZz02j98bqp/lIAEJCABCUhAAu1QoC4oO24zIzmen369i9XFpew4c5R/X53EC9OWEFNad1q4qiyb/xU3g19tPsQ3RSXsLi1la9EJtpS54rTjAaU3yjh+vZQvvo7HZ1B2tfXcsh2sPFPC1qJj/HvqPH4Sv5LpN9zxtJIrN8soKNzEP8TN563CaxwvK6t+nCq3NSPEPmTH9sW8MP0rBueeZPPZE8StXcLP4hbx3rl6cbuygJl9nMHSQu+Ew3WB0+zE2i+zapSBMSKRXbkHObBvI4s+7kNA4CAS8+t+XbAXL2O4EcTw2DS2Z+aRfyif3Mzt5JS4nO3lXD1XTHFxPkkjDHwGZVdb1uEJbN2XS27mJhbF9MA/aBTflLpj+QNunC+haNskehm9mLStiOJiZ70llJbdb4ahnWvbJ9DLGkhkTCKpmzPYn5fD3i1r2Hz0bjPqMQupchKQgAQkIAEJSODJCzwSlL2CbdVV/n1JPP8htYDLrr7WBOVEhp3xPM/sYyCOuySubDwoe7Zlv3MQIy6e4PwKr+DV0qUXjruHCImP51dZZXXB136dPy+N52erDnPRq+t2yvLXkJS0mvwyd9j0KtD4N67w6hVsbadYNNSgU8xayly/A9QE5XAmZtX9AuKzYvtVVo9uPCh7tmW/uprRhsHY78q8DFu89MJ2iIRIfzqPTePSY7D4HJv+UQISkIAEJCABCTzlAo0HZezs25HEc4lb2OrKxT9UUKbqLMNmxvOv+2qWcLjdWhqUH57dzC9ik/jwgmfCs7Nv50KeS9zMlibyvrsfpp59BWUqOZIYhbVrLLnuE8bVZ5RbPyhjy2JiuMFbS4u9lnq0NCjbz68g2jD4cO0trwBuykSFJCABCUhAAhKQQDsVaDIoZ7kC5ebmBmXuMrsZZ5SdQXl4Yjyv7bvutea18uJu/qkFd71wBuX/3GBQ3tIGQbmKo7P7Yo2Yyv7mBmXHNdY044wytmwmRxgM++psvaA8h34tuOuF/UIKIw2DmPW3FZTb6Rtd3ZaABCQgAQlIoPkCjQdlx01il8fzFyn5lLqWDZg+o8x9lqTG83zKoXrLG5x3c6hZD+259KLBoHw1k1fj5jDibGOnfh1cLs3ni4yD7Cp3r3GuwXjiSy/spayINggcs4arrpPappdeOO6wPsbAeC+N697DAl9nrxsKyqcXMcToylR3Uve5nzSy7MSWz/Re/oSNW8tlzxPzPuvRP0pAAhKQgAQkIIGOIfBIUP7x7G/4IK+QtWdOkrBxGf8xdh5DTt2rPZNoPijbydu9mOfilzLi0GnWnzrKrBPXatYJNyMo8/AU/WfG8fOVGSw/U8KW08dIKHTV454D+wU+mO+8Q0Ycv9x+vt7dHJwX8y3ihelLGJRzgg1nCpm6dnGDF/PNcl3MF9mCi/ks3UYzK3UrmVk7SZ00jBD/HnyZUbdswXRQpooT8wdiDRrK1PQ97MvYyLc7i2rOuDcjKFOxmwnhFrqMnsfmrDxy9m4idYerHrdhZQENj93OpQ2f0NUSSOSHs0jdmklOXg5ZuzeyZvdZr78AuKvTswQkIAEJSEACEmjvAo8E5Z/MW4bfgkReiJ3O3yat4t2j1/H8UDzzQRkc90r547eL+Ntp03g+YQG/3XmWm06x5gRl7Jw9uYNOSYn8Zew0XkhI4vVdrnpq9e+RvmUJf52wmOhT3hcDVhex32Fj5vf8y5wEfhqXwN8tTWfCmYZvDxf6uLeHc4VX/15v8fuocAKsgYT3e5/4TWe8PjDEfFAGx62DLBnXn/BAK0Zob6ITs7nrPLvcnKBMFZd2zeT9fl0IsvoTENaHUXNd9bgNXbfGa3jsNi5lLWfimIF0CzGwWAyCu/Zn9Jwsbtc/2+2uU88SkIAEJCABCUigHQs8EpS9lkO044E9ka77Cq9PpCNqVAISkIAEJCABCUigpQIKyi0V9NxeQdlTQ19LQAISkIAEJCCBdi2goNya06eg3JqaqksCEpCABCQgAQk8UYG6oPxEu6HGJSABCUhAAhKQgAQk8HQJKCg/XfOh3khAAhKQgAQkIAEJPCUCCspPyUSoGxKQgAQkIAEJSEACT5eAgvLTNR/qjQQkIAEJSEACEpDAUyKgoPyUTMSz1I2KvESGhL3ByGUnaj6A5nEHf/8SRzIzKbypGzk/LqG2k4AEJCABCUigYQEF5YZt9MoPIuCgbP04gl+30OXLvV4fxNLc5qqOzaav0ZfZxxr7ePPm1qryEpCABCQgAQlIoEZAQVl7QtsLOMq5UHiSK/db1rSCcsv8tLUEJCABCUhAAo0LKCg37uP96r0iSma8z6aQ35Hy6qus/LWF73q9SdbqIur++F9JRfYy9kf3JO3fXiP5lVdJ8Qtny/h1lNvd1Zkp4y7b0mcbV3NTmDx2MD06B2A1ggjtPoiPUk5i+jys4xbZ8z7gzagIQgx/rIHhRI36khUHyqgdkvOTye8cIS1hPO8Ni6J7eDCGv5XAkO6MXVVSXc5xI52xhh9+fjWPgM+28aD+8JxtLRhH9ICedAlx9jeY7kM/Zv6eS3XLNCoPEt/TUluPuz4/PwtdJmVjq19no9+3gk+j9etFCUhAAhKQgATaq4CCstmZqzrHqRF+JL/4Eiv8urF99LtsDn6N5S++zOrxma7AWMXd1e+y+pWXWP7SS6z068z63r1ZH2oh7dOdrqBnpozZTjVVzs617RPoZQ0kMiaR1M0Z7M/LYe+WNWw+etcj3DdRj+uDVIwRiezKPciBfRtZ9HEfAgIHkZh/r3Zje/EyhhtBDI9NY3tmHvmH8snN3E5OiSu62su5eq6Y4uJ8kkYY+AzKrraswxPYui+X3MxNLIrpgX/QKL4pdcfyB9w4X0LRtkn0MnoxaVsRxcXOeksoLbtvfly0kk+tgL6QgAQkIAEJSKAjCSgom5xN+8EpfPfKiyz/9QhOXXSei63k6qROJHsG5Xu7yLK8zPKXf82W2Qd44HnK1uE652ymjMk+OYvZH1RQfvcud52P8goeuLOk80XbIRIi/ek8No1Lnv/ejPqri/r6xEHbKRYNNegUs5Yy19BqgnI4E7OaOKdrv8rq0Y0HZc8Qbb+6mtGGwdjvyrxCcIuXXrSWT3M9VV4CEpCABCQggXYhoKBsapocPEh9mxUvvsiKQctcSygeDcqOI9NZWx2mP+Rc3YlWrxbMlPHaoNFvKjkQ3wOLaymDn6UX0/Mra7ewn19BtGHw4dpbXgGztoDZL3wFZSo5khiFtWssue4TxtVnlFs/KGPLYmK4wVtLi72WerQ0KLeaj1lHlZOABCQgAQlIoF0JKCibmi4HD1ZH1wTlfku4W3121ldQjie9OijHNBKUmy5jqkvVhRzcLT3CwQMHOOB8HDxCaXndamn7hRRGGgYx62//AEG5iqOz+2KNmMr+5gZlxzXWNOOMMrZsJkcYDPvqbL2gPId+LbjrRav5mJ8wlZSABCQgAQlIoB0JKCibnKzaM8GvRZKfU0ZVxQXOfmjxXnpRvo1MP9fSi7mHeOhruYOZMib71GQxWz7Te/kTNm4tl331pckKXAV8nVG2l7Ii2iBwzBquuuo2vfTCcYf1MQbGe2lcr8v1NY35aquhoHx6EUOMrkx1J3Wf47FTlr+GpKTV5JfVQ2gtH5/t6h8lIAEJSEACEmjvAgrKZmfQfpEzoy0kv/Qiy1/0fHhezFfJ7eThpL7svJjv5bqL+bqGsLrndK5Xr1k2U8Zsp5oqZ+fShk/oagkk8sNZpG7NJCcvh6zdG1mz+6z5u164wqul22hmpW4lM2snqZOGEeLfgy8z6pZ1mA7KVHFi/kCsQUOZmr6HfRkb+XZnUU1/mhGUqdjNhHALXUbPY3NWHjl7N5G6w1WPm6aygFl9nHfIsBCZcLjuzhnVr7eSj7stPUtAAhKQgAQk0KEEFJSbM50PLnBpxQz2/+Fj9n05g/1Dfkfyi6+Q9uccjyUBDynfs4jsEb1I++1rrHjlFVb8yp/0wTM97htspkxzOtZYWRuXspYzccxAuoUYWCwGwV37M3pOFrfrn81tqBpXePXv9Ra/jwonwBpIeL/3id90xusDQ8wHZXDcOsiScf0JD7RihPYmOjGbu87+NCcoU8WlXTN5v18Xgqz+BIT1YdRcVz3usThusjduEKGhA4nNuOFjCUor+Ljb0rMEJCABCUhAAh1KQEHZ7HQ67vHghscnZFSe5fhA5+3hXmXLV+d9BDCzFbeDcr7CazvotrooAQlIQAISkIAEWiKgoGxW72YaO//1X1nTrR9b3xzCxuBfVy/DSP7dKIpadO81sx14guUUlJ8gvpqWgAQkIAEJSOBJCSgom5R3XNjCgZF9+N7/31j5z//Myt8EsWHknzl95I7JGtpxMQXldjx56roEJCABCUhAAo8roKD8uHLaTgISkIAEJCABCUigQwsoKHfo6dXgJCABCUhAAhKQgAQeV0BB+XHltJ0EJCABCUhAAhKQQIcWUFDu0NOrwUlAAhKQgAQkIAEJPK6AgvLjymk7CUhAAhKQgAQkIIEOLaCg3KGnV4OTgAQkIAEJSEACEnhcAQXlx5XTdhKQgAQkIAEJSEACHVpAQblDT68GJwEJSEACEpCABCTwuAIKyo8rp+0kIAEJSEACEpCABDq0gIJyh55eDU4CEpCABCQgAQlI4HEFFJQfV07bSUACEpCABCQgAQl0aAEF5Q49vRqcBCQgAQlIQAISkMDjCigoP66ctpOABCQgAQlIQAIS6NACCsodeno1OAlIQAISkIAEJCCBxxVQUH5cOW0nAQlIQAISkIAEJNChBRSUO/T0anASkIAEJCABCUhAAo8roKD8uHLaTgISkIAEJCABCUigQwsoKHfo6dXgJCABCUhAAhKQgAQeV0BB+XHltJ0EJCABCUhAAhKQQIcWUFDu0NOrwUlAAhKQgAQkIAEJPK6AgvLjymk7CUhAAhKQgAQkIIEOLaCg3KGnV4OTgAQkIAEJSEACEnhcgScalO+U7OTVhNn8LusytscdgXM72232FZ0ht6IllWjbpgQq8hIZEvYGI5edoLKpwo29fv8SRzIzKbzpaKyUXpOABCQgAQlIQAJPVOCJBuVLBav5qylx/Hx9EeUtYKi8uIv/GbeQcRftLahFmzYu4KBs/TiCX7fQ5cu93G+8cKOvVh2bTV+jL7OPVTVaTi9KQAISkIAEJCCBJynwRIMyPKTo8hXOteh0Migot9Eu5CjnQuFJrrQkJQMKym00X2pGAhKQgAQkIIEWCXgFZcf9i8zdvo6grxby32Ym8HzsNP5ixjxC8sqoPffnuMfevM10WjKf/zRtOn8zfwWDcs9zzbMb9rts3reOf5s3ixecdSTM5f/5eg1fnL2H84/tjorDhMTF8qMpNY8Xvivknuf2rq8dD6+QtPkbXkxM4Kex8fwsYQ7/+PVONjx0FbCX8u7cuNp63PX9yHmWeuNZ3MUw0WdTY/fRx0f+yX6HTfvW8qu5M3lh2kz+4et1fHn2zqNLFRw32Rs3iLDQgcRm3Kh2eaSuJv7BcecIaQnjeW9YFN3DgzH8rQSGdGfsqhJqz63bb1GQOoX3h/Skc2AgYZEj+VPKYW55rnqousr+peMZ0TuUAKuVwNDu9I/+iKTsWzXzdSOd0OLyJAAAIABJREFUsYYffn41j4DPtvHAR98cFSdJjx3DgAhnXwyCQrsSNWIWWe4/F1QeJL6npbYed31+fha6TMquW35jos+mxu6jj4/+k42ruSlMHjuYHp0DsBpBhHYfxEcpJ+v2+Uc30r9IQAISkIAEJPAMCHgF5aqybP5X3Ax+tfkQ3xSVsLu0lK1FJ9hS5o7JNrIylvEfZibzTv4Z9l46z5rs7/nHabMIO3zbFc4esmvHYl6IX0zf7EI2nTvHpsId/Co2ntdzXWUcDyi9Ucbx66V88XU8voOynb3bk3guMZUvjp8j+/JlMktO89Whs5yuDXmVXLlZRkHhJv4hbj5vFV7jeFlZ9eNUuc0VPs30GZoeu5m94SE7ti/mhelfMTj3JJvPniBu7RJ+FreI987VxvaaiioLmNnHGRot9E44/GiQNtGcvXgZw40ghsemsT0zj/xD+eRmbienxH2K/j5Hk4bRKTya+LRMCo4dYnfyZ0QFhBGTftk1XxXkzxpIQNAA/j15G9kHDpC9LYHhVoNR31yqKWMv5+q5YoqL80kaYeA7KFdSMLMP1oixJG3N41jhcQryMtiQnsX52tT+gBvnSyjaNoleRi8mbSuiuNhZbwmlZfdd82Wmz9D02E0AYufa9gn0sgYSGZNI6uYM9uflsHfLGjYfvftYv7yYaVVlJCABCUhAAhJoHwI+gnIiw864g7H3IBzlBYRPn0WPozVnhmtefUDKdzN5fsUBzjnAWSZsejz/396rdWcIq07Qe5pHUHZX67hL4sqGgnIlaWtn8tzCbWypqE3G7i29nhtbemGmz87KaoJyw2P3arCBbxx3DxESH8+vssrqgq/9On9eGs/PVh3motd2dsry15CUtJr8stok6VWiqW9qwmI4E7Pcwdh7C0fZOmKCw/h0002P0FfOts9DMN5N5YodHGVrielkMHTx6bo+23bweYBHUHZXa7/K6tENBeUHZEzojHVAPDk3Gx9PY0svzPTZ2Z2mxu7ucqPPtkMkRPrTeWwalxrvcqPV6EUJSEACEpCABDqmQLOC8sOzm/kvU+P4SVw8z3s8fjo1lp8s2EWWHarLxC5gbN1pRHisoAwPyo4wcOEMfjx9Af5rM5hzpozbPjJzY0HZTJ+dU9saQdnZ1i9ik/jwgmfqsrNv50KeS9zMFt+/fzz2ntVUWLTtn0KExYK/YWB4Piyv4x+VyNEqqC5jjWRmgcd9LB4rKIOtZD1/7N8JS3Ak70yYx5qsEso9KVwjbSwom+mzs5qmxm4G1X5+BdGGwYdra5aYmNlGZSQgAQlIQAISeHYEmh2UnUHw7cLrtUsc3EsdCm9WVK8zfnhmI38bu4iPPO9A0VBQ5i6zGzyj7JoE+z3yTx3ko/QV/F38NH6xYi876y1orry4m39q4K4X7vDaWJ+dLbVWUP7PDQblLW0flLMnE2Htw5QdZ1xLHJzLHGoeJRduVK8ztmVNJNzajzmed6BoKCg7rrGmwTPKrvmqvMmpjG+ZM34kPYKsRLyzkINeC6KdF/PNoV8Dd72wmeizs6VWCcoXUhhpGMSsv+1xxt01Dj1JQAISkIAEJPDMCzQrKDvKD9M5Pp5/3n3Z58V3Tk37zRx+Gzcd/zz3mmVnCm1g6QX3WZIaz/Mph+otS/A9L/fLcgmYHs9v9t+su1gNqLyayatxcxhx9tFTtmb67GzNfFB2cLk0ny8yDrKr3Pv09lO39OJ6Oh8EGQyef9znxXfV81V9VjWAd1Jd65Gd/9hgUL7D+hgD4700rnsP3eeEPSxJYXQng+jkUq/5qjq9iCFGV6buf3TJiMNEn6v7Xb0+u+FlJ3UdamSJiy2f6b38CRu3lss+znzX1aGvJCABCUhAAhJ4FgWaFZTBxp5dX/GXsXOwbMkluaiYrWdP83XeQda710Q47vJ12mx+nPA10QdOsenMCebuTuXvp/pYo4ydvN2LeS5+KSMOnWb9qaPMOnHNtVa2kp37N/PJgRNsOX+ZvEvn+T5vHf8Ul0CXggrvM4APT9F/Zhw/X5nB8jMlbDl9jIRCdz0m+tycoGy/wAfznXfaiOOX28/XrcOu3nucF/Mt4oXpSxiUc4INZwqZunZxgxfzzXJdzBfZoov5GguL9zg8dwhB1q6MmpbClswccrMz2JT6Lfvci3Lt19j06RtYQocTuzqD7H07SJv3AT0tPtYoU8WJ+QOxBg1lavoe9mVs5NudRa67QzzgYPJU5q3eQU7BcU4cP8Se1PH0M0IYt77Me74qdjMh3EKX0fPYnJVHzt5NpO5w12Oiz805o1xZQMPOdi5t+ISulkAiP5xF6tZMcvJyyNq9kTW7z+quF8/iEVFjloAEJCABCXgINDMoO+/tdo99B7fSefFc/mPcNH4ybRb/fcl3JDivDHP953hwmTkbVvLLhHiem5bI/0xeVh2U/fPueJ1ZdBZ33Cvlj98u4m+nTeP5hAX8dudZblbXc4+t+77nNwsS+VlsHD+OncHPFyQTufcMJXVNuVq0c/bkDjolJfKXsdN4ISGJ13e56zHXZ/NnlO+RvmUJf52wmOhT9QK7szf2O2zM/J5/mZPAT+MS+Lul6Uw40/Dt4UJbcHs4U8sP7Lc4siaODwZ3J8Twxz8wjF5DPyH1VN3Zd8fd46yZNIrIUANrYDh9f/9mdVB+J/XKo/N16yBLxvUnPNCKEdqb6MRs7jrPLjtukfvV50RHdSHIasFi7USXqGi+WJTJZY/lzzUTVsWlXTN5v5+zrD8BYX0YNddVT7Vh0302NXZnXa7b8DXsbONS1nImjhlItxADi8UguGt/Rs/J8rkevqb/+r8EJCABCUhAAs+CgFdQ/qEGbL+dhyUugd6F9W6R9kM1qHpbJGC/tIpRRjCfb9dngrcIUhtLQAISkIAEJNCuBX6AoFxJ7rFcFp44y67zF9hxuoCPUubyXOI6UutdhNeu5TpM5x9SuHkla3dmk19QwIG9a5nzXjesEePZWe8ivA4zZA1EAhKQgAQkIAEJmBBo/aDsuMPKTcv55cwZPDfVuQxiHv9v6nYWXXngvU7VROdUpA0E7FfYOuVtIsODsFr8CQjtwdCY6aw7Wa75agN+NSEBCUhAAhKQwNMr0PpB+ekdq3omAQlIQAISkIAEJCAB0wIKyqapVFACEpCABCQgAQlI4FkSUFB+lmZbY5WABCQgAQlIQAISMC2goGyaSgUlIAEJSEACEpCABJ4lAQXlZ2m229FYK/ISGRL2BiOXnXB9AM1jdv7+JY5kZlJ408RHCT5mE9pMAhKQgAQkIIGOKaCg3DHntZ2PykHZ+nEEv26hy5d7ud+C0VQdm01foy+zj9V9wEoLqtOmEpCABCQgAQk8QwIKys/QZLeroTrKuVB4kistScnOjyZXUG5X067OSkACEpCABJ4mAQXl5szGvSJKZrzPppDfkfLqq6z8tYXver1J1uoij3sOV1KRvYz90T1J+7fXSH7lVVL8wtkyfh3ltR+9baZMczrWWFkbV3NTmDx2MD06B2A1ggjtPoiPUk7SnHOsjjtHSEsYz3vDougeHozhbyUwpDtjV5XUfcy1/RYFqVN4f0hPOgcGEhY5kj+lHMbrc0uqrrJ/6XhG9A4lwGolMLQ7/aM/Iin7VrWh40Y6Yw0//PxqHgGfbeOBj+E5Kk6SHjuGARHOvhgEhXYlasQssspdhSsPEt/TUluPuz4/PwtdJmVjc9dpos+mxu6ur9Hnhuei0c30ogQkIAEJSEACT0RAQdkse9U5To3wI/nFl1jh143to99lc/BrLH/xZVaPz3SFxSrurn6X1a+8xPKXXmKlX2fW9+7N+lALaZ/udK21NVPGbKeaKmfn2vYJ9LIGEhmTSOrmDPbn5bB3yxo2H73rEe6bqgfsxcsYbgQxPDaN7Zl55B/KJzdzOzkl7sh5n6NJw+gUHk18WiYFxw6xO/kzogLCiEm/7PKpIH/WQAKCBvDvydvIPnCA7G0JDLcajPrmUk0ZezlXzxVTXJxP0ggD30G5koKZfbBGjCVpax7HCo9TkJfBhvQsztf+MvKAG+dLKNo2iV5GLyZtK6K42FlvCaVl911jN9NnM2Nv2g8anwszNaiMBCQgAQlIQAJtK6CgbNLbfnAK373yIst/PYJTF53nYiu5OqkTyZ5B+d4usiwvs/zlX7Nl9gEeeJ6ydbguJjNTxmSfnMXsDyoov3uXu85HeQUPaoMiYDtEQqQ/ncemccnz35tRv7toTVAOZ2KWOxi7X6l5dpStIyY4jE833fQI4OVs+zwE491UrtjBUbaWmE4GQxefrrtAz7aDzwM8grK7WvtVVo9uKCg/IGNCZ6wD4sm52fjAGlt6YabPzu40NXZ3lxt9bsW5aLQdvSgBCUhAAhKQQKsJKCibonTwIPVtVrz4IisGLXMtoXg0KDuOTGdtdZj+kHP3fFdspozvLX39ayUH4ntgcS1T8LP0Ynp+ZW1B+/kVRBsGH66tWdZQ+8JjfNFUWLTtn0KExYK/YWB4Piyv4x+VyNEq/n/27gUs6jPB833vmUknM5nenZ6d7t6zuzPbZ54503tM0nk205t0d0xRf0AQMV6iovGepGm1TTBRMaaT9GzsyUXDTRSveIlGFEMAg6ICXokIAopivCMgIt7wBigWVH3PU1AFBXKpUkLA/PI8lSqq3novn7cof/XW+/9DQxlzEAsKm/vIfQVlsJSm8ucx/TD5BfH6nKUkZZe6bG1pHmBHQdmdPttr6mzsza21f6sr56L9VvSIBCQgAQlIQAJdKaCg7JamjdrEyY1BefRqqhoWMdsKypGkNATl0A6Ccudl3OpSQyEbVWVHOXTwIAftl0NHKatuPg2atTyeKYZBaOpNl1Ve92t3LdlZWLTkzGWQeSTzdp11bHGwb3NovJSWX2vYZ2zJ/phA82gWu56Bor2gbLtCUrsryo6e1V3ndOaXLP5gCi/5mhn0+goOtdgQbT+YbzGj2znrhTt9trfU2dhdndq73ZVz0V4bul8CEpCABCQgga4VUFB207NpJfiZIApyK6mvKad4pqnl1ovqHWT1dWy9WHKYu23tCnCnjJt96rSYpYCo4V4MmLWZi231pdMKmgt0FhZtV1OY4WswYdnxNg++s9fUuKrqzesJjv3I9jvbDcq3SA01MN5M5mpz9m/uUKtbd0vjCelnMDmurPngQvtZL86sZKIxmE8P3LtlxJ0+N/S7YX92+9tOmrtipbIgidjYRAoqW4F34Vw0t6dbEpCABCQgAQl8mwIKyu7qWi9wNsRE3BN9WNfH9eJ6MF8dN+OCSXjSfjDfk80H8w32J3FYFFcb9iy7U8bdTnVWzkrF1j8y2ORD0MyFJGRkkZufS/bebSTtLfborBedBWW4zZElE/E1D2ZqRDzpWbnk5WSyPeFL9js3SFuvsP3dFzEFBBOWmEnO/l0kL53BMFMbe5Sp5+SycZh9X+HTlK/Zn7mNL3cXOfpcy6G4T1mauIvcwuOcPH6YrxM+YLThz6zUypar5zV7mRNoYmDIUtKy88ndt52EXc563OizJyvKdYUsHGk/04aJoOgjzfuwG6ap47nobCb1uAQkIAEJSEAC3S+goOyJeW05Fevnc+Cd2ez/cD4HJj5PXJ+nSP4o12UV8y7VX68kZ9Jwkn/7DOufeor1z3qRMmGByzmB3SnjScc6KmuhInsdH08bxxB/A5PJwG/wGEIWZ3PTjZVaZ82dB2V7orzB0aRwZkwYir/hhZfPAIa/8kcSTjcf1WirOk7SJ1MJCjAw+wTy8h9eawjKrydccjFsbNV24xCrZ40h0MeMETCCyTE5VNn7bLtB3mfvM3nUQHzNJkzmfgwcNZk/rcziosv258Za6qnYs4C3RtvLeuE9YCRTlzjqsRdwo89ujd1el+06+8LHExAwjrDMay0De0Nn2p+Lxr7q/xKQgAQkIAEJ9CQBBWV3Z8N2m9prLn/9oq6Y4+Psp4d7mvTPzrcRityt+PtdzlrxBVMNP97fWfP9htDoJSABCUhAAhLocQIKyu5OyfVkdv/qVyQNGU3GaxPZ5vdcwzaMuOenUuTcWuBuXd/bcnc5kbaBzbtzKCgs5OC+zSx+cwjmQR+wu9VBeN9bIg1cAhKQgAQkIIEeI6Cg7OZU2MrTOThlJF95/ZoNv/wlG37jy9YpH3Hm6C03a1AxrJfImPd7ggJ9MZu88A54iVdCo9hyqlor8np5SEACEpCABCTQ4wQUlHvclKhDEpCABCQgAQlIQAI9QUBBuSfMgvogAQlIQAISkIAEJNDjBBSUe9yUqEMSkIAEJCABCUhAAj1BQEG5J8yC+iABCUhAAhKQgAQk0OMEFJR73JSoQxKQgAQkIAEJSEACPUFAQbknzIL6IAEJSEACEpCABCTQ4wQUlHvclKhDEpCABCQgAQlIQAI9QUBBuSfMgvogAQlIQAISkIAEJNDjBBSUe9yUqEMSkIAEJCABCUhAAj1BQEG5J8yC+iABCUhAAhKQgAQk0OMEFJR73JSoQxKQgAQkIAEJSEACPUFAQbknzIL6IAEJSEACEpCABCTQ4wQUlHvclKhDEpCABCQgAQlIQAI9QUBBuSfMgvogAQlIQAISkIAEJNDjBBSUe9yUqEMSkIAEJCABCUhAAj1BQEG5J8yC+iABCUhAAhKQgAQk0OMEFJR73JSoQxKQgAQkIAEJSEACPUFAQbknzIL6IAEJSEACEpCABCTQ4wQUlHvclKhDEpCABCQgAQlIQAI9QUBBuSfMgvogAQlIQAISkIAEJNDjBBSUe9yUqEMSkIAEJCABCUhAAj1BoOOgbKsk4etdzCu+ja0n9PZh7YO1lN0roonLuSHnh3WONS4JSEACEpCABHqdQMdBuf4kIyIieSHvJlY3h2arOYJ/eBg/mNd4eWzTCW67+dw2i1lusr/oLHk1bT76cNxp2cX73gZTN1a473wthelGX/r2bbx4v7eD2gfRuFPB0awsTlzXR6IHYdRzJSABCUhAAhJ4eAS6PChju0PJ1SsUXi7lvbURPGhQrruwh38JX8GsC+5G9V44OfcRlLHeoqK4iKKifJb/3syDBuX6Y4t42XiZRcfqeyGguiwBCUhAAhKQgAS6XqDrg7Kzj7YqYjZEKig7PTq6vp+g7KzPepnEEENB2emhawlIQAISkIAEJNBFAi2DsqWSdTsS+J8Lo/hhRAz/Evc5Pw9rtfXCdpt9+Wn0W72Mv42I4u+WrWd83nmutO5QZ0G5s3qsZbyxJLxpC4dzK8cP5oXzk23F3HW211k9znKdXVtvsX3/Zp5dsoDHIhbw88+38GHxLepaP892nX3h4xkQMI6wzGv3t6f4Tglp0dMZM9AHwyeQl6cGM9yr1dYL6w0KE+bx1sRh9PfxYUDQFP49/gg3Wu+M6Cwod1ZP3SEih5matnA4t3L07Wti4Cc5WJzj76weZ7lOry1czotn7vQJvNTfG7PhS8DQ8bwdfwqtZXeKpwISkIAEJCABCXSjgEtQvk1y6jIemb+W4PxTbC86wYJdG/lvn7oGZQvZmWv5mwVxvF5wln0V50nK+Yp/jljIgCOt9jF3GJTdqaeOS9crKTyxnZ+HL+N3J65wvLKy4XK62uIIqO7U447mXXbtXMVjUZ8xIe8UacUnCd+8msfDV/LmuaZI3lhRXSELRtqDpYkR0UfuDdKdNWe7QeaHwzD3/x1zE/aQk5VBwsJpDDW5BuU7fBP7Kv0CJxOZnEXhscPsjXuPUd4DCE252HIfc4dB2Z16arl2vpSiHZ8w3BjOJzuKKCkpoaSklLLKOw5nd+rpbOD2x61c2TmH4WYfgkJjSEjL5EB+LvvSk0j7pur+PnS406zKSEACEpCABCQggfsQaArK1psHMSKieCHvRnMQa3Uwn626kMCohbz0jetZMGqJ37SAR9cf5JzramcHQdmTejrao+xJPR3Z2KoO4x8ZybPZlc3B13qVj9ZE8vgXR7jQ4slWKguSiI1NpKDS833T1osJhHh7MzW+vNm51dYLW+UWQv0G8O726y7hsZod7/tjvJHAJddmOwjKntTT0R5lT+ppQdX6B8thooO86D89mQrXMbQup58lIAEJSEACEpBADxBoCsp3z27nJ2ErCHU9aK5VUL5bnMZ/+TScvwyP5FGXyw8/DeMvl+8h2zX8dBCUPamno6DsST0dWdvr+VlYLDPLXQdgZf/uFTwSk0Z6F+4JsOR8wkDzKGK+cam0VVC2HJjHIJMJL8PAcL2YXsBrVAyuT6WDoOxJPR0FZU/q6cjZen49kw2DmZt1GryOnPSYBCQgAQlIQAI9Q6A5KDvC4gzXsNhGULYHyt+fuNq0DcK5HeLE9ZqWp4HrJCi7W0/dhb38op2zXjgDrlv96cDbXs9P2w3K6V0clOcyyDyKhYUuu59bB+Uce5mRzNt11rENwr4VovFSWn6t5WngOgrKHtRTf2wxo9s564XFg3o6YMZaHs8UwyA09abLSnlHz9BjEpCABCQgAQlI4LsTaArKtuoj9I+M5H/tu9x8oFyroOws88u9F1uG4jb7f5vYLyJ59IsjXG71uCf11F3O4unwxUwqdlmBddTnST1g42JZAX/KPMSeatc9ItCdWy9sV1OY4WvwysrTzQfKtQrKzjITlh1vGYpbOTb8aLtOygwDY0YKrU+B7Ek99WdWMtEYzKcHmg7fa2rNk3rs+5Db3ZpiKSBquBcDZm3mouvifVNLuiEBCUhAAhKQgAR6jkBTUIa77N65ikcjlvPi10dJKTlH+qk9/Dq85cF8X+/5jL8OW4wpPY+4ohIyis/wef4hUm+2DJ/2wLRv53L+Mupzph09y9bTx1h0+qpjD7AFt+u5e5oxC8L5yYZM1p0tJf3MMaJPXPG8Hms5M5bZz6IRzj/tPN8cUhvmwn4w30oei1rN+NyTbD17gk83r2r3YL6FjoP5gu7nYD5qOLRgLIZ3EG/HprIvL5/cPTFMMlwP5rvNkSUT8TUPZmpEPOlZueTlZLI94Uv237O5t47CBUF4+QUzf2sW2ZnbScosdpxBwoN6avYyJ9DEwJClpGXnk7tvOwm7ijyvp66Q9n2sVGz9I4NNPgTNXEhCRha5+blk791G0l5nn3vOL4d6IgEJSEACEpDA91vAJSjbT0pQRUZOKn2Xx/BXYeE8EhnD/1j9BbPPuhy8Z7vN/kMZ9F+1hP8UHsFfRizkf6zeRHSLI8waUa3VZ5m9cQV/FxHBY9HLeX53Mded3m7XY6X41C76xcbw12H2emJ5Yc/91HOblPTV/Dh6FZNP19z71b/1FtuyvuJfF0fzw/Bo/mFNCnPOtn96uIAHOT1c/RXy1v2ZP4wKxMfLhNk3kOET32TJfpe9u9YbHE0KZ8aEofgbXnj5DGD4K38k4fS9K+vWq/tZ8tYoBnib8Q4YwZRFOVQ5P7e4XU89FXsW8NbogfiavfAeMJKpS+6jHsfp89r3sVCRvY6Pp41jiL+ByWTgN3gMIYuzueezlvO1omsJSEACEpCABCTwHQi0DMrfQQfUpAQkIAEJSEACEpCABHqigIJyT5wV9UkCEpCABCQgAQlI4DsXUFD+zqdAHZCABCQgAQlIQAIS6IkCCso9cVbUJwlIQAISkIAEJCCB71xAQfk7nwJ1QAISkIAEJCABCUigJwooKPfEWVGfJCABCUhAAhKQgAS+cwEF5e98CnppB6yl7F4RTVyOyynteulQ1G0JSEACEpCABCTQloCCclsquq9zgVZ/TbDzJ4DtWgrTjb707dt48X5vR+d/ebCjiu9UcDQrixOt/yRhR8/RYxKQgAQkIAEJSMBNAQVlN6FUrJXAfQRlrLeoKC6iqCif5b8386BBuf7YIl42XmbRsXv/CEur3upHCUhAAhKQgAQk4LGAgrLHZHpCg8D9BGUnnfUyiSGGgrLTQ9cSkIAEJCABCfRIAQVlT6bldhGl899iu//zxD/9NBueM7Fp+GtkJxa5/EnsOmpy1nJg8jCSf/0McU89TXzfQNI/2EK11dmYO2WcZR/02sLlvHjmTp/AS/29MRu+BAwdz9vxp/BoHfZOCWnR0xkz0AfDJ5CXpwYz3Mtg6sYKmoZlvUFhwjzemjiM/j4+DAiawr/HH+GG889pO4fSWVDurJ66Q0QOMzVt4XBu5ejb18TAT3KwNLXjZn+c5du97iLDduvXAxKQgAQkIAEJ9EQBBWV3Z6X+HKcn9SWuzxOs7zuEnSFvkOb3DOv6PEniB1mOsFhPVeIbJD71BOueeIINffuTOmIEqQEmkt/dTV1DW+6UcbdTnZWzcmXnHIabfQgKjSEhLZMD+bnsS08i7Zsql3DfST22G2R+OAxz/98xN2EPOVkZJCycxlCTa1C+wzexr9IvcDKRyVkUHjvM3rj3GOU9gNCUi81h2t5Uh0HZnXpquXa+lKIdnzDcGM4nO4ooKSmhpKSUsso7jnG5U08n4254uIsM3WlKZSQgAQlIQAIS6FECCspuTof10Dw2PdWHdc9N4vQF+1psHZc/6Ueca1C+vYds05Ose/I50hcdpNZ1ydbmWFZ1p4ybfbIXs9bWUF1VRZX9Ul1DbdPyLmA5THSQF/2nJ1Pher8H9Te0cTGBEG9vpsaXNwfeVlsvbJVbCPUbwLvbr7sE8Gp2vO+P8UYCl1zb7yAoe1JPR3uUPamnQ44uMuywDT0oAQlIQAISkECPFFBQdmtabNQm/J71ffqwfvxaxxaKe4Oy7WgUmxvC9EzO3W67YnfKtP3Mtu6t42DkS5gcZ5HoaxpOVEHjurW9tPX8eiYbBjM3P9gp3Cw5nzDQPIqYb1ySf6ugbDkwj0EmE16GgeF6Mb2A16gYXJ/a0YqyJ/V0FJQ9qactWed9XWXorE/XEpCABCQgAQn0HgEFZbfmykZt4uTGoDx6NVUNq6NtBeVIUhqCcmgHQbnzMm51qaGQjaqyoxw6eJCD9suho5RVN28ItpbHM8UwCE296bLK637tzpIdflIhAAAgAElEQVSWnLkMMo9iYWFzCKd1UG4oM5J5u846tkHYt0I0XkrLr7U8DVwHK8qNbblXT/2xxYxu56wXntTjHGdb111l2Fbduk8CEpCABCQggZ4toKDs5vw0rQQ/E0RBbiX1NeUUzzS13HpRvYOsvo6tF0sOc9d1u4GzHXfKOMs+6LWlgKjhXgyYtZmLbfXFzfptV1OY4WvwysrTzQfKtQrKzjITlh1vGYrbasN2nZQZBsaMFFqfAtmTeurPrGSiMZhPDzQdvtfUmif1gJXKgiRiYxMpqGwF1UWGTR3TDQlIQAISkIAEeo2AgrK7U2W9wNkQE3FP9GFdH9eL68F8ddyMCybhSfvBfE82H8w32J/EYVFcbdi54E4ZdzvVWTkrFVv/yGCTD0EzF5KQkUVufi7Ze7eRtLfYg7Ne1HBowVgM7yDejk1lX14+uXtimGS4Hsx3myNLJuJrHszUiHjSs3LJy8lke8KX7L9ng3QdhQuC8PILZv7WLLIzt5OU6eyPB/XU7GVOoImBIUtJy84nd992EnYVOcblQT11hSwcaT+Lhomg6COOgy6dtl1l6KxP1xKQgAQkIAEJ9BYBBWVPZqq2nIr18znwzmz2fzifAxOfJ67PUyR/lNt8kBt3qf56JTmThpP822dY/9RTrH/Wi5QJC7h0x9mYO2WcZR/02kJF9jo+njaOIf4GJpOB3+AxhCzO5mbzLo3OG6m/Qt66P/OHUYH4eJkw+wYyfOKbLNnvsv/ZeoOjSeHMmDAUf8MLL58BDH/ljyScdtnb7GjJenU/S94axQBvM94BI5iyKIcqZ3/crqeeij0LeGv0QHzNXngPGMnUJfdRj+06+8LHExAwjrDMa21sU+kiw86VVUICEpCABCQggR4koKDs7mTYblN7rSnpQl0xx8fZTw/3NOmfnW8jXLlbscpJQAISkIAEJCABCfREAQVld2flejK7f/UrkoaMJuO1iWzze65hG0bc81MpumdrgbuVqpwEJCABCUhAAhKQQE8VUFB2c2Zs5ekcnDKSr7x+zYZf/pINv/Fl65SPOHP0lps1qJgEJCABCUhAAhKQQG8SUFDuTbOlvkpAAhKQgAQkIAEJdJuAgnK3UashCUhAAhKQgAQkIIHeJKCg3JtmS32VgAQkIAEJSEACEug2AQXlbqNWQxKQgAQkIAEJSEACvUlAQbk3zZb6KgEJSEACEpCABCTQbQIKyt1GrYYkIAEJSEACEpCABHqTgIJyb5ot9VUCEpCABCQgAQlIoNsEFJS7jVoNSUACEpCABCQgAQn0JgEF5d40W+qrBCQgAQlIQAISkEC3CSgodxu1GpKABCQgAQlIQAIS6E0CCsq9abbUVwlIQAISkIAEJCCBbhNQUO42ajUkAQlIQAISkIAEJNCbBBSUe9Nsqa8SkIAEJCABCUhAAt0moKDcbdRqSAISkIAEJCABCUigNwkoKPem2VJfJSABCUhAAhKQgAS6TUBBuduo1ZAEJCABCUhAAhKQQG8SUFDuTbOlvkpAAhKQgAQkIAEJdJuAgnK3UashCUhAAhKQgAQkIIHeJKCg3JtmS32VgAQkIAEJSEACEug2AQXlbqNWQxKQgAQkIAEJSEACvUlAQbk3zZb6KgEJSEACEpCABCTQbQIuQfkuOYf3MPXgBSzd1rwaalPAVs2xlEVEfHmUujYL6E4JSEACEpCABCQggW9boDko224yPy6Sxzad4Pa33WoX13+rdDdPRy/i+eyLD0fIt17ki6kG3u/toLaLrb7t6mryY5g44EWmrD2pkP9tY6t+CUhAAhKQgAS+VYFvNShXXTtLZMYm+q5Ywo+jE1hc5RxLLWu+jOKR1VkctjXeV381m38Ni6RfQTWOu5yFO72uKEzkR/PC+UlqEdWdlu4FBbo8KNu4XZZFfNS7/GHMUAICppN0xalcxba3vTFPXMkZa6ONtWQNr5kN3tpU6eFc2KhMnYXfCyYGfriPO72AWl2UgAQkIAEJSEAC7Ql8S0G5jmNHtvCLhSsIyDjA6tOlZF28xqV6RzdsV5izej6PRq7lzw2BzcaJ7M95PDyK/2/vxftYibxL0cVLnHtY9ox0aVC+S8mWDxg98GVmRq4jNTOfwpPnuOa0shax6hVfDN9XWX3WnpStlH4ejK/hw5ilx3FOWXsvoHvut1VTfuIUl5SS76HRHRKQgAQkIAEJ9C6Be4Ly/7VgOf9vzHweDY/mv65K5r2iW47gWk/q1hge++IIl1qP0XKCYZGLCC5ujFW3y/fyy5gEoq4401irJ9QXE7zocwZ/uZxn91dSb7vOp+tieTHpc/7z5tNN2w1sNScJXr2Uv4uM4C/C5vOz2I1MOXIZ58K0reYI/uFh/GBe46XtbSO32ZaZyG9WLOMnUVE8Eh7Nf1udzLtnbnq+TcN6i+37N/PskgU8FrGAn3++hQ+LnT4uY7RdZ1/4eAYEjCMs85qHq7L2rNq49cIUOIJRg/phGH4MmTCb5VmXHMHVwv6PA/GensI158Kws/k7Gbzr+yJzcxrta48uYcLg6Wwsaie5WnKYOzSY2bNGELymBKu1jLgpI3n7nWAC52Q2Gdmu7WLuxJcY4GvGZPZl0JhphG05zW1H+7ZrKUw3+tK3b+OlzW0jthvkLJ/F5LHDGOjvjdnwY+grs1n2dcV9fDiycDkvnrnTJ/BSf3tdvgQMHc/b8ac8D/dOO11LQAISkIAEJCABF4F7gvIjq9OIPV3MjrPH+fOXy3gkaiMxN+xpyMqhzNX81WfZfGP/se42Z6/XUGN/5EY+L0Su4YPL9gfusGHTQh5dspbfrljCf56/kP+68gv+cOQSN50N137DoKh4Io7v5BefH+DYtTxMsTvZkLeRH31xhMvOctbr7Dhxlt3lF8krL2Z52lp+FLaC0HLHOqetlrJrlRy/WsafPm9nf7Vj7/Uja3ex4WwpGUXH+D8JS/nLyA1E3ZMynQ23dX2XXTtX8VjUZ0zIO0Va8UnCN6/m8fCVvHnubssn1BWyYKSJvn1NjIg+4nkIdARl88R5pGTmkJ+Tzuq3h2H2m0ZihX3Vt55TsePxee0ziu0/3r3OhfOVDVsdrBUbmer7CquKrGC7Rcb7ARjDX2Py2KEE+gcwZNxbhKecotoRcKnexmz/EOIz5jN68jpKyuKZOmY+GfEh+E1P4bqzXF0Z+TuzOHT0BCcKc0gJew0/88vEFDo+DFmruXyuhJKSAmIntbO/2jmu4Ggy9ueRl7WdlaEv4eU7lY1ljn0fLSXb+cnKlZ1zGG72ISg0hoS0TA7k57IvPYm0b6o8/2DSTiu6WwISkIAEJCCB77fAPUHZdVXWeusg5vAoAo7cbggfVwu/5K8WpZNRD1ePJvM3EfEsuGnDUr6bf45KZq39yLP6En4fE8H/k5jN+pIKCi6V8+XXX/CzsMWMPdVYj/V6Lr+JSmDprXJCV8YxNWMDfXad5/yRBP5mTQ7HneGs9dxYTjNmfiS/zb1Oi1hlqyJmQ8dBueW4DmGER+JXUON2qLJVHcY/MpJnsyubg6/1Kh+tieTxL45woUVfrVQWJBEbm0hBZYuetijV7g9tbL2wXkrgDcObmZuvY8PGjdRQfIaEkWexcWPbbPp5v0HCRSt1hQsZ1W822+2btS0HmDfIzIjZa8jIO8bp04XsXvEWg7wGM2fPjYaxW8+vZ3K/6Wy6VEjMuMlERE5l7MIjXE6ZQb/gtZS01/07e5nT32DyhvMt58J6mcSQjoOy62qz9XIiIYbBdE/2Q1sOEx3kRf/pyTR8bmgXUg9IQAISkIAEJCCB+xfoMChTf5ZXFkTyK/v2CHvuOreDf4z4kpW3G1eNfxg2n/6Hq7l5fBM/Wr6bLPsi5p2jBNpD6GGXEGqr5OM1kfxo04mGVeW6ir38z8gvWXWnnty9q/hh+MqGVeIbR5N4PHYvOY5wVl9TRtS2L3h66SJ+PD+Gf1y+nL8Pj+CZ/Vdbfr3uYVCmvphXXcblDt/d4jR+FhbLzHLX5Ghl/+4VPBKTRrrHm3k7aLWNoIwli48CDX5n3x5hX9A/FMkwn1C23LhJxvsDMMz9mJFyleqMd/EbFUNhHdhuphJqD6FfuWz/sJawNtjA772MhgMf648tYYxvKKk3LRxfOhbDGE3MUQvV297Gd/RijjnGZb1WwMa5bzFxxCAC+g9k2MsjCDTMvPpZ8QMFZSzZfOwyrg5Umh5qCPeGwczNjWG/6QHdkIAEJCABCUhAAl0o0ElQLiY4JrIpmNqqCvCJXM27JccYviiB9zM38vcJh9mRtZa/SSjkqr1jd48xJCKC/53dGK4b+2phXVIUP1x/kHM2uFuSzv8dmcy6u2CrvcHBSze4BtQc38RfL0pnhz2c2W4QEx/ND5cm8+GJMvIvXya3NJcB0c39aXaoYpEHK8r2oOw6ruZ62r9lD8o/bTcop3dDUM5h7iCjKZjariQxzXc8y/K2896Q6cQuDyEw9CvyV71Kv9AtNOyWqUnjHW8zwWtLXcLsbdLe8cZ4PYFLVrDkhTHY9x3SasBWdYFTp8q5ZYM7Ge/iOySMfPvOCusFEqf5Y4x4hzU7D3Gy6AzH8+MIHdDcnyY52xWSPFhRxr5H2mVcTfV0cMNaHs8UwyA09abb3wh0UJ0ekoAEJCABCUhAAm0KeBSUsZYRsmQBxpcb+a9J33Cx6ggDFm6g//oF/GKP44As60XeWxnREJwrnE1aL/LHFRH8ZOvZhnM03zm5mccjvuKLVn9No/ZkCo9HbSHZHpTrzzB2fgTPZLmsHteXMmVRW0H5DqsTInk0/nCrLRD2wN3G+aHbDco2LpYV8KfMQ+xp2sTbOIjveuvFPYGyroCo4f6EzAphyDvbqLySQujAqcx4vT+jFx9rXHGvP8nycWb6hW6m0rmdpe4ES8eaGfhRVsNBk3d3/xu+Pu+zq9U2a4v9fv85ZNqDsiWTOf5mXl19tjlwW/IJG9JWUL5FaqiB8WYyV51turwO7jk/dLtBuYPtKxb72L0YMGszF10X+J3t6FoCEpCABCQgAQl0gYBnQZnbrP4yiv/waQxjTtk3JN8mLnkh/2FeNCNOOJOWjVP58fwobAkDs4s4cKmc9TvX8bcRq5ld3piMrxUm8ljUFja12q5Qe3oL/zEimbX2qmzXiIibz2MrtjD/zHnyLl3iwLlcBi5oKyhbyd+7ikci1zDp8BlST3/DwpNXGvcSexKUreXMWBbOD+aF8087zzed8aHR2X4w30oei1rN+NyTbD17gk83r2r3YL6FjoP5gh7gYD7Xvbz3BGXbDVJn+fCCaSBz9lQ3rMCnvxvACy/48f4O59mkrZR98QZ+XkOZtXYfx04VkrFgEv29x7PkqH3+bNxKDcXbGYhdXlCWzDn4ezv2OlvLiP+DL95j5vDF14c5ceoUxw6uZ1ZgG0GZek4uG4fZ9xU+Tfma/Znb+HJ3UWNwb3NLSTsrynWFtG9opWLrHxls8iFo5kISMrLIzc8le+82kvYWt9yW4zIm3ZSABCQgAQlIQAKeCHgYlG0c2beGR5ftZI9jNbj6bBr/PSKOT13PIGGrYVfOFp5bsoBHw+fz05WJzD7tPB2bjXP58Ty6YBuprYLy3aKt/F3ERhY5zv9298YZ3t/0Of+0MJpHwyJ5fP4i/nFFHL8/fqt5ZdMxWtvtMv785Ur+PiKCR6OX89vdxVy3P+ZJUOY2Kemr+XH0Kiafdtlj7RS13mJb1lf86+JofhgezT+sSWHO2fZPDxfwgKeH6zAoY6Vo1SsYQVEUOD6j3MmZy1DvycS5nkHCWsnBdR/w++H9MQxfXhwXypJM5+nYrFxKeAMj8GP2O05e4RyqJetDBniHNP1hEkvF18S+F0zQi34YZgPf/i8ybOxk5mVcuncubhxi9awxBPqYMQJGMDkmhyr76rInQdlxir32DS1UZK/j42njGOJvYDIZ+A0eQ8jibG62Xsl2DkrXEpCABCQgAQlIwAOB5qDswZNUVAISkIAEJCABCUhAAg+7gILywz7DGp8EJCABCUhAAhKQwH0JKCjfF5ueJAEJSEACEpCABCTwsAsoKD/sM6zxSUACEpCABCQgAQncl4CC8n2x6UkSkIAEJCABCUhAAg+7gILywz7DGp8EJCABCUhAAhKQwH0JKCjfF9v37Em2ao6lLCLiy6ON56b+ng1fw5WABCQgAQlI4PspoKD8/Zx3z0bd1vmPPavhOytdkx/DxAEvMmXtSYX872wW1LAEJCABCUigdwooKPfOeeveXnd5ULZxuyyL+Kh3+cOYoQQETG/6wyZQxba3vTFPXMkZx5+ntpas4TWzwVubKvHsb4nYqEydhd8LJgZ+uI873aum1iQgAQlIQAIS6OUCCsq9fAK7pftdGpTvUrLlA0YPfJmZketIzcyn8OQ5rjn/MqC1iFWv+GL4vsrqs/akbKX082B8DR/GLD3u+Z+ntlVTfuIUl5SSu+WlokYkIAEJSEACD5OAgrIns3m7iNL5b7Hd/3nin36aDc+Z2DT8NbITi1xWOuuoyVnLgcnDSP71M8Q99TTxfQNJ/2AL1Y4VUnCnjCcd66ishct58cydPoGX+ntjNnwJGDqet+NPuR86HUHZFDiCUYP6YRh+DJkwm+VZlxx1WNj/cSDe01Nw/UvmDb26k8G7vi8yN6cxCdceXcKEwdPZWNROcrXkMHdoMLNnjSB4TQlWaxlxU0by9jvBBM7JxJmnbdd2MXfiSwzwNWMy+zJozDTCtpzmtmPJ2XYthelGX/r2bby0+HPgTi7bDXKWz2Ly2GEM9Lfb+DH0ldks+9r5J76dBd257gJnd5pRGQlIQAISkIAEuk1AQdld6vpznJ7Ul7g+T7C+7xB2hrxBmt8zrOvzJIkfZNGYgeupSnyDxKeeYN0TT7Chb39SR4wgNcBE8ru7HXtk3Snjbqc6K2flys45DDf7EBQaQ0JaJgfyc9mXnkTaN1Uu4b6TehxB2TxxHimZOeTnpLP67WGY/aaRWGEfeT2nYsfj89pnFNt/vHudC+crG7Y6WCs2MtX3FVYVWcF2i4z3AzCGv8bksUMJ9A9gyLi3CE85RbVzT0X1Nmb7hxCfMZ/Rk9dRUhbP1DHzyYgPwW96Cted5erKyN+ZxaGjJzhRmENK2Gv4mV8mptARpa3VXD5XQklJAbGTDNoMys5xBUeTsT+PvKztrAx9CS/fqWwsa/pU0wmO/eEucnajJRWRgAQkIAEJSKD7BBSU3bS2HprHpqf6sO65SZy+UI99VfjyJ/2Icw3Kt/eQbXqSdU8+R/qig9Taizn/szkSnjtlnM9x49paW0N1VRVV9kt1DbWu+c5ymOggL/pPT6Yhz7pRX5tF2th6Yb2UwBuGNzM3X8eGjRupofgMCSPPYuPGttn0836DhItW6goXMqrfbLZXA5YDzBtkZsTsNWTkHeP06UJ2r3iLQV6DmbPnRkNwt55fz+R+09l0qZCYcZOJiJzK2IVHuJwyg37BaylxHZ9rZ+/sZU5/g8kbzjs+tDgetF4mMaTjoOwaoq2XEwkxDKZ7sh+6q5xdx6PbEpCABCQgAQl85wIKym5NgY3ahN+zvk8f1o9f69hCcW9Qth2NYnNDmJ7JudttV+xOmbaf2da9dRyMfAmTY3tBX9Nwogrqmgo2hE7DYObmxhDa9ICnN9oIyliy+CjQ4Hf27RH2jw2HIhnmE8qWGzfJeH8AhrkfM1KuUp3xLn6jYiisA9vNVELtIfSra82r2dYS1gYb+L2XgT1L1x9bwhjfUFJvWji+dCyGMZqYoxaqt72N7+jFHHN8+LBeK2Dj3LeYOGIQAf0HMuzlEQQaZl79rPiBgjKWbD52GZc7VF3m7E5jKiMBCUhAAhKQQLcJKCi7RW2jNnFyY1AevZqqhlXNtoJyJCkNQTm0g6DceRm3utRQyEZV2VEOHTzIQfvl0FHKmvYwgLU8nimGQWjqzeZg6n7lzSXbDMo5zB1kNAVT25UkpvmOZ1nedt4bMp3Y5SEEhn5F/qpX6Re6hRv2BfWaNN7xNhO8ttQlzN4m7R1vjNcTuGQFS14Yg33fIa0GbFUXOHWqnFs2uJPxLr5Dwsi376ywXiBxmj/GiHdYs/MQJ4vOcDw/jtABzf1p6rztCkkerChj3yPtMq6mejq40WXOHbShhyQgAQlIQAIS6H4BBWU3zZtWgp8JoiC3kvqacopnmlpuvajeQVZfx9aLJYe529Y2AXfKuNmnTotZCoga7sWAWZu52FZfOq3AUcCNoEydvS1/QmaFMOSdbVReSSF04FRmvN6f0YuPNR70V3+S5ePM9AvdTGXTXuMTLB1rZuBHWdTatzfv/jd8fd5n192WnbPY7/efQ6Y9KFsymeNv5tXVZ5sDtyWfsCFtBeVbpIYaGG8mc9XZprNqd8blLIuVyoIkYmMTKahshdlVzk1t6YYEJCABCUhAAj1BQEHZ3VmwXuBsiIm4J/qwro/rxfVgvjpuxgWT8KT9YL4nmw/mG+xP4rAorjZsG3CnjLud6qyclYqtf2SwyYegmQtJyMgiNz+X7L3bSNpb7PFZL1z38t6z8mq7QeosH14wDWTOnmqw3SD93QBeeMGP93fYN1XY/7NS9sUb+HkNZdbafRw7VUjGgkn09x7PkqP2mGzjVmoo3s5A7HiW/cqSOQd/b8deZ2sZ8X/wxXvMHL74+jAnTp3i2MH1zApsIyhTz8ll4zD7vsKnKV+zP3MbX+4uahy7J0G5rpCFI0307WsiKPpIqz9e0kXOLuPVTQlIQAISkIAEvnsBBWVP5qC2nIr18znwzmz2fzifAxOfJ67PUyR/lNu8ssldqr9eSc6k4ST/9hnWP/UU65/1ImXCApdz+bpTxpOOdVTWQkX2Oj6eNo4h/gYmk4Hf4DGELM7mZusV1vaqcStQWila9QpGUBQFjtXgOzlzGeo9mTjXM0hYKzm47gN+P7w/huHLi+NCWZLpPB2blUsJb2AEfsx+53ngHH2yZH3IAO+Qpj9MYqn4mtj3ggl60Q/DbODb/0WGjZ3MvIxLLnPR+GTbjUOsnjWGQB8zRsAIJsfkUGUfu1vjcnTAdp194eMJCBhHWKbLHusmsy5wbqpLNyQgAQlIQAIS6AkCCsruzoLtNrXXXM79W1fM8XH208M9Tfpn5x9sD7C7fVA5CUhAAhKQgAQkIIFuE1BQdpf6ejK7f/UrkoaMJuO1iWzze65hG0bc81MpeqBzr7nbAZWTgAQkIAEJSEACEuhOAQVlN7Vt5ekcnDKSr7x+zYZf/pINv/Fl65SPOHP0lps1qJgEJCABCUhAAhKQQG8SUFDuTbOlvkpAAhKQgAQkIAEJdJuAgnK3UashCUhAAhKQgAQkIIHeJKCg3JtmS32VgAQkIAEJSEACEug2AQXlbqNWQxKQgAQkIAEJSEACvUlAQbk3zZb6KgEJSEACEpCABCTQbQIKyt1GrYYkIAEJSEACEpCABHqTgIJyb5ot9VUCEpCABCQgAQlIoNsEFJS7jVoNSUACEpCABCQgAQn0JgEF5d40W+qrBCQgAQlIQAISkEC3CSgodxu1GpKABCQgAQlIQAIS6E0CCsq9abbUVwlIQAISkIAEJCCBbhNQUO42ajUkAQlIQAISkIAEJNCbBBSUe9Nsqa8SkIAEJCABCUhAAt0moKDcbdRqSAISkIAEJCABCUigNwkoKPem2VJfJSABCUhAAhKQgAS6TUBBuduo1ZAEJCABCUhAAhKQQG8SUFDuTbOlvkpAAhKQgAQkIAEJdJuAgnK3UashCUhAAhKQgAQkIIHeJKCg3JtmS32VgAQkIAEJSEACEug2AQXlbqNWQxKQgAQkIAEJSEACvUlAQbk3zZb6KgEJSEACEpCABCTQbQIKyt1GrYYkIAEJSEACEpCABHqTwHcblC032V90lrya3kTWjX2VTzdiqykJSEACEpCABCTQUuA7Dcp1F/bwL+ErmHXB2rJX+qlBQD56IUhAAhKQgAQkIIHvTkBB+buz77RlBeVOiVRAAhKQgAQkIAEJfGsCLYKy7e4lYtM20icmmh+GRfJ49GL++fPdbL3r0r71Ftv3b+bZJQt4LGIBP/98Cx8W36LOpYjtzgWW7NyC72cr+O8Lonk0LIK/mr8U//xK6u3lrGW8sSScH8wLa3UJ5yfbinFtzqXatm+60Z+GJ9qusy98PAMCxhGWeQ1b27V1eG+v9MHC5bx45k6fwEv9vTEbvgQMHc/b8aca56LDEetBCUhAAhKQgAQk8P0VcAnKVvbtjOWRmAT+dPwcORcvklV6hs8OF3OmKVXeZdfOVTwW9RkT8k6RVnyS8M2reTx8JW+ea4639ZU5/O/w+TybdpiNRaXsLSsjo+gk6ZUNMRmo49L1SgpPbOfn4cv43YkrHK+sbLicrrZ4EGLd60/D9NYVsmCkib59TYyIPtIi2Ls3/b3Rx8qVnXMYbvYhKDSGhLRMDuTnsi89ibRvqjxwdk9IpSQgAQlIQAISkMDDJOASlOtI3ryAR1bsIL2mKRm3GKut6jD+kZE8m13ZHDStV/loTSSPf3GEC47SjUE5hlfPOoNxi2qafnjQrQXu9qexQSuVBUnExiZSUHk/e6J7nw+Ww0QHedF/ejIV9zPkppnSDQlIQAISkIAEJPD9E3AJylBbeZRxK+bzF1HL8dqcyeKzldx0ycx3i9P4WVgsM8tdU5eV/btX8EhMGumOXNxdQdnd/nTVtPY2H+v59Uw2DGZuvqHV4656EageCUhAAhKQgAS+NwItgnLDqK23KTh9iLdT1vMPkRH8bP0+dt9u9LAH05+2G5TT7yMo7+UXD3DWC3f706Wz2Yt8rOXxTDEMQlNvKih36YtAlUlAAhKQgAQk8H0QuDcou4z6TmUe3lGR/ObAdexryO5udXB7RflyFk+HL2ZScUdbNGxcLCvgT5mH2FPtsrztQX8ah/SgWy9cYBw3e4ZPB+OyFBA13IsBszZz0fVLgMJvSaMAACAASURBVHuHonskIAEJSEACEpCABFoJuATlOnYfSOOPB0+Sfv4i+RXn+Sp/C78Ij2ZgYY1jRdJ+8NxKHotazfjck2w9e4JPN69q52C+zvcoc/c0YxaE85MNmaw7W0r6mWNEn7jSvP/Z3llrOTOW2c+QEc4/7TyPpcUA3OtPw1PqClnoOJgv6L4O5uuhPh2Oy0rF1j8y2ORD0MyFJGRkkZufS/bebSTtLdZZL1q8lvSDBCQgAQlIQAISaCngEpRvk7H/K36zPIbHw8L5i7D5/GR5HEH7zlLquhppvcW2rK/418XR/DA8mn9Yk8Kcsy1PD+fuijJYKT61i36xMfx1WASPRcfywp5irrfo421S0lfz4+hVTD7tDOwuBdzoT0Npx+nhAu779HA91KfTcVmoyF7Hx9PGMcTfwGQy8Bs8hpDF2S32n7uI6qYEJCABCUhAAhKQAOASlOUhAQlIQAISkIAEJCABCTgFFJSdErqWgAQkIAEJSEACEpCAi4CCsguGbkpAAhKQgAQkIAEJSMApoKDslNC1BCQgAQlIQAISkIAEXAQUlF0wdFMCEpCABCQgAQlIQAJOAQVlp4SuJSABCUhAAhKQgAQk4CKgoOyCoZsSkIAEJCABCUhAAhJwCigoOyV03bME7lRwNCuLE9db/jXGntVJ9UYCEpCABCQggYdZQEH5YZ7dXjy2+mOLeNl4mUXHOvrz5r14gOq6BCQgAQlIQAI9XkBBucdP0fezgwrK389516glIAEJSEACPUlAQdmT2bhdROn8t9ju/zzxTz/NhudMbBr+GtmJRTRvEKijJmctByYPI/nXzxD31NPE9w0k/YMtVDf9KXB3ynjSsY7KWricF8/c6RN4qb83ZsOXgKHjeTv+FJ6s1dpqTpESNo2xg/wwvAx8AwYzatJCsqtd2q6/TM6afyN4uD/e3v0ZPukD1hy43KId262jJEd/wJuvjmJooL0uMz7+Q5n+RSkNPHWHiBxmom/fvq0uJgZ+koPFpbnOb3bN2DtvRyUkIAEJSEACEngYBRSU3Z3V+nOcntSXuD5PsL7vEHaGvEGa3zOs6/MkiR9kNYY86qlKfIPEp55g3RNPsKFvf1JHjCA1wETyu7upa2jLnTLudqqzclau7JzDcLMPQaExJKRlciA/l33pSaR9U+US7jurp47CBSMxD5pObEY+x04cpzA/k60p2ZxvCv/VHIwei3e/CXy4cTcHDuxiw5zx+BpjiD7YnKatJWsJNnwJDktmZ1Y+BYcLyMvaSW6pMwLXcu18KUU7PmG4MZxPdhRRUlJCSUkpZZV3POhzV429Mxs9LgEJSEACEpDAwyqgoOzmzFoPzWPTU31Y99wkTl+wr8XWcfmTfsS5BuXbe8g2Pcm6J58jfdFBal2XbG2ONWd3yrjZJ3sxa20N1VVVVNkv1TXUNgVXwHKY6CAv+k9PpsL1fg/qbyxaS+ac/pjHRpJ7ve2KbFe+YrqvQfDakuYV5Ppi1gQb+M5I4apj+I1BOZCPs53BuO3OPPDWiy4be9v9070SkIAEJCABCTz8AgrKbs2xjdqE37O+Tx/Wj1/r2EJxb1C2HY1ic0OYnsm5221X7E6Ztp/Z1r11HIx8CZNzm4JpOFEFjevW9tLW8+uZbBjM3HzDg5XYttoBS2kqfx7TD5NfEK/PWUpSdqnLVhKw5MxlkHkUMUeb27d/mDgaMwrz4E/JdeTi7grKXTn2tkV0rwQkIAEJSEACD7uAgrJbM2yjNnFyY1AevZqqhkXVtoJyJCkNQTm0g6DceRm3utRQyEZV2VEOHTzIQfvl0FHKqpt3S1vL45liGISm3nzgoNzQXN11Tmd+yeIPpvCSr5lBr6/g0I3G9uxB+cV2g3LYfQTlxYx+gLNedPnY3Z8UlZSABCQgAQlI4CERUFB2cyKbVoKfCaIgt5L6mnKKZ5pabr2o3kFWX8fWiyWHudvWLgV3yrjZp06LWQqIGu7FgFmbudhWXzqtoP0Cd0vjCelnMDmurGF/dpdvvTizkonGYD490NEWDSuVBUnExiZSUNlqgN/i2NtX0SMSkIAEJCABCTxMAgrK7s6m9QJnQ0zEPdGHdX1cL64H89VxMy6YhCftB/M92Xww32B/EodFcbVhz7I7ZdztVGflrFRs/SODTT4EzVxIQkYWufm5ZO/dRtLe4ua9xJ1VQy2H4j5laeIucguPc/L4Yb5O+IDRhj+zUisdq9U1HIweg3e/8fx7/C6ys3cQN2dcOwfzdb5HmZq9zAk0MTBkKWnZ+eTu207CrqKWfa4rZOFI+xkyTARFH3EcLOkcTFeN3VmfriUgAQlIQAIS+L4JKCh7MuO15VSsn8+Bd2az/8P5HJj4PHF9niL5o1zHWS/sld2l+uuV5EwaTvJvn2H9U0+x/lkvUiYs4NIdZ2PulHGWfdBrCxXZ6/h42jiG+BuYTAZ+g8cQsjibm827NDpuxHaDvM/eZ/KogfiaTZjM/Rg4ajJ/WpnFRdctyfbTw616n9eG+mEY/rz0uz+xKudSi3Dr7h5lqKdizwLeGm1v0wvvASOZuiSHKtc+266zL3w8AQHjCMu81sb2ki4Ye8cyelQCEpCABCQggYdYQEHZ3cm13ab2WlPShbpijo+znx7uadI/O99GSHO3YpWTgAQkIAEJSEACEuiJAgrK7s7K9WR2/+pXJA0ZTcZrE9nm91zDNoy456dS9GDnXnO3ByonAQlIQAISkIAEJNCNAgrKbmLbytM5OGUkX3n9mg2//CUbfuPL1ikfceboLTdrUDEJSEACEpCABCQggd4koKDcm2ZLfZWABCQgAQlIQAIS6DYBBeVuo1ZDEpCABCQgAQlIQAK9SUBBuTfNlvoqAQlIQAISkIAEJNBtAgrK3UathiQgAQlIQAISkIAEepOAgnJvmi31VQISkIAEJCABCUig2wQUlLuNWg1JQAISkIAEJCABCfQmAQXl3jRb6qsEJCABCUhAAhKQQLcJKCh3G7UakoAEJCABCUhAAhLoTQIKyr1pttRXCUhAAhKQgAQkIIFuE1BQ7jZqNSQBCUhAAhKQgAQk0JsEFJR702yprxKQgAQkIAEJSEAC3SagoNxt1GpIAhKQgAQkIAEJSKA3CSgo96bZUl8lIAEJSEACEpCABLpNQEG526jVkAQkIAEJSEACEpBAbxJQUO5Ns6W+SkACEpCABCQgAQl0m4CCcrdRqyEJSEACEpCABCQggd4koKDcm2ZLfZWABCQgAQlIQAIS6DYBBeVuo1ZDEpCABCQgAQlIQAK9SUBBuTfNlvoqAQlIQAISkIAEJNBtAgrK3UathiQgAQlIQAISkIAEepOAgnJvmi31VQISkIAEJCABCUig2wQUlLuN2oOGbNUcS1lExJdHqfPgaSoqAQm0IWAtZfeKaOJybmBr42Hd1UpA7z+tQPSjBCTwfRb41oLyrdLdPB29iOezL2L5Pgvfz9itF/liqoH3ezuovZ/n9/Dn1OTHMHHAi0xZe/LBPgjcqeBoVhYnrn//4o8MPXiRW3bxvrfB1I0VWN18mu1aCtONvvTt23h54N/F3vRa7cXvP132e+Hm66TXFbPcZH/RWfJqel3P1WEJfGcC31pQrihM5EfzwvlJahHV39nwemnDvfgfqs7FbVSmzsLvBRMDP9zHnc6f0G6J+mOLeNl4mUXH6tst83A+IEOP5vU+gjLWW1QUF1FUlM/y35sf+ENrr3qtdvn7j43bZVnER73LH8YMJSBgOklXnB9uq9j2tjfmiSs54/gUYy1Zw2tmg7c2VXr4DUDX/V549PrqRYXrLuzhX8JXMOuCux8Ze9Hg1FUJfEsC31pQhrsUXbzEOS0nez51Xf4Pledd+FafYaum/MQpLj1ISgZ6VfjoalAZui96P0HZWbv1MokhD/7tTq96rXbp+89dSrZ8wOiBLzMzch2pmfkUnjzHNee/C9YiVr3ii+H7KqvP2sObldLPg/E1fBiz9DgefwTuot8L5/Q/bNcKyg/bjGo83SHQFJTrLuYxcOUS/mPEfH66IoHg9E38r5ho/nZpPDOLqpu+srTVnCR49VL+LjKCvwibz89iNzLlyGWqHL211RzBPzyMH8xrvDy26QS37xnJbbZlJvKbFcv4SVQUj4RH899WJ/PumZv3btOwXWdf+HgGBIwjLPOahysMjQ3bak6REjaNsYP8MLwMfAMGM2rSQrJdl7qtNyhMmMdbE4fR38eHAUFT+Pf4I9xwLnwAtmu7mDvxJQb4mjGZfRk0ZhphW05z27XMraMkR3/Am6+OYmigvT0zPv5Dmf5FaZMhWLicF8/c6RN4qb83ZsOXgKHjeTv+VOM/DI5/qEyBIxg1qB+G4ceQCbNZnnXJ83846i+Ts+bfCB7uj7d3f4ZP+oA1By57Vo/tBjlLZ/DaqEH4G16YfQIZNfVD1h+sdBkT2DoZu1tfZ9vbWj6LyWOHMdDfbuPH0Fdms+zriuZtGnWHiBxmavpa3Pn1eN++JgZ+knPva+ie15/LHV3hY39tdDL2hhbdeI1Rf5kDaz5g0ogAvM1mfAKGMmby28Q69te6ZWjvT2eveXcN3eizW2N3IW/3ZhfNBXdKSIuezpiBPhg+gbw8NZjhXq22XrgxrsY56yQod1ZPFzq36+b6QFcYdvr+Y2H/x4F4T0/hmst7X0M37mTwru+LzM1pTMK1R5cwYfB0Nha186nYksPcocHMnjWC4DUlWK1lxE0ZydvvBBM4J7Ppd7mz9163fi/ceW9xtezodlc4239P714iNm0jfWKi+WFYJI9HL+afP9/N1rsujVtvsX3/Zp5dsoDHIhbw88+38GHxreb3Q3s9dy6wZOcWfD9bwX9fEM2jYRH81fyl+OdXOv5NKeONJeFN/y47/33+gf1b323FuDbn0nLbN7to7G1Xrnsl0PMEmoJy7ZlUfhy+nj+dqyApYzWPRMTx3tnzfL51BY8u302W85sa63V2nDjL7vKL5JUXszxtLT8KW0FoueOzv62WsmuVHL9axp8+j6TNoGy7yfy4SB5Zu4sNZ0vJKDrG/0lYyl9GbiCq9TtvXSELRtpDkYkR0UdavDm4x1lH4YKRmAdNJzYjn2MnjlOYn8nWlGzOO8fEHb6JfZV+gZOJTM6i8Nhh9sa9xyjvAYSmXGwOg3Vl5O/M4tDRE5wozCEl7DX8zC8TU+hcHgFryVqCDV+Cw5LZmZVPweEC8rJ2klvqLGPlys45DDf7EBQaQ0JaJgfyc9mXnkTaN1WNHwQc/1CZJ84jJTOH/Jx0Vr89DLPfNBIrmjrtxvCrORg9Fu9+E/hw424OHNjFhjnj8TXGEH3Q9VNCJ1U5+mNMimFP3iEO7t/Gytkj8fYZT0xB88egTsdurebyuRJKSgqIndTOKp1z7MHRZOzPIy9rOytDX8LLdyoby5xjr+Xa+VKKdnzCcGM4n+wooqTEXm8pZZV3PPgw1UU+9nWwTufdnddYDQULx+HtO5b/E7eDnIMHydkRTbDZJeS5Y4g7r3l3DN3psztj7+T11fBwF82F7QaZHw7D3P93zE3YQ05WBgkLpzHU5GLo7u+7vV8drii749N1zp0rdpGh83ew3fefek7Fjsfntc8otv9K3r3OhfOVDduorBUbmer7CquKrPZPj2S8H4Ax/DUmjx1KoH8AQ8a9RXjKKaqdAbt6G7P9Q4jPmM/oyesoKYtn6pj5ZMSH4Dc9habDDzp773Xn98I5rg7fWzpXhi5yxsq+nbE8EpPAn46fI+fiRbJKz/DZ4WLOOH24y66dq3gs6jMm5J0irfgk4ZtX83j4St481xxv6ytz+N/h83k27TAbi0rZW1ZGRtFJ0iuda/J1XLpeSeGJ7fw8fBm/O3GF45WVDZfT1Zbv5D3THWmVkUBPEGgZlCM2sd4Cd4u28Z8jkvn8Ltw9u52fRiTyWXtHlVlOM2Z+JL/Nvd4cKO0js1URs6HjoOwaoq23DmGER+JXUNPql9ZKZUESsbGJFFQ6g5IndLVkzumPeWwkudfbfr6tcguhfgN4d/t1l7ar2fG+P8YbCVxq+2lwZy9z+htM3nC+aeyNgSmQj7OdwbhVXy2HiQ7yov/0ZNrNvI43dNcDiKyXEnjD8GbmZtc+tqq71Y+2K18x3dcgeG1J8wpyfTFrgg18Z6RwtenNuNUTW//YRn+wnGblKwb9QjdT6ain07E76+0ofLTRlvVyIiGGwfRWexYf9OvsLvNpCsrtz7s7rzFb5WZC+xm8supM8wfC9rYNdGRI569551R0ZOhOn+31uD3vzkbbuO6qubBeTCDE25up8eVNv5O0MnR3XA3d7MDZk3q6wrkNthZ3dZUhbf0Otnj/sXEjNRSfIWHkWWzc2Dabft5vkHDRSl3hQkb1m812++dwywHmDTIzYvYaMvKOcfp0IbtXvMUgr8HM2dN4BhLr+fVM7jedTZcKiRk3mYjIqYxdeITLKTPoF7yWEg/eezubrzbH1c57SwvYVj90mTN1JG9ewCMrdpBe0/absa3qMP6RkTybXdn8nmC9ykdrInn8iyNccPStMSjH8OpZZzBu1WnHjw+69aLrxt52/3SvBHqiQNtB+ew2/j4iibW1cLc4jf8S8SWrHN+c1deUEbXtC55euogfz4/hH5cv5+/DI3hm/9XmMGYfqYdBmfpiXl0Qya/2O74q6kItS2kqfx7TD5NfEK/PWUpSdinVLm/AlgPzGGQy4WUYGK4X0wt4jYrhG8d7j/VaARvnvsXEEYMI6D+QYS+PINAw8+pnxU3/KHcWGhr+YTAMZm7u4FRVbfxDhSWLjwINfmf/etJNG0vOXAaZRxFz1PUkc3UcjRmFefCn5LaT5e+pvq3+4KzH/o9l4zM6G3tTvR2Ej7b+McOSzcdtjL2j8NHUVgc3uszHjbDozmusoYw5iAWFLvPVKuQ1DacjQ3tG6eQ176ynI0N3+myvx+15dzbaxnVXzYUl5xMG2l/zzl9ae1utDN0dV0M3O3D2pJ6ucG6DrcVdXWXY9u9gy/efukORDPMJZcuNm2S8PwDD3I8ZKVepzngXv1Ex2F/CtpuphNo/4H7lsmXOWsLaYAO/9zIaDvKuP7aEMb6hpN60cHzpWAxjNDFHLVRvexvf0YtxHqfrzntvZ/PV9rjafm9pAdvqhy5zBmorjzJuxXz+Imo5XpszWXy2kpsumdn+7+/PwmKZWe76rm9l/+4VPBKTRrrj36buCspdOfZWrPpRAj1WoJ2gnMbPohwryq5B2XaDmPhofrg0mQ9PlJF/+TK5pbkMiI68NyhTxSIPVpTtQTk4pq16usiu7jqnM79k8QdTeMnXzKDXV3DIsQG58Zd/JPN2nXV8hW//Gr/xUlp+rfEUbdYLJE7zxxjxDmt2HuJk0RmO58cROsDwLCiXxzPFMAhNvemyet1qjG0FU/tevkEt22r1rHt+tI/rxXaDctgDBuV6vln0MuZBn3LA06Bsu0JSewdIeTD2+mOLGf0AZ73oMh83wqI7rzFL9scEmkez2JkO7DPaKuQ1TXJHhs5CHbzmnUU6MnSnz/Z6uiood8VrtbHPo1jYwYcNd8fVYNRRUG74INrJ+4YDuiucnXPW3rV9XF1h2HagbPn+Y7uSxDTf8SzL2857Q6YTuzyEwNCvyF/1Kv1CtzQe21GTxjveZoLXuh6fcZu0d7wxXm/8ps6SF8Zg33dIq7GvrVzg1KlybtngTsa7+A4JI9/+3uLme2+DS0e/Fx68t7RnbL+/y5ydjVhvU3D6EG+nrOcfIiP42fp97HbsaLMH5Z+2G5TT7yMo7+UXD3DWiy4fu9NA1xLowQJtBmXX/rZYUa4/w9j5ETyT5bJ6XF/KlEVtBdw7rE6I5NH4w01fDzXV69ij7Lr1ov2g/KBbL5pabbpxtzSekH4Gk+PKGlZnbVdTmOFrMGHZ8fbPW2zJZI6/mVdXn21e0bXkEzakZXjtNDRYCoga7sWAWZu56LpI0NQ7+z8MbZxHud2g3L5Pl31N1lZ/rGWsn2zgMy2Jy45xdDp25xhtt0gNNTDeTL53+0dbbbUz9vozK5loDOZTZ1J31t/iuht83AiL7rzGGr9t8Ob1BJfz/bYblDswbDH+xh9av+adRToydKfP9nrcnne+/blw9vmVlaebDgRr/WHDWabD33cnkO06KTMMjBku+2Udj3lST1c4Nzb77Ru69f5TZ38f8ydkVghD3tlG5ZUUQgdOZcbr/Rm9+Fjjt4v1J1k+ztxiexZ1J1g61szAj7Ia3mvv7v43fH3eZ1fzdtuGYVrs9/vPIdMelN187214Yhe9t9jPvtHelr8ue191vI5cr+5U5uEdFclvDjRuZezyrReXs3g6fDGTijvaovHdjN3VQbcl0JMEPAvKtmtExM3nsRVbmH/mPHmXLnHgXC4DF7QVlK3k713FI5FrmHT4DKmnv2HhySuN+6w8Ccp1hSx0HMwXdF8H89VyKO5TlibuIrfwOCePH+brhA8YbfgzK9V5ns7bHFkyEV/zYKZGxJOelUteTibbE75kv3MjsbWM+D/44j1mDl98fZgTp05x7OB6ZgV6GJSxUrH1jww2+RA0cyEJGVnk5ueSvXcbSXuLHUcoexCUO/Sp4WD0GLz7jeff43eRnb2DuDnj7vtgPtOQEBYmZJCVvZuET17F3+slPsxs3kLifmCq5+SycZh9X+HTlK/Zn7mNL3cXeT72mr3MCTQxMGQpadn55O7bTsIuRz3O37Lu8HErLLrzGrvC9ndfxBQQTFhiJjn7d5G8dAbDWhyI5hxYB4a485p31NOhoRt9dmvsjra6ZS5qOLRgLIZ3EG/HprIvL5/cPTFMMlwP5nNvXI29th8YGYSXXzDzt2aRnbmdpEzH7yke1NMFzg396Q5Ddz6s2m6QOsuHF0wDmbOnmv+/vTMBiipL8/2LmJ7ujuk38WY6pmPeEjMT0fEiXkQtWm1VdXV1aZI3SXbEDRFEEbVQlBK3wtJWq0ssV3YUV0pcChBFXFDLBVeURdkUCnFBodDCDUUBwYTM/4ubGwnkcrNMEeRPBJHLPfec7/t955z7z3PPOReaRpxc7IFhw1yx9JRhobAadXtnwdVpFBbsuojKG+XIWTcd7oogbKoQF71o8PxoBBQGQayvJuKLKjcSbgr9XGeJfa/udCvtQopfBht6gzPacfbSCfyt5DpO3r2P4vq7OFR8BP8vJhHe5Ya1OuJivm34bfx2BF2+jh9uVyHqcIqFxXy25yjj5U0ErovBH3bnIvV2LU7eqkRilf663Ku+GwrjKwn0fQL2CWVxgXPjLSw9+D3+uF7cgiYOv0vYgP/8Lg3Trj3vHGnV+615UYfl+7bh32Jj8ZvErfjr2Tt4Kh6zRyjrt4fz+KXbw2kaUbRjKUL9vaGUyyCTu8DbPxRfb8vDfZOpoFA3omJ/DOZPGqXdAs3J2RO+k/+GzJudv7xV9ReQvCQEfsNdIcgFKN2HY8yEUKzNeWD0XZpYVKG+IBWrZk/ESDcBMpkA1xGBCN9YoJufZk+HbouPuJVPylJMHeUKQXDD6M+/RkqhndvM6e1x8v0cM/29oJA7w2v8XMQdv93lgSHSfNdVDk1jKbYvCISXsxyCx1iEJhWiSZybZ4/v6ED9uXWYO16MrRMUnuMQtkmfj6Ht9QYfqWJRQh3TNF3D/tVh8PMQtNvwBcycqhXKX2R21jGja5YYSq3z2oxsMJRgs+S491Is0PEIRanLtXXV2UkGudILvsFzsCm/80edlPZu4Kx+nI9Nc/3hqZBD4TEWMzaY1DEJfHT5vDpnbT69wVBSG1SjOmUyBL94lOlHg1sL12CUIhRpxt1pxIbRgJLUZZjm6w5BUGL4xAhsyjVs9ajGg8xZELxWIV8/fcvAXJW3Ap6KcOODSaT0vYZzHdK39AZnvEBO/iF8ujUJv4uO0W63+oetafC7eBu1pncb1c9xLO8QPtyYiF/HJOI/dmYj8nbX7eGkzlEWR8rv3DgDl+Qk/FN0LH6bmIxh5/TXZSNA3ZasFq+5jrimGMriKwn0AwJGodwPbKWJb4qAuQvnm7JlgJWrrt+LMMEVS0/zmbMDLPR0lwRIgARIoA8QoFDuA0Ho8yZQKPdSiF6i6sRuHD5biLLycpRcPIyNc0ZC7rMMZ02ffNNL1rAYEiABEiABEhjoBCiUB3oNkOI/hbIUSq+eRv0AOWunwc9LCbnMCQqP0ZgcEY8jN5ot75Dy6qUyBxIgARIgARIgAQsEKJQtgOHXJEACJEACJEACJEACA5sAhfLAjj+9JwESIAESIAESIAESsECAQtkCGH5NAiRAAiRAAiRAAiQwsAlQKA/s+NP7vkRA04zK7A2I3Veh22+8L9lGW0igvxFQ1+Lsd4lIKzTZFrC/+dCb9rL/6U3aLKsfEaBQ7kfBeltMbSlOQrDncMzYdZ2C0DSob/miSYfFvbUeFXl5qHoqbrw9sP7I0I54W3qqpZUsNE+yMU8YiqFDdf+KJacsP63VSj7GQ/2prvbj/sdh7cIYuLfsTX+qh30QPYVyHwzK222SBg1HF8B1mAzeKy52eWDJ2+23BO/68YXKtneOi3tH5QYECAHYUNn5MCDb5b8NKcjQrij+AqEM9XPU36lGdXUxtk6T41WFcr+qqw7vfzR4UZeHjPjFmBk4Ch4e84wPkAGacOwrBeTB23BL/3AVdc1OTJULmHvQ8MRcqdF2XLuQWmJ/S9ev6mEfhEuh3AeD8tabpGnGvaobeND61ntqn4MOv1DZV/xrT+2guA/oTp8MpVfTXyKUDbmrHyIrXKBQNvCw+/Ulao4sw3jvAHwZl4qjucUov/4TnhiewKiuRspkJQTlFGy/LSplNWq/D4FScEbg5muw+yewg9qF3W72kxMGdJ/pgBhRKNsD8UU1ahPm4rjbZ8gYPBi7P5HhoO9UFGRVm+xz246Wwl24FDoGB/4yBGnvD0bGUC+cXHYEzcbHkkpJY49hVtKKjxvd+XeE6iAghAAAIABJREFU+LpBoXCH7/Rl2HnpoV0dUcf1DCwIGgk3ZxcMnzAfa2IXY7KPG9x9ZyEpr8H4+G7NkzNYEzwanko5ZHIlfAJnI/rITbzQ3yGXdFtT04jCrQsQOmEMvN0UkAuuGDV5IbZcMDz21oqv3Q5pWm4gO3o2Jvi4QnASoPQYAf/p61HQbJJQ3YjyzLWYGzwG7s7O8PSbgW8zrsL0+R62/BJz0zyvwIHEZZgzxR+jvMTy5HB2G4V5e2uNfAAVHhZlYM28SRjtLvqmhMeoIHyVcUMXD71QlnmNhb+PCwTBFSMnLcTWPDsfOS4a5IC4Q4zF5vmY6u+jfay73NkL/mErkF7SGXMpvjss7u2liBsjM94WN9weHzpUBu/VhTBcg02ia/mtI/hIjbuEOibG69LOZZg+1gMKuRzOHqMQGPoVkvXzayUxFO2xVeelMpRgs7Q6bzkExiMOigVaa3AicR4CvZ0hOHshICwEvk4CwvbUd7ZBCX5p7bIllG3l40DORk7W3jiCoc3+R4X8VV5QzMvGk+6znlpzsFg5HGsKda2wrWITJo2Yhz3VFkZDVIVYMyoECxeMRcjOGqjVdUibMQ5fLQqBV2SusS3b6nsltQsHXlMc0q9KaadirCXE1GYblFoPrdUtwzEJ9hiSvm2vFMpSI9rxE25OH4q0d95F+tCROB0+CydchyD1nfeQtSxP3xF3oClrFrLefxep776L3UPdcXTsWBz1kOHA4rP6+bhS0kg1yla6ZpQkToDCZRJW7DmLS5fOYHdkEJRCIBJLTNWi9XxUF7+FhzADySWVOB8XBLlzKLYWXsHxVQEQ/NejvF1/fnsdik/nobSiClXlhciOngpXeQCSyvUSRt2Mhz/VoKamDMnTLYzW6DtreUgicvKLUJR3HNsiRsNJGYY9dcZfGtYN1h5tR/m6cZD7zENyTjEqq66hvDgXP2QX4K4xm1b8mDwFLl6hiDuQh/LKKziftgT+Ck9EZN/vvLja8kscD6nZhRBBiZDoAzidV4yyK2UoyjuNy7UG+abGo9OR8JU7wy8iCZkncnGp+DIuntyPEz826X5oGXwPXovs3EIUF57E9q/GQO46G1n1RqMl+O6YuENvjzA9CeeKSlGSfwzbFo6DwjkISWUvjHbY9N1hcW/Dk7u1qD61Gr6CL1afqkZNjVifalHX0GryY9VomoU3DuIjKe5S6lgLytZPhEI5Ad+knUJhSQkKTyUiRG4i8qQwhJQ6L4WhFJul1HkL+Lt87aBYaBqRu2IM5O6fY03mORTm5SBz/WyMkpkwhDS/tOZZFcpS8nEc5y64zH5wEEOb/U8HbiQHwXnqDtwRu6OXT/Hz3Qbt9Dl1/R6EKScjpVotjhogZ6kHBN+pCJ0wCl5uHhg5cS5ism+g2SCwm49hoVs4MnISMD40FTV1GQgLTEBORjhc52XDuPzAVt8rpV0Y/Hrla4qDOEtqp9LKstn3Qko9NFupun0pzZ5uJ701HymUJYZSXboWB99/B6mfTMfNn8UbQ+14uNoFaaZC+cU5FMjeQ+p7n+DkhhK0md4/0uh7CClpJNokJlO3taC5qQlN4n9zC9pM9JTm0SHMUwoI2VXTOYLccQc7QwQo52fjsaHTslGeVig7L0ZOK6DKWwkv54U43gKoCldjuPMC/NBkIYPW84h0FxC6+26n6NQabeW2pr5TM50bqH6YhXBBwDy75q61ITfSHfIJcbj81ASKiamahiOIcPXE4uNPTURWM04tdYMwKxMPzJ8GmPFL12F5YVWBQRibFCS+VV1Bop8T3OcdgEXNa873B5mYJSjw5WFTG7vl3e2jo+JuEMqmsYDqJrZNFuAScRgN+vpj03eDfdbEhznfLcT9VW8jOoyPUShbjruUOqZpOIwIFwGTU251Lm61NG3AGkPYrvOGUFhjKMVmMR/JcTcUaubVUbFQ389EuEKBsIx7nX1NN4ZS/dKaaYWzPfk4grMZbF2+chRDc+1d3aX/0aDxaAScR0ajSKVB47GFcFHMQuZ9NdrL18PfZSGOi+MvqktY6yPH2IU7kVNUiZs3y3H2u7nwcRqByHO6HUjUd9MR6jIPBx+UI2liKGLjwjBh/VU8zJ4Pl5BdqLGj77UVL7N+WehbuoDt9sFhnCW0U6llSW2D1uphNzfNfpRqj9mT34IvKZQlBVGDtsxpSH/nHaQH7dJPoegplDUV8TisFdNf4qfOAbcuJUhJ0+UEqx/aURI3GjL9Cu2hMl/ElxmGd0UhuwY+cn8kVXR+Jwr8iiR/yEdE4bIFTde9yC5CuWCVTig3i/3hWvg4R+DoM51iUj8pw541cxE81gce7t4YEzAWXoIcU3bc6bx4iZlbuQiZ69SgKsAqLwGfi7fouhtn5bOq9iiWB7pA5uqHLyI3Y39Brcn0F739MhmcBAGC6b9sGJz8k/Cj/oeOFL9sdVjaC4Mg4MvDVraqMiMWocrDSjt9d1TczcbCWH/Ei6UOvi3fjSFyUNxftdN3GB8JYlHbRmzUMW0auR/WGW/NiGLjDJYqTEdD9RStMRRPs1HnDbGwxlCKzWI+kuNuKNTMq6NiIf5o9xb7OkOjFcvqxlCqX1ozrXC2Jx9HcDaDrctXjmJotr1363/aS+MwxjkCRxqfIWepJwS5C+ZnP0ZzzmK4+idp7y5qnh1FhDiwcehJ5wCEuga7QgS4LsmBqKU7KjchUCleO1S4tnkCBGE8kipUaD72FZTjN8KwTldK32srXub9sv+a4jDOEtqp1LKktkFr9bBLZbLwQao9Fk7v919TKEsKoQZtWaE6oTx+O5q0as2cUI5DtlYoR1gRyrbTSDJJm0iDproKlJaUoET8L61AnfHelk4oD7colKN/mVAWxbfLIu3IgfaCYRDK6p+RNdsNwthF2Hm6FNerb+FacRoiPIWeQlnzCPstLZQxKxYLscbHTD5SQLU/xc3cfdi4bAZGK+Xw+eI7lOonIOsa/zisPXNbfwtfvI2v+6+990S3LZREv2x1WOp7GZghCIg4+qzz4tHdfgf5LvrliLibvcCgAz9uCIDcJwqX7BXKDop7R+VGjH+FXS8cxkeCWJRSx1Tij0/5eGw0qAOxXnQTecaqYo2hIZGVOm9IYo2hFJvFfGzVeUNZ1l4dFQudzf5Yb+XHhlS/tPZaE8raAQgb/YbeaUdwtsZPPOYohmbbuziX2KTv1Tzaj9nKIGwpOo4lI+cheWs4vCIOoThlClwijujWdrScwCKFHCG7TNdnvMCJRQoIX+ju1KmKojFCuQgnWgBN08+4ceMenmuA1pzFUI6MRrHYt0jse7V8rLWLvtavGgJqpZ1KjanUNmitHhrMsfYq1R5refTnYxTKEqNnHAke4oeyyw3oaLmHO1/Kuk69aD6FvKH6qRebruClueFPKWkk2mQrmaNul5iOKJuW2UUoq3IR6SbHlO23O0d9VcWIHmlG4Gqe42iEAGHOgZ7TPxzUqZnaaXj/sjYD4S4CQtPqtDZqHmdjvlLApC3XLO+VKtEvmx2Wqgzxvk7wXHAY983VC9FIu3xXo6FsP5KTs1DW0DVDR8XdrD3qOqSHCnCevR8P9cXa9N0QAAfFvePWNgQLIxBlUOqG/Lu89gIfCWJRSh3T3W1Q4ItMk0VnFoWylbbTxX/dh+513pDEGkMpNov5SI47Xn8sDDZP3nbTuBCs+48NQxqr7d0ASPMU2fMFCPNN5svqj9mTjyM464p9/QzNtvduQhntYj/mhvAF4Ri56BgaHmUjwjsM879wx/iNlbopfh3XsXWivMv0LLRXYfMEObxX5mn72pdn/w6l81KceWkArntVid+7RSJXFMoS+17tmQ7qW8TdN157v9rVZe2n7u1Uah8utQ1aq4ed5rwZ3zvL77vvKJSlxkb9M26Hy5D27jtIfcf033QxXzuepYUg8z1xMd97nYv5Rrgha0w8Hmtv5UtJI9UoW+laUJIYCIVLEL7NOIOCglNIi5z4yxbz6ecom5bYRSir65AxUwlFYCT2XriCqhs3UFmSjgVeZoQyOnB9y0TIlZMRlX0B+bnHsO9sdZedH7rOi+06qmFqg+X3bShNi8LmrDO4XH4N169dwYXMZRgvuGHBUcM+nS9wdVMwlPIRCIvNwMm8yygqzMXxzH3IN0wkluiX7Q5Ljfof/oYRMmf4fbkemTl5uFx8GQXnj2H/+Tv2+95ejvXjxB0gZPBLvNo5t1ULxDFxN1w4ZSPDsT4zB3kFZ5G5egrcnEZjRW7nFBLbvhui5KC4t5xHpJcM3uGbcaKgGJcvHkfmGX39MRTVG3wkiUUpdewRji8eDplHCKKzclGYfwYHNs/HmC4L0QyOWWEIKXVen49VhhJsluS7vqxeiUULStdNgKDww1fJR3GxqBiXzyVhumA6fUWaXzqrxYWRfnByDUHCD3koyD2O/bn6dgo78nEAZ609vcFQyg91TSOOLnDGMJk3Is81Q9wZ5+RiDwwb5oqlpwwLxNWo2zsLrk6jsGDXRVTeKEfOuulwVwRhU0WbuOcDnh+NgMIgiPXVRHxR5UbCTaGf6yyx79WdbqVdSPHLYENvcJbUTqX14ZL7Xqv1UO98r/huAN2/XimU7YlX2z3Upyfg0qKFyF+RgEvBnyHtnfdxYOXlzlFUvETzhW0onO6LA38dgvT330f6n52QPWmdyb7BUtLYY5iVtOKWLilLMXWUKwTBDaM//xophfZtNyZpRFns5OovIHlJCPyGu0KQC1C6D8eYCaFYm/PAhI/OVk1jKbYvCISXsxyCx1iEJhWiSZzqbE+nZsVtsQMv2rEUof7eUMplkMld4O0fiq+35eG+6ZRtdSMq9sdg/qRR2i3QnJw94Tv5b8i82bkSU4pf0josFeoLUrFq9kSMdBMgkwlwHRGI8I0F0E7ztsd3zVNcjAmCh8dEROeazAU0MHFA3A2xcPL9HDP9vaCQO8Nr/FzEHb/d5UEx0nx3ZNw7UH9uHeaOF2PrBIXnOIRt0tcfg/+9wUeqWJRQxzRN17B/dRj8PASI2/AFzJyqFcpfZNrRdqTWeS0jGwwl2Cw57r0UC3Q8QlHqcm1ddXaSQa70gm/wHGzK7/xRBwl+GaqQ+nE+Ns31h6dCDoXHWMzYYFLHJOfz6py19vQGQ0n9jxrVKZMh+MWjTD8a3Fq4BqMUoUgz3ZVI3YCS1GWY5usOQVBi+MQIbMo1bPGpxoPMWRC8ViFfP33LwFyVtwKeinDjg0mk9L2Gcx1yTekNzlLbqYQ+XHIbhI16KELsDd8NwepnrxTKUgOmeYG2JyZ7QrbfwbWJ4vZwg3Fyx13L806l5s90JNDXCJi7cPY1G99Se9T1exEmuGLp6Za31EO6RQIkQAL9gwCFstQ4PT2Asx99hP0jxyNnajCOuX6inYaR9lkYqg236aXmxXQk0B8IUCj3UpReourEbhw+W4iy8nKUXDyMjXNGQu6zDGdNn3zTS9awGBIgARIggU4CFMqdLKy+09w7iZIZ43DI6S/YPWgQdn+qxA8zVuJWxXOr5/EgCfRbAhTKvRM69QPkrJ0GPy8l5DInKDxGY3JEPI7caOadqt6JAEshARIgAYsEKJQtouEBEiABEiABEiABEiCBgUyAQnkgR5++kwAJkAAJkAAJkAAJWCRAoWwRDQ+QAAmQAAmQAAmQAAkMZAIUygM5+vSdBEiABEiABEiABEjAIgEKZYtoeIAESIAESIAESIAESGAgE6BQHsjRp+8kQAIkQAIkQAIkQAIWCVAoW0TDAyRAAiRAAiRAAiRAAgOZAIXyQI4+fScBEiABEiABEiABErBIgELZIhoeIAESIAESIAESIAESGMgEKJQHcvTpOwmQAAmQAAmQAAmQgEUCFMoW0fAACZAACZAACZAACZDAQCZAoTyQo0/fSYAESIAESIAESIAELBKgULaIhgdIgARIgARIgARIgAQGMgEK5YEcffpOAiRAAiRAAiRAAiRgkQCFskU0PEACJEACJEACJEACJDCQCVAoD+To03cSIAESIAESIAESIAGLBCiULaLhARIgARIgARIgARIggYFMgEJ5IEefvpMACZAACZAACZAACVgkQKFsEQ0PkAAJkAAJkAAJkAAJDGQCFMoDOfr0nQRIgARIgARIgARIwCIBCmWLaHiABEiABEiABEiABEhgIBOgUB7I0afvJEACJEACJEACJEACFgnYJZQ1LVfhFhON/7ZW9//bg1V4YTFrHiABEiABEiABEiABEiCB/kvALqEMTStqHj9C+cNaLNkVCwrl/ht4Wk4CJEACJEACJEACJGCdgH1C2ZCXpglJu+MolA08+EoCJEACJEACJEACJPDWEegmlDtQV1OEkL078B8J8fjHmAT868btGF70AO2mrtsSypoXuFh8Ai7bt+BfYuPx+y3pCCq6i0cmeWhariNk+2b8Pi4W/xCdgH9P3oMZVx+iyZjmBY7lZuHT77bgD/GiLYn4P9sPYPGtZ1AZ0+jfaJ7iYkwQPD0mIjr3CTTdj/MzCZAACZAACZAACZAACdhJwEQoa3Cv6gj+Kzoef8w8h8TKWzhRW4PsyjKk/tzWVXxaFcoqFOTuwn9fl4Yvym7jYv1d7C88hP8bux6eV59BbTBQ/RSnqm7j7L37KLp3B1tP7MI/R3+HiHsduhSaZ0hIi8M/7jqD3bdrkVNdiW8yN+NXcbsR/6SbFG4vx7pxMgwdKsPYxKtdRb2hPL6SAAmQAAmQAAmQAAmQgB0EOoVyx13M2RKLf9l7BXe66dAe+VkRyprmcnjFr8foH1+YiOs2ZBxch9+kl+AnS3mrbiIwIQ5/vfxUJ6b1Qtl0HrT6eSmEmDi4lrWY5C1ap0ZD2X4kJ2ehrMEoxXuYzS9IgARIgARIgARIgARIQCoBo1BWP72MT2Pi4HHVVOBayMaKUH555wT+Z1QMfhUTh9+Y/P86Khq/2noOBXod29FSh/hjezF48wb8a0IS/nPrVvxbTCyG5D+GdkzZjFBGxx1MWReHj/IbdGksmMevSYAESIAESIAESIAESOBVCZgI5SJ8FhMHr/LWbqO1ZoqwIZT/PToZ06oe41pDQ5f/qqctuu3kNI1IykjErzcfwIqqOhQ/fIjLtZfhmRhnUyiHJJmkMWMavyIBEiABEiABEiABEiABRxAwCmV01CF8cyx+v68ctZamRxhLfIHkvXH4zd6reGj8TvdG03wV7nFxGHT+vuU9ljtuYUJCLIbk6UePxVM7ajFjg4kItjCibF4oc+pFtzDwIwmQAAmQAAmQAAmQwCsS6BTK0KCm4iD+V1Q8/rj3LBKvVeNkbQ1+uPEjNtx43G2BnBoXT2/Fr+K/x+yK2/jhZiU23DSkUeHCuR34p+iNkJ0sQlp1DXLu3ML3xaU4+kyvwDVPEJuWgN9+dwQJt+6i6MEDXPrpMrzX/UKh3F6O9frFfH5czPeKVYKnkwAJkAAJkAAJkAAJiARMhLL4sQN3bl/ClIwU/O/4OPxDVBz+OWkbhHN30NCNl7r5Nhbu+Q6/j43FbxO34rOzd/DUkEbzAvmlOXBP2YT/EROLX8Wux39tP4jEB50L7V423sLSg9/jj+sT8ZvoOPwuYQP+87s0TLv23OJiPnGOstkRZf32cB7cHs4QAb6SAAmQAAmQAAmQAAm8IoFuQvkVc+PpJEACJEACJEACJEACJPCWEKBQfksCSTdIgARIgARIgARIgAQcS4BC2bE8mRsJkAAJkAAJkAAJkMBbQoBC+S0JJN0gARIgARIgARIgARJwLAEKZcfyZG4kQAIkQAIkQAIkQAJvCQEK5bckkHSDBEiABEiABEiABEjAsQQolB3Lk7n1VQLqRlxJ34yD1S/7qoV6u1pRtW8T9lQ8s/2EzD7uCc0jARIgARIggf5OgEK5v0cQajy+vB1fh/jB20UBpccoTJgZiQPVHW/Es5biJAR7DseMXde7PaTm9ZijuvgtPFy/wTmVlfw1DciPmwSlSxCicx/q9um2kvyNHlLfw7GlvhBcp2D95acUy280GCycBEiABEhgoBOgUO7nNUDTmIMlnk4YFZGCnKJylJcW4tyxHJQ/tfkc8tfguQYNRxfAdZgM3isuovU1lGDMsrUGOesjMMnHGbJhMgiuPgiYmYjcJ9397sBP++bAUxGItRcbeork9p9x4txajN0YjI/jguGcshpRlXXGx69rWouwYscsKNYF4+OYAAyJ/xzuO9dgVdlNNBqNAdQNBxAQMw6Dokz//aE4cRUGDa9uuYbvjy3HyA3B+DAmEH9JCseE/Ttw6GGbSU4AVHU4ungU5N4RyL7X+ZCeron4iQRIgARIgARI4HUToFB+3YRfc/4d1zYjUPDDuvL211ySxOw1zbhXdQMPXqtKbkNZoj/kbiGIPXwZlTduoLI0F4czzuB2t4F09aOjWOjpjMlbK9FNjgJoRM6RmfhTlD8+SAjD6JQwfBrtj8HR0/HltSdaUa1pOYXQ2HEYFB0Mtx1/g/+26fgk2h+Doqdizo+dI77qpgLEHIzC7P3i/1pM2hqEwVEmQllTh5RU3XcfJs1DUMZyTN45C5/FLcTmRz3FsKa5GHHjBQz/Ogc9tL/EUDAZCZAACZAACZDAqxGgUJbMTwPVtUMoWzIDx7zk2DtkMNLefQ/pHw/FoRnfo7FDjeYfliNnpBJ7hwxC+l+8cGrWVGQP/RC7/zoc51OvoZuGk1yy2YTtpYgbI8PQoUO7/QsITb/bc+TUbCZAx/UMLAgaCTdnFwyfMB9rYhdjso8b3H1nISmvcwRW8+QM1gSPhqdSDplcCZ/A2Yg+chMv9AO4mifZmCd02qJYcqqnMNU0onDrAoROGANvNwXkgitGTV6ILRfq7Zumoa5GSrAcioXH0WLBL93XalRvnwLBZzlym7qPNAPqR1kYF+OPwQnLkfZUjE4Haosj8WnUOPxp+15cVwNGoRy7EvtaxDxeouTMHK24Fo53jhZ3NaMDJae/wAcmQlndeBhBseMwODYSu01sUbU1Wxh516AxZym8FKFIq+sppLuWx08kQAIkQAIkQAKvgwCFsmSqajSljEf6O+8gVfx/932kDxmC9Pffxe7QLLRpOvA0aRTS3h2CA+PG49DH7yH1vU+QPTEAB4e8i9RPvsRP1lWdZEt0Cdvw5G4tqk+thq/gi9WnqlFTU4Oamlrcfy59dFk7x1eYgeSSSpyPC4LcORRbC6/g+KoACP7rYRyobq9D8ek8lFZUoaq8ENnRU+EqD0BSuX5igboZD38Syy9D8nQBZoWy+j72hgmQhyQiJ78IRXnHsS1iNJyUYdhjjxjUPEb2fCVknmHYnF/fU5AbSKrrkDZNgM/qfDNpNHh8ZQU+ihqHj/acxCP9OZrmEwgRR5Bjl2NPs6aHUG5vvYPv932OD6KCMb3skYUfJD2FsubFeYQniCPR0zGzoBw/t/cU7gazja+tuVjupUDY3noL5RhT8g0JkAAJkAAJkMBrIEChLBlqp1BOD9mNlpd6odPehNan4jwDvVB+X4miyy2oXyZH2iBfVNxsQl3EJ0gdFIDKWvvGlNVtLWhuakKT+N/cgjYzA4sdlRsQIARgQ6V9eRvc1gpl58XIaQVUeSvh5bwQx1sAVeFqDHdegB+aDCm7vbaeR6S7gNDd3Uav1Q+RFW5dKJuKaPXDLIQLAuYdbLBr4drL6gNY7OeMYcPk8Ar6Con7LuFe9+keqlxEugkI3//ITN4dqLoYoR0Z/nN2QaeQbi9ARLw/BsVEYP2Djk6h3GXucQCUB87hrkWt21MoAypUX42Ht5h3lD/+lDgHIcf24YcHTZZFsLpe+8PCe3WBcZ5ztyjwIwmQAAmQAAmQwGskQKEsGW6nUN4967CZqQKmQrkVj2O9kPa+F0rLW3H/WwXSBo1B+U17xGw7SuJGQ2aYWiHzRXxZz5FihwrlglU6odwMqC6thY9zBI4+06lB9ZMy7FkzF8FjfeDh7o0xAWPhJcgxZcedrkLPTqEMVQFWeQn4fGdN13ykxEX1CD/m7MTqcD+4yIZBGbgKZx6Y/JpoPo6FCgUWnTA3lN+BqgvWhXKSqVCODsHYzCiEZ/4dI9aPx+CoYIw9c7XLgr5Ok80JZd3Rl003cazwO4SlTMWfosSpGLOw6NpjC7434dhXCjibm8bSWRjfkQAJkAAJkAAJvCYCFMqSwdonlBsSRyLjwxEoMxXKN+wRyho01VWgtKQEJeJ/aQXqmnsOYTpUKBeugY/LIhzvLpTVPyNrthuEsYuw83QprlffwrXiNER4Cj2FsuYR9tsxogxVIdb4mMlHclzEhCo8uBCNiYIMI6MuwbhTsn5EeVbmAzNCVINHZd/qp17kdE69aDJMvfjW7NQLsTT1s2OYGuePwXErkaWdt9zd2A5czpmpnaOsPFlhfjRY04zy/GX4a/Q4/GlbOn400ffG3NQPkDlLgNcqjigbmfANCZAACZAACfQiAQplybDtEcqmI7/tnSPKdgllaYY5UiiblthlRFkrOOWYsv12p+BUFSN6pBmBq3mOoxEChDkH8Li7rtfPUTadeuEYoSyq12qkTJZD+PIwGg3linOUpwvwXnHB7IK5jod7MTZmHAYnfNtjMd+Q7Zm4oTG3mA9oe7gXAeIiwDjDAj8N7v9cgeo2XcGalzeRsEMcdR6PgIJ7emZtuPeoHqa/dZqqN8I5ehw+2LAFeeZ+Q7XmYeVwBcL2cI6yad3kexIgARIgARLoLQIUypJJD2ChrK5DxkwlFIGR2HvhCqrE7dhK0rHAy4xQRgeub5kIuXIyorIvID/3GPadrdbt+OEooayux8lNiUg7XoCrVbdw60Y5Lu75BgGCEjN313aKeeh3vfD6O04b1bNJwDUNOHxwmnbkV9webkyX7eGeavMx7nqh3R5uMQK2h0MWq5tnLMs6i3pRTLcWYenGAHwQ+zk8U76E+zpRJI/DB+tWYq++XE3LecxODMDHSfMwfve3mJYeAec4MZ+D97D0AAAC/ElEQVQAKI8W4ZmJWbq3GjTlLoePYhq+rzU33NzjBH5BAiRAAiRAAiTgYAIUypKBDmChLE5uqL+A5CUh8BvuCkEuQOk+HGMmhGJtTs9pDZrGUmxfEAgvZzkEj7EITSqEdkc0Rwnl9mocXjkLgT4ukMuGYegwAR5+ofhmZyEedhuZ1e2jLGDCujKzW8lpVLXIPrUSozdMwoexk6BIWdX1gSNtJYhKnQvluiB8FOOPD2KDISQvxbyz51GlX9CpUdXheG4cArdMxcfRAfgwYQZ8M7ch636LcRGh+LCRtJw18N/yOf4s5hMzCU5bl2DuuQu4ZXgiiWldbLuG5MnO8F58Ag2GEXLT43xPAiRAAiRAAiTw2glQKL92xCzgdRKw/Qhr8cl8c+Ep98U3J+sdu5f163JM3YC8qEAovObjwF2OJr8uzMyXBEiABEiABGwRoFC2RYjH+zQB20IZgKYB+XFBUCrGITLnvsnUjD7omvohzq8NgotyEuIK7Nsyrw96Q5NIgARIgARIoF8ToFDu1+Gj8ZIJqJ+iNDUJWTd6Pshach69krAVVZlJSLvS2LcFfa+wYCEkQAIkQAIk8GYJUCi/Wf4snQRIgARIgARIgARIoI8SoFDuo4GhWSRAAiRAAiRAAiRAAm+WAIXym+XP0kmABEiABEiABEiABPooAQrlPhoYmkUCJEACJEACJEACJPBmCVAov1n+LJ0ESIAESIAESIAESKCPEqBQ7qOBoVkkQAIkQAIkQAIkQAJvlgCF8pvlz9JJgARIgARIgARIgAT6KAEK5T4aGJpFAiRAAiRAAiRAAiTwZglQKL9Z/iydBEiABEiABEiABEigjxKgUO6jgaFZJEACJEACJEACJEACb5YAhfKb5c/SSYAESIAESIAESIAE+igBCuU+GhiaRQIkQAIkQAIkQAIk8GYJUCi/Wf4snQRIgARIgARIgARIoI8SoFDuo4GhWSRAAiRAAiRAAiRAAm+WAIXym+XP0kmABEiABEiABEiABPoogf8PCP6ymmg1IvkAAAAASUVORK5CYII=;" vertex="1" parent="4hywxqXHTysx60cE06LW-1">
          <mxGeometry x="38.996687011718734" y="-4" width="714" height="486" as="geometry" />
        </mxCell>
        <mxCell id="4hywxqXHTysx60cE06LW-3" value="&lt;span style=&quot;color: rgb(34 , 36 , 38) ; font-family: , &amp;#34;blinkmacsystemfont&amp;#34; , &amp;#34;helvetica neue&amp;#34; , &amp;#34;apple sd gothic neo&amp;#34; , &amp;#34;malgun gothic&amp;#34; , &amp;#34;맑은 고딕&amp;#34; , , &amp;#34;nanum gothic&amp;#34; , &amp;#34;noto sans kr&amp;#34; , &amp;#34;noto sans cjk kr&amp;#34; , &amp;#34;arial&amp;#34; , , &amp;#34;dotum&amp;#34; , &amp;#34;tahoma&amp;#34; , &amp;#34;geneva&amp;#34; , sans-serif ; font-size: 18px ; letter-spacing: -0.072px ; text-align: left&quot;&gt;&lt;b&gt;중간 산물 Object 파일 목록&lt;/b&gt;&lt;/span&gt;" style="rounded=1;whiteSpace=wrap;html=1;" vertex="1" parent="4hywxqXHTysx60cE06LW-1">
          <mxGeometry x="95" y="-80" width="265" height="60" as="geometry" />
        </mxCell>
        <mxCell id="4hywxqXHTysx60cE06LW-4" value="" style="endArrow=classic;html=1;exitX=0;exitY=0.5;exitDx=0;exitDy=0;" edge="1" parent="4hywxqXHTysx60cE06LW-1" source="4hywxqXHTysx60cE06LW-3">
          <mxGeometry width="50" height="50" relative="1" as="geometry">
            <mxPoint x="372" y="140" as="sourcePoint" />
            <mxPoint x="62" y="-6" as="targetPoint" />
          </mxGeometry>
        </mxCell>
        <mxCell id="4hywxqXHTysx60cE06LW-5" value="&lt;div style=&quot;text-align: left&quot;&gt;&lt;span style=&quot;font-size: 18px ; letter-spacing: -0.072px&quot;&gt;&lt;font color=&quot;#222426&quot;&gt;&lt;b&gt;&amp;nbsp;.c 파일들을 c 옵션을 통해 object 파일을 생성&lt;/b&gt;&lt;/font&gt;&lt;/span&gt;&lt;/div&gt;" style="rounded=1;whiteSpace=wrap;html=1;" vertex="1" parent="4hywxqXHTysx60cE06LW-1">
          <mxGeometry x="422" y="144" width="226" height="85" as="geometry" />
        </mxCell>
        <mxCell id="4hywxqXHTysx60cE06LW-7" value="" style="edgeStyle=orthogonalEdgeStyle;rounded=0;orthogonalLoop=1;jettySize=auto;html=1;" edge="1" parent="4hywxqXHTysx60cE06LW-1" source="4hywxqXHTysx60cE06LW-6" target="4hywxqXHTysx60cE06LW-5">
          <mxGeometry relative="1" as="geometry" />
        </mxCell>
        <mxCell id="4hywxqXHTysx60cE06LW-6" value="" style="strokeWidth=2;html=1;shape=mxgraph.flowchart.annotation_2;align=left;labelPosition=right;pointerEvents=1;rotation=-180;" vertex="1" parent="4hywxqXHTysx60cE06LW-1">
          <mxGeometry x="263" y="57.14" width="45" height="307" as="geometry" />
        </mxCell>
        <mxCell id="4hywxqXHTysx60cE06LW-8" value="&lt;span style=&quot;color: rgb(34 , 36 , 38) ; font-family: , &amp;#34;blinkmacsystemfont&amp;#34; , &amp;#34;helvetica neue&amp;#34; , &amp;#34;apple sd gothic neo&amp;#34; , &amp;#34;malgun gothic&amp;#34; , &amp;#34;맑은 고딕&amp;#34; , , &amp;#34;nanum gothic&amp;#34; , &amp;#34;noto sans kr&amp;#34; , &amp;#34;noto sans cjk kr&amp;#34; , &amp;#34;arial&amp;#34; , , &amp;#34;dotum&amp;#34; , &amp;#34;tahoma&amp;#34; , &amp;#34;geneva&amp;#34; , sans-serif ; font-size: 18px ; letter-spacing: -0.072px ; text-align: left&quot;&gt;&lt;b&gt;각 실행 파일들을 한데 묶는 링커 과정&amp;nbsp;&lt;/b&gt;&lt;/span&gt;" style="rounded=1;whiteSpace=wrap;html=1;" vertex="1" parent="4hywxqXHTysx60cE06LW-1">
          <mxGeometry x="530" y="304.14" width="234" height="60" as="geometry" />
        </mxCell>
        <mxCell id="4hywxqXHTysx60cE06LW-10" value="" style="endArrow=classic;html=1;" edge="1" parent="4hywxqXHTysx60cE06LW-1">
          <mxGeometry width="50" height="50" relative="1" as="geometry">
            <mxPoint x="530" y="318" as="sourcePoint" />
            <mxPoint x="416" y="369" as="targetPoint" />
          </mxGeometry>
        </mxCell>
        <mxCell id="4hywxqXHTysx60cE06LW-11" value="&lt;div style=&quot;text-align: left&quot;&gt;&lt;span style=&quot;font-size: 18px ; letter-spacing: -0.072px&quot;&gt;&lt;font color=&quot;#222426&quot;&gt;&lt;b&gt;OBJS에 해당하는 파일들&lt;/b&gt;&lt;/font&gt;&lt;/span&gt;&lt;/div&gt;&lt;div style=&quot;text-align: left&quot;&gt;&lt;span style=&quot;font-size: 18px ; letter-spacing: -0.072px&quot;&gt;&lt;font color=&quot;#222426&quot;&gt;&lt;b&gt;즉, make clean 명령을 입력하면 오브젝트 파일들을 모두 제거&lt;/b&gt;&lt;/font&gt;&lt;/span&gt;&lt;/div&gt;" style="rounded=1;whiteSpace=wrap;html=1;" vertex="1" parent="4hywxqXHTysx60cE06LW-1">
          <mxGeometry x="328" y="426" width="273" height="96" as="geometry" />
        </mxCell>
        <mxCell id="4hywxqXHTysx60cE06LW-12" value="" style="endArrow=classic;html=1;" edge="1" parent="4hywxqXHTysx60cE06LW-1">
          <mxGeometry width="50" height="50" relative="1" as="geometry">
            <mxPoint x="326" y="458" as="sourcePoint" />
            <mxPoint x="273" y="458" as="targetPoint" />
            <Array as="points">
              <mxPoint x="306" y="458" />
            </Array>
          </mxGeometry>
        </mxCell>
      </root>
    </mxGraphModel>
  </diagram>
</mxfile>
